<svg xmlns="http://www.w3.org/2000/svg" width="340" height="340" xmlns:v="https://vecta.io/nano"><path d="M144.3 337c-1.3-.5-2.9-2.8-4.1-6l-1.9-5.2-1.3 3.2c-1.4 3.3-6.2 7-9.2 7-1 0-2.7-.9-3.8-2.1-2.2-2.2-2-6.2.4-10.2 1.5-2.5 8.1-5.8 10.1-5.1 2.6 1 1.7 2.4-1.5 2.4-4.4 0-8.2 4.1-7.8 8.3.4 4.5 3.8 4.9 7.7 1 2.9-2.9 3.6-5.1 7.5-25.6.8-4.3 1.8-8.1 2.1-8.4 1.6-1.6 1.6 1.6 0 9.5-3 14.8-2.1 25.8 2.5 28.2 1.9 1 6.9-.8 9-3.3.8-.9 1.7-3.1 2-4.9.9-4.3 2.5-4.1 2.9.3.4 4.5 1.4 5.4 5.7 5.6 3.9.1 4.8-.9 5.8-6.7 1.2-6.4 5.2-7.4 8.1-2l1.4 2.6 1.1-2.7c1.3-3.4 3.8-3.5 5.3-.2 1.2 2.7 2.8 3.3 2.8 1.1 0-.8.8-2.4 1.9-3.7 1.6-2 2.1-2.1 3.4-1 .9.7 2.3 3.5 3.2 6.3 1.8 5.4 3.1 6.4 7.1 5.4 2.1-.5 2.5-1.1 2-2.8-.7-2.8 1.9-8.3 5.1-10.8 1.4-1.1 4-2 6.1-2 3.2 0 3.9.5 6.5 4.5 5.7 9 8.2 8.1 10-3.8.7-4.7 1.5-8.9 1.9-9.3 1.2-1.2 2.8.6 5.7 6.4l2.9 5.7v-6.8c0-5.4.4-6.9 1.7-7.4 1.7-.7 2.2-.1 6.7 6.7 1.9 2.9 2.8 3.5 5.6 3.3 2.1-.1 4.3-1.1 5.9-2.7 2.5-2.5 2.5-2.6.7-4.6-1-1.1-2-4.1-2.3-6.8-.4-3.8-.1-5.1 1.5-6.5 1.1-1 2.7-1.5 3.6-1.1 2.4.9 2 3.1-.6 3-2-.1-2.2.4-2.2 4.2.2 8.4 7.6 11.5 11.3 4.6 2.9-5.5 1.3-10.3-9.5-29-3.3-5.7-1.2-6.6 2.4-1.1 1.5 2.4 5 7.2 7.8 10.8l5 6.5.5-5.5c.4-4.6.8-5.5 2.6-5.8 1.2-.2 3.5.9 5.2 2.3 4.5 3.8 9 4.9 11.9 2.9 3.5-2.3 3.8-4.2 1-6.4-5.1-4.3-7.4-15.3-3.1-15.3s7.7 4.4 8.8 11.4c.3 2.2.8 4.1 1 4.3 1 1 3.7-1.3 5-4.1 1.7-3.7 4.6-14.1 4.6-16.7 0-1 .5-2 1.1-2.4 1.3-.8.6 4.6-2.2 15.5-1.9 7.8-3.4 9.7-8.2 10.7-1.5.3-3 1.4-3.3 2.4-.8 2.6-5.9 5.1-8.9 4.3-1.4-.3-4.6-2.1-7.2-4-2.6-1.8-5.1-3.1-5.6-2.8-1 .6-.5 9.7.8 12.6 1.2 2.8-1.3 2.1-4.2-1.3-3.1-3.6-3.6-3.4-2.3 1 2.1 7.4-3.1 16.8-8.7 15.8-1.7-.3-3.5.6-6.6 3.4-6.3 5.7-9.5 5-14.1-3.2l-2.5-4.4-1 2.7c-.6 1.6-.8 5.3-.4 8.8.8 8.1-1.2 7.6-4.7-1.2-1.4-3.5-3-6.5-3.6-6.7-1.1-.4-2.3 4.9-2.3 9.9 0 3.4-1.9 7.5-3.7 8.2-2.3.9-6.2-1.6-8.5-5.3l-2.2-3.4-1.5 5c-2.4 8.2-6.5 11.3-10.8 8.1-1.6-1.2-2.2-1.2-4.2.1-1.3.9-3.3 1.2-4.7.9-2.2-.6-3.9-3.7-6.2-11.4-.8-2.7-2.9-.4-3.7 3.9l-1.3 6.7c-.8 3.8-2.1 2.5-3.5-3.5-.8-3.2-1.8-5.7-2.4-5.7-.5 0-1.1 3-1.3 6.8-.3 6.9-1.7 8.9-2.7 4-1.6-7.8-2.8-11.2-4.1-11.7-1.5-.6-1.7-.3-3.3 6.1-1.6 6.1-3.1 6.8-11.2 5.5-.4-.1-1.4-.8-2.3-1.7-1.5-1.5-1.8-1.3-4.5 1.5-1.6 1.7-3.3 3.1-3.9 3.1s-1.6.2-2.3.4-2.3 0-3.5-.4zm72.3-8.5c.9-1.4 1.9-4.5 2.2-7 .4-4.3.3-4.5-2.1-4.5-4.8 0-9 7.4-7.1 12.4.9 2.5 5.1 1.9 7-.9zm88.7-59.3c-2.3-3.1-3.8-3.7-4.6-1.8-.9 2.2.5 6.2 3.3 9.3l2.5 2.8.3-3.9c.2-2.7-.3-4.7-1.6-6.4zM66.2 314.3c-2.6-1.3-3.2-2.1-3.2-4.8 0-2.9-.2-3.2-2.5-2.7-3.1.6-5.5-1.3-5.5-4.4 0-2.1-.5-2.4-4-2.4-5 0-6.4-2.1-4.9-7.6.6-2.1 1.5-4.5 2.1-5.1 1.5-1.8.3-1.5-3.5.7-6.3 3.9-14.7 1.7-14.7-3.8 0-2.1-.7-3-3.1-4.1-2.6-1.2-3-1.8-2.7-4.2.4-2.7.2-2.8-4-3.1-3.9-.3-4.8-.8-7.5-4.6-2.9-4-3-4.5-1.6-6.9.8-1.4 3.6-4 6.1-5.8l4.6-3.2-2.6-1.5c-2.2-1.3-3.1-1.3-5.6-.2-3.9 1.7-11 1.8-12.4.1-1.7-2-.4-2.6 4.8-2 5.6.7 9-.8 9-4.1 0-2.8 3.4-6.1 5.5-5.3 1.8.7 2 3 .4 5.9-.9 1.7-.8 2.3.7 3.4 1 .7 2.8 1.3 4.1 1.3 4.1 0 3.6 2-1.1 4.1-5.4 2.4-11.6 7.6-11.6 9.6 0 1.6 1.6 1.9 2.5.4 1.2-2 8.7-5.1 12.7-5.3 3.4-.1 4.4.3 6.4 2.8l2.4 3-5 4.3c-3.1 2.8-5 5.2-5 6.5 0 2.4 3.9 5.5 4.9 3.9 1.2-1.9 7.1-4.2 10.9-4.2 2.4 0 4.9.8 6.5 2 1.4 1.1 2.8 2 3.1 2s4.5-3.6 9.3-8 9.1-7.7 9.6-7.4-3.3 4.7-8.5 9.7c-9.6 9.3-15.5 18.4-14.1 22.1.9 2.4 5.9 1.9 9.2-1 3.6-3 5.4-1.5 2.3 1.9-2.4 2.5-2.8 7.1-.7 7.9 1.6.8 5.5-.1 5.5-1.2 0-1.2 7.8-6 10.8-6.6 4.5-.9 7.4 2.2 7.6 8.2l.1 4.9 5 1.2c7.2 1.7 12.2 1.6 16.1-.2 1.8-.9 3.9-1.4 4.7-1.1 1.8.7-9.2 5.7-12.5 5.7-1.5 0-5.9-.7-9.7-1.6-6-1.4-7.2-1.4-9.2-.1-3.7 2.3-8.1 2.7-11.6 1zm10.2-2.4l2.5-1.1-2-2.5c-2.4-3-2.5-5.5-.4-7.7 1.5-1.5 1.4-1.6-1-1.6-3 0-10.5 6.7-10.5 9.3 0 2 3.8 4.7 6.7 4.7 1.2 0 3.4-.5 4.7-1.1zm5.4-7.1c.2-.8-.5-1.8-1.4-2.2-2.2-.9-2.7-.2-1.9 2.4.7 2.4 2.8 2.2 3.3-.2zm-36.7-19.5c3.9-2.3 4.5-4.4 1.9-6.5-2.8-2.3-6.7-2.2-10.7.2-3.1 1.9-4.4 5.6-2.6 7.3 1.3 1.3 8.6.6 11.4-1zM27.8 268c5.5-3.2 6-3.8 4.1-5.8-1.6-1.6-6.1-1.5-10.3.2-5.6 2.3-5.9 8.5-.5 8.5.8 0 3.9-1.3 6.8-3zM20 243c0-.5-.4-1-1-1a1.08 1.08 0 0 0-1 1c0 .6.5 1 1 1a.94.94 0 0 0 1-1zm136 63.4c0-1.8 2.2-1.5 2.8.4.2.7-.3 1.2-1.2 1.2a1.58 1.58 0 0 1-1.6-1.6zm-26.5-25.1l-3-17.2-2-11.5c-.5-3.2-3.8-17.6-7.9-34.5-1.9-7.8-4.9-17.7-5.6-18.3-.5-.5-1.4 2.5-2 6.5-.7 4-1.8 9.8-2.5 12.8s-1.6 7.5-2 10-1.7 9-3 14.5-2.6 13.2-3 17.2-1.2 7.9-1.8 8.8c-2 2.8-4.4.8-5.1-4.3-1.1-7.5-7.6-32.7-15.2-58.7-.8-2.7-1.7-6.9-2-9.2s-.8-4.2-1.2-4.2c-.3 0-1.5 1.2-2.7 2.7-2.4 2.7-5.5 2.5-5.5-.7 0-1.8-1.8-4.2-3.1-4.2-.4 0-.9 1.2-1.2 2.8-.3 1.5-2.1 9.1-4.1 16.8-4.6 18.2-5.5 19-17.1 18.1-4.4-.3-9.9-.6-12.3-.6-4.2 0-4.2 0-7.6-6.8-4.4-9-7.1-17.6-9.6-30.3-5.8-30.6-5.5-44.3 1.6-69.2 3.9-14 4.9-16.8 9.8-27.2C24 89.2 26 84.5 26 83.9c0-.5.4-.9.8-.9.5 0 3.7-4.6 7.1-10.2 6.3-10.5 8-12.3 27.3-29.3C78.7 28.2 95 18.7 114 13.1c4.1-1.2 8-2.6 8.5-3 5.7-4.4 53.1-9.4 69-7.4 5 .6 11.5 1.2 14.5 1.2 3.9 0 7.8 1.1 13.5 3.4 4.4 1.9 12.7 4.9 18.4 6.7 7.6 2.4 13.4 5.2 21.1 10.1 20.7 13 30.1 21.2 43.7 38.4 16.2 20.4 23.6 36.4 32.3 69.5 2.8 10.6 3 12.7 2.9 27.5-.1 17.5-1.4 31.4-3.5 38.6-.8 2.6-3.2 8.6-5.4 13.5s-4.8 10.9-5.7 13.4l-1.8 4.5-14.1.3-22.4.7-8.5.3-1.5 12.3c-1.6 12.6-3 16.9-5.5 16.9-1.7 0-2.2-2.7-3-14.5-.3-4.9-1.2-13-2-18-.8-4.9-2.1-17.3-3-27.5l-2-21c-.2-1.4-.4-3.8-.4-5.4-.1-3.8-1.2-2.6-3.1 3.2-1.8 5.5-4.3 6.3-4.8 1.5-.4-3.6-2.9-6.4-4.1-4.5-.4.7-1.3 5.3-2 10.4l-7.7 51.3c-.8 4.4-1.8 10.3-2 13-.3 2.8-1.6 9.3-2.8 14.5-1.3 5.2-2.6 12.1-3 15.3-.5 4.1-1.2 6-2.5 6.7-2.5 1.3-4.7.4-5.4-2.3-2.3-8.1-4.6-19.9-6-30.2-.9-6.6-2-14.2-2.6-17-.9-4-5.1-35.3-5.1-37 0-.3-.9-.5-2-.5-1.5 0-2.1.9-2.6 3.8-1.1 6.3-1.6 7.4-3.3 7-1.1-.2-2-1.9-2.6-4.6-1.4-6.7-3.3-5.3-4.1 3-.4 4-1.3 12.2-2.1 18.2s-1.4 16.2-1.4 22.6c0 12.6-1 15.8-4.6 14.6-2.2-.7-3.5-7-9.4-44.1l-4-24.5c-.5-2.5-1.1-6.2-1.5-8.2-.6-3.4-.8-3.6-2.6-2.5-2.5 1.6-3.9-.2-3.9-5.1 0-2.6-.4-3.3-1.8-3-1 .2-1.9 1.4-2 2.8-.4 3.4-2.3 7-3.8 7-.7 0-1.5-1.3-1.8-3-.3-1.6-.9-3-1.4-3-1 0-5 20.8-6.3 33-1.2 11.1-3.8 27.9-4.5 29.1-.5.7-1.6 8.6-5 33.4-2 14.6-2.5 16.5-4.5 16.5-1.4 0-2.1-1.8-3.5-9.7zm7.6-21.3c.7-5.2 2-13.1 3-17.5s2.5-13.8 3.4-21c.9-7.1 2.6-18.4 3.7-25l3.8-22.7c1-5.9 2.1-11.2 2.5-11.8s1.7-6.1 2.9-12.3c2.1-10.5 2.4-11.2 4.7-11.2 2.7 0 2.6-.5 8 27 3.6 18.4 4.2 22 6.3 37 1.6 11.5 6.9 43.2 8.7 51.6 1.1 5.3 2.8 7.4 2.9 3.7.4-17.2 3.1-49.3 4.9-59.3.5-2.7 1.2-8.4 1.5-12.5s1.1-11 1.7-15.2c1-7.2 1.2-7.7 4.1-8.9 2.8-1.1 3.2-1 4.9 1 1 1.3 1.9 3.7 1.9 5.5s.4 5.7.9 8.6c.5 3 2.1 14.4 3.5 25.4l3.6 27 3 20c3.1 21 6.2 32.9 8.3 32.2.6-.2 1.6-3.7 2.2-7.8a162.39 162.39 0 0 1 2.8-13.9c2.3-8.7 5.8-30.2 11.1-67 5.6-38.7 5.6-39.2 3-39.6-1.1-.2-4-.6-6.5-.9-7.8-1.1-11-3-11-6.3 0-5.3 2.7-6.5 13-6l9 .4 1-3.6c.5-2 1.3-6.1 1.6-9.3.7-5.9 2.4-7.9 5-5.7.8.6 1.6 2.8 2 4.8l.6 3.6 11.2.1c13.9.1 17.9 1.7 17.4 6.7l-.2 3.4-14.2.9c-15.3 1-15 .8-13.4 6.3l.7 2.2 37.5.3 37.5.3.3-3.1c.4-4-4.8-24.2-9.9-38.5-3.8-10.8-10.6-24.9-13.3-27.6-1.8-1.9-17.3-2.7-22.6-1.3-4.2 1.2-4.4 1.3-2.5 2.7 1.1.8 4.6 2.2 7.8 3.1 6.9 1.9 8.7 4.2 5.7 7.2-2.4 2.4.1 2.2-30 2.5-23.8.2-30.9 1-32.6 3.7-1.4 2.2 1.7 3 19.5 4.8 19.1 2 23.1 3.3 23.1 7.1 0 1.1-.9 2.9-2.1 4-2 2-2.7 2-18.2 1.3-8.9-.4-25.9-.8-37.7-.8-18.2-.1-22.1.2-25.2 1.6-4.6 2.1-5.1 5.3-1 6.9 4.6 1.8 21 3.8 37.5 4.5 8.7.4 15.8 1 15.8 1.4 0 1.4-1.8 1.5-14.8.8-35.8-1.9-44.4-3.8-44.4-10 0-2.2.8-3.2 4.3-5 4-2.2 5.5-2.3 28.8-2.5 13.5-.2 30 .2 36.7.7 13.4 1.1 17.3.5 17.3-2.9 0-2.7-3.6-3.5-23.9-5.3-17.2-1.6-20-2.5-18.7-6.4.3-1.1 2.3-2.8 4.4-3.8 3.3-1.7 6.9-1.9 31-2.3 21.4-.3 27.5-.7 28.4-1.8 1.2-1.5.5-1.9-7.6-4.4-14.4-4.5-9-10 9.8-10l8.7-.1-2-3.2c-3.5-5.5-13.3-17.8-19.7-24.6-6.2-6.6-21.8-18.3-34-25.5-6.5-3.9-35.9-14.8-45-16.8-10.9-2.3-30.2-3.2-45.1-2-20.2 1.6-28.5 2.9-30.4 4.6-.9.8-2.1 1.5-2.7 1.5s-5.1 2.7-10.1 6c-5.5 3.6-9.3 5.5-9.7 4.9-.7-1.2-.4-1.6 5.1-5.3 3.9-2.7 3.9-2.7 1-2.1-1.6.3-5.6 1.6-8.7 2.7l-5.7 2.1 4.6 5.6c5.6 6.8 12.4 21.1 14.8 30.8 1.8 7.3 1.7 18.5-.2 26.4-.8 3.2-5.7 13.3-8.5 17.2-1.9 2.7-.5 3.1 7.4 2.2l7.2-1-3.7-2.3c-2.1-1.3-3.7-3-3.7-3.7 0-2 .3-1.9 7.5 2.4l6.4 3.8 14.8.7c18.8.9 23.1 1.7 26 5.1s2.9 6.7 0 10l-2.2 2.6-29.6.3c-27.8.3-29.8.5-33.7 2.5-2.3 1.2-4.2 2.6-4.2 3.1 0 1.6 4.7 3 10.3 3 2.9 0 9.2.5 14.2 1.1 9.6 1.1 13.8 3.1 14.3 6.8.6 4.3-4.3 5.1-32.6 5.6-20.3.3-79.6 2.1-81 2.5-.2 0 0 .5.3 1s3 1.6 5.9 2.5c5.4 1.5 8.5 4 8.5 6.9 0 3.1-4.8 4-21.7 3.8L8 158v3.3c0 15.2 10.5 57.9 15.3 62.4 1.8 1.7 24 2.6 26.1 1.1 1-.7 3-6.4 5.1-14.7 4.3-16.9 5.7-21.7 8.9-30.6 1.4-3.9 2.9-9 3.3-11.3.6-4 3.3-6.8 5.3-5.6.5.3 1.2 3.6 1.5 7.3 1.4 13.9 3.6 29.8 4.4 32.3.5 1.4 1.7 5.4 2.6 9s2.5 9.4 3.5 13c1.8 6.3 9 34.4 10.5 40.5.6 2.7.8 2.8 1.5 1 .4-1.1.9-4 .9-6.5s1.7-12.1 3.6-21.5c2-9.3 4.5-22.5 5.6-29.2 1.7-10.1 2.4-12.2 3.8-12.2.9 0 2.2.6 2.7 1.3 1.3 1.7 3.8 10.1 6.8 23.3l4.6 18.9c2.1 8.2 4 18.3 5.9 32.1.6 4.4 1.7 9.6 2.3 11.5 1.1 3.4 1.2 3.4 2.4-5l2.4-18zm-.8-167.6c-9.7-5.2-11.3-6.6-9.5-7.8 1.1-.7 21.7 10.7 21.4 11.9-.4 1.9-1.7 1.4-12-4.1zM148 81.3c-17-2.7-23.8-5.3-18.8-7.2 7.7 1.4 9.6 2.3 12.8 2.9 12.2 1.7 13 1.9 13 3.5 0 1.5-1.7 1.7-7 .8zm39.8-7.3c-10.8-1-20.6-2.4-21.8-3-1.4-.7-2-1.9-1.8-3.3.3-1.9 1-2.2 5.6-2.5 3.8-.2 5.3-.7 5.3-1.7-.1-.8-.4-1.5-.7-1.5-2 0-22.5-3.3-25.5-4.1-2-.5-3.9-1.6-4.2-2.4-.5-1.2-2.5-1.5-8.8-1.5-5.4 0-8-.4-7.8-1.1.5-1.4 117-2 121.1-.6 2.1.7 2.7 1.5 2.5 3.1-.6 4-4 4.6-26 4.6-21.1 0-23.7.3-23.7 2.5 0 2 2.7 2.7 14.4 3.5 11.4.8 13.9 1.8 12 4.7-3.2 5.2-12.3 5.9-40.6 3.2zm37.5-2.9c1.8-1.8 1.8-1.9-2-2.4-2.1-.4-7.4-.9-11.8-1.2-11.4-.9-15.7-4.3-10.1-8 2-1.3 5.8-1.5 23.3-1.4 11.5.1 21.9-.1 23.1-.5 2.9-1 2.9-3.2 0-3.9-4-1-100.2.2-100.5 1.2-.4 1.3 1.5 1.8 14.8 3.7 10.9 1.6 16 3.3 16 5.5-.1 1.3-4.5 2.9-8.2 2.9-3 0-3.9 1.3-1.8 2.6 2 1.2 40.2 4.3 47.8 3.9 5.6-.3 8-.9 9.4-2.3zm-91.3-5c-2.5-.3-4.3-1-4-1.6.7-1.4 27.3-1.2 27.7.2.7 2-13.1 2.8-23.7 1.4zm-9-20c0-1.1-.2-1 17.8-7.3 13.1-4.6 17.1-5.4 14.6-2.8-1 1-29.6 11-31.4 11-.6 0-1-.4-1-.9zm-3.6-9.3c-1-1.6.4-2.4 9.1-5.9 4.4-1.7 10.7-4.7 14.1-6.6 6.4-3.6 8.9-4.2 8.2-2.2-.2.7-5 3.5-10.7 6.4-14.2 7.2-19.9 9.5-20.7 8.3zm-5.4-8.2c0-.8 1.4-2 3.2-2.7 1.7-.7 5.7-3 8.8-5 13.6-8.9 18-11.1 18-9 0 .8-7.4 6.1-8.6 6.1-.4 0-3.6 2-7.3 4.4-6.4 4.2-12.4 7.6-13.6 7.6-.3 0-.5-.6-.5-1.4zm156.6 213.1c.4-6.4 1.1-12.2 1.5-12.9.6-.9 5.8-1.5 18.6-2.1 9.8-.4 20.1-1 23-1.3 5.1-.6 5.2-.6 7.4-5.8 6.1-14.2 8.3-19.6 9.6-23.8 2.5-8.2 3.9-40.5 1.8-42.8-.6-.6-73.2-.7-73.8 0-1.2 1.2 4.1 67.1 6.3 78.4.5 2.8 1.3 8.8 1.6 13.5.4 4.7.9 9.2 1.1 10 1.1 3.3 2.3-1.9 2.9-13.2zm-69.5-45.3c.6-.8 1.8-1.4 2.5-1.4 1.7 0 1.7 0-.2-14-2.2-15.7-2.2-16-3.9-16-2.2 0-3.3 2.9-4.4 12.1-2.2 18.3-2.2 19.9-.6 20.6.8.3 2 2.4 2.7 4.7l1.2 4.1.8-4.4c.4-2.4 1.3-5 2-5.7zm-131-6.2c1.3-1.5-.8-23.9-2.3-24.8-.5-.3-.8.1-.8.8s-1.4 5.9-3.1 11.4l-3.1 10.1 2.1 2.1c1.2 1.2 2.1 3.1 2.2 4.4v2.3l2-2.5a143.11 143.11 0 0 1 3.1-3.8zm85.9-12c0-2.2 3-6.7 4.5-6.7 1.6 0 3.5 3.4 3.5 6.1 0 3.6.1 3.7 2.3 2.8 1.1-.4 1.3-1.2.7-3.2-.5-1.5-1.8-7.8-3-14.2-3.8-20.5-4.1-22-4.9-22-.4 0-1.4 2.8-2 6.3-.7 3.4-2 9-3 12.3-2.4 8.2-3.5 16.5-2.1 16.5.6 0 1.4 1.1 1.7 2.5.9 3.4 2.4 3.2 2.4-.3zm96.9-6.9c0-1.6.7-2.2 2.1-2.2 2.3 0 2.3.2.9-15-.6-6.3-1-15.1-.9-19.6.1-6.3-.2-8.4-1.4-9.4-1.4-1.2-1.6-1-1.6.8 0 1.2-.1 2.5-.2 2.9-2.9 13.2-5.8 31.7-5.8 37 0 3.2.5 4.5 2 5.3 1.1.6 2.3 2.3 2.7 3.7.6 2.4.7 2.5 1.4.7.4-1.1.8-3 .8-4.2zM42.8 154.5c1.4-1.4-1.4-3.7-6.5-5.1-3.2-.9-6.5-2.3-7.3-3-1.3-1.2-1.2-1.6.3-3.1 1.9-1.9 15-2.5 78.6-3.8 16.2-.3 30.5-1 31.8-1.5 2.9-1.1 3.1-3.5.3-5-1.1-.6-9.2-1.7-18-2.4-9.3-.8-16.6-1.9-17.5-2.6-2.3-1.9-1.8-4.4 1.6-6.9 4-3 17.8-4.1 45.3-3.8 17.8.2 19.5.1 21.4-1.7 2.6-2.4 2.7-6.7.2-9-3.5-3.2-23.4-4.2-57.6-3.1-55 1.8-63.4 1.8-65.5 0-1-1-1.9-3-1.9-4.5 0-3.9 4.1-5.4 11.9-4.5 7 .8 10.1.1 10.1-2.4 0-3.4-2.9-4.5-11.6-4.7-4.6-.1-8.7-.4-9.2-.7s-5.3-.6-10.8-.7l-9.9-.3-4.1 8.3c-3.9 7.7-6 13.8-11.4 31.5-2.2 7.2-5.4 28.5-4.4 29.5 1.7 1.7 32.4 1.3 34.2-.4zm205.4-7.2c.3-2.1.3-4 0-4.2-.2-.3-4.3-.5-9.1-.5-8.6 0-8.7 0-9 2.6-.2 2.1.3 2.8 2.5 3.7 3.3 1.3 6.5 1.9 11.4 2.1 3.5.1 3.7 0 4.1-3.6zm37.3-9.5c.7-.6.2-1.6-1.2-2.8-2.3-1.9-13.9-3.4-21.5-2.9-3.6.3-3.7.4-3.7 4.2v3.9l12.8-.7c7-.4 13.2-1.2 13.8-1.7zM55 102.1c0-.5-.6-1.1-1.2-1.4-.7-.2-.9-.8-.5-1.3s1.5.2 2.3 1.4 2.3 2.2 3.2 2.2c1.2 0 .8-.9-1.7-3.2-2.2-2.1-3.5-2.8-3.8-2-.3.6-1.1 1.2-1.9 1.2-1.2 0-1.2.4-.4 2 1.1 2 4 2.8 4 1.1zm11 .5c0-1.1-4.7-5.3-6.7-6-3-.9-2.8.2.4 3.6 2.2 2.4 6.3 3.9 6.3 2.4zm4.4-2.7c-1.7-1.7-3.9-2.9-4.8-2.7-2.9.5 1.8 5.8 5.2 5.8h2.7zM85 102c0-.4-2.6-4.5-5.8-9.1L64.6 71.6c-4.8-7-9.5-13.7-10.5-14.8-1.7-1.8-2-1.8-3.5-.3-.9.9-1.6 2-1.6 2.3 0 .4 3 4.5 6.8 9.1 8.9 11 22.2 29.4 21.7 29.9-.2.2-1.3-.6-2.3-1.9-1.8-2.2-2-2.3-3.7-.6s-1.6 1.9.9 4.5c2.2 2.3 3.5 2.8 7.6 2.8 2.8.1 5-.2 5-.6zm26.9-5.2l2.8-4.4-5-8c-2.8-4.3-8-12.8-11.5-18.9C91.1 53.5 78.3 34 77.4 34c-1.6 0-5.4 3.5-5.4 5 0 1 3.7 6.9 8.2 13.1l16.6 24.4c4.7 7.2 9.8 14.7 11.4 16.8s2.5 3.8 1.9 3.8c-1.2 0-5.3-5.4-10.9-14.3-7.7-12.3-15.7-24.4-17.3-26-1.1-1.4-7.6-10.7-11.5-16.6-.3-.5-4.4 2.2-4.4 3 0 .3 8.3 13.1 18.5 28.3L103 99.7c0 .4-1.1-.4-2.5-1.7S98 95.3 98 94.8c0-.4-4.1-6.7-9-13.9-5-7.2-9.5-14.1-10.1-15.2-.6-1.2-4.1-6.6-7.7-12l-6.6-9.8-2.9 2.9-2.9 2.9 3.8 5.9c4.6 7.3 9 13.1 22.2 30.2 5.7 7.3 10.1 13.6 9.7 13.9-.3.3-1.3-.3-2-1.4s-2.9-3.8-4.7-6c-4.7-5.9-24-32-27.3-37.1-2.6-4-2.9-4.1-4.6-2.6-2 1.8-2.8.4 24 38.9l7.4 10.6 10.9-.4 10.9-.4zm5.7-10l1.6-3.1-7.8-11.4-9.7-14.6c-10.6-18-16-26.8-16.8-27.2-.7-.5-4.3.9-5.8 2.1-.2.2 3.4 6.1 8.1 13.1 4.6 7 9.7 15.1 11.3 17.8 3.1 5.6 16.7 26.5 17.2 26.5.2 0 1-1.4 1.9-3.1zM67 85.3c0-1.3-18.7-24.6-20.1-25.1-.5-.2-1.2.4-1.5 1.2-.4 1 1.2 3.9 4.3 7.8 2.7 3.4 5.3 6.9 5.7 7.8.9 1.6-4.8-4.4-9.4-9.8-2.3-2.7-2.9-3-3.9-1.9-.9 1.1-.4 2.4 2.5 6.3C52.4 82 55.1 84.5 59.4 85.1c6.3.9 7.5 1 7.5.2zm-9-3.8c-.7-.8-1.1-1.7-.8-2 .2-.2 1 .4 1.7 1.5 1.5 2.3 1 2.6-.8.4zm-5 2.8C53 83.5 40.5 69 39.8 69c-1.8 0-.5 3.2 3.6 8.8 2.4 3.3 5 6.2 5.8 6.4 1.6.6 3.8.6 3.8.1zm-17-1.2c0-1.3-2.9-3.5-3.7-2.8-.7.8 1.5 3.7 2.8 3.7.5 0 .9-.4.9-.9zm5 .2c0-1-6.3-6.3-6.9-5.7-.3.3.8 1.8 2.4 3.5 2.8 2.8 4.5 3.7 4.5 2.2zm.8-4.8c-2.5-3.2-4.6-5.1-5.1-4.6C35.6 75 42.8 84 44.8 84c.8 0-.5-2.3-2.9-5.5zm75.5-8.2c-2.2-3.7-6.4-11.3-9.3-16.8-5.8-11-15.6-27.1-16.9-27.9-.5-.3-1.8.3-3 1.3l-2.2 1.9 3.4 5.3c1.9 2.9 4.5 7.4 5.9 9.8 6.4 11.5 10.6 18.2 17.2 27.4 6.3 8.9 7.1 9.7 8 7.8.7-1.7.1-3.5-3.1-8.9zm3.6-10.7c-.7-1.7-3.5-6.2-6.4-10.1-2.8-3.8-6.7-9.7-8.5-13s-4.4-7.5-5.7-9.3c-1.4-1.8-2.3-3.8-2.1-4.4.4-1.3 5.4 5.6 8.7 12.2 1.9 3.8 8.1 12.8 11.3 16.5 1.7 1.9-.6-4.8-4-11.9-3.9-8.2-10.6-17.3-13.2-18.1-1.7-.5-8 1.9-8 3 0 .3 3.4 6.1 7.5 13s9.1 15.8 11.1 19.7c2 4 5 9.2 6.7 11.7l3.1 4.5.3-5.4c.2-3-.2-6.8-.9-8.5zM69 283.5c0-.8.7-1.5 1.6-1.5 1.3 0 1.4.3.4 1.5-.7.8-1.4 1.5-1.6 1.5s-.4-.7-.4-1.5zm253-38.1c0-.9.5-1.4 1.2-1.2 1.8.6 2.1 2.8.4 2.8a1.58 1.58 0 0 1-1.6-1.6z"/></svg>