<?xml version="1.0" encoding="utf-8"?>
<!-- Generator: Adobe Illustrator 18.0.0, SVG Export Plug-In . SVG Version: 6.00 Build 0)  -->
<!DOCTYPE svg PUBLIC "-//W3C//DTD SVG 1.1//EN" "http://www.w3.org/Graphics/SVG/1.1/DTD/svg11.dtd">
<svg version="1.1" id="communication_and_media" xmlns="http://www.w3.org/2000/svg" xmlns:xlink="http://www.w3.org/1999/xlink"
	 x="0px" y="0px" viewBox="0 0 100 100" style="enable-background:new 0 0 100 100;" xml:space="preserve">
<style type="text/css">
	.st0{fill:#71A58A;}
	.st1{fill:#FF6F69;}
	.st2{fill:#99734A;}
	.st3{fill:#825E3B;}
	.st4{fill:#FFCC5C;}
	.st5{fill:#639376;}
	.st6{fill:#FFEEAD;}
	.st7{fill:#E05858;}
	.st8{fill:#C1821E;}
	.st9{fill:#B28559;}
	.st10{fill:#BF4343;}
	.st11{fill:#96CEB4;}
	.st12{fill:none;}
	.st13{fill:#C9B77D;}
	.st14{fill:#D6A041;}
	.st15{fill:#AA9865;}
	.st16{fill:#FFFFFF;}
	.st17{fill:#FF6F69;stroke:#FFCC5C;stroke-linecap:round;stroke-linejoin:round;stroke-miterlimit:10;}
	.st18{fill:none;stroke:#FF6F69;stroke-width:6;stroke-miterlimit:10;}
</style>
<g id="voice_recorder_1_">
	<g>
		<g>
			<path class="st4" d="M50.11,0H49.89C39.653,0,31.278,8.376,31.278,18.613v34.386c0,10.237,8.376,18.612,18.613,18.612h0.219
				c10.237,0,18.613-8.376,18.613-18.612V18.613C68.722,8.376,60.347,0,50.11,0z"/>
		</g>
	</g>
	<g>
		<g>
			<path class="st0" d="M31.278,36.102v16.897c0,10.237,8.376,18.613,18.613,18.613h0.219c10.237,0,18.613-8.376,18.613-18.613
				V36.102H31.278z"/>
		</g>
	</g>
	<g>
		<g>
			<rect x="31.278" y="37.209" class="st5" width="37.444" height="5.441"/>
		</g>
	</g>
	<g>
		<g>
			<path class="st0" d="M51.726,80.767h-3.452c-0.564,0-1.121-0.024-1.676-0.06V91.31h6.805V80.707
				C52.848,80.742,52.29,80.767,51.726,80.767z"/>
		</g>
	</g>
	<g>
		<g>
			<path class="st14" d="M73.13,35.04v19.788c0,11.801-9.602,21.403-21.403,21.403h-3.452c-11.802,0-21.403-9.602-21.403-21.403
				V35.04h-4.537v19.788c0,14.303,11.637,25.939,25.94,25.939h3.452c14.303,0,25.94-11.636,25.94-25.939V35.04H73.13z"/>
		</g>
	</g>
	<g>
		<g>
			<path class="st8" d="M75.398,35.747c-0.838,0-1.614,0.252-2.268,0.676v7.012c0.654,0.424,1.43,0.676,2.268,0.676
				c0.838,0,1.614-0.252,2.268-0.676v-7.012C77.012,35.999,76.235,35.747,75.398,35.747z"/>
		</g>
	</g>
	<g>
		<g>
			<path class="st8" d="M24.602,35.747c-0.838,0-1.614,0.252-2.268,0.676v7.012c0.654,0.424,1.431,0.676,2.268,0.676
				s1.614-0.252,2.268-0.676v-7.012C26.217,35.999,25.44,35.747,24.602,35.747z"/>
		</g>
	</g>
	<g>
		<g>
			<path class="st5" d="M51.726,80.767h-3.452c-0.564,0-1.121-0.024-1.676-0.06v2.646c0.555,0.036,1.113,0.06,1.676,0.06h3.452
				c0.564,0,1.121-0.024,1.676-0.06v-2.646C52.848,80.742,52.29,80.767,51.726,80.767z"/>
		</g>
	</g>
	<g>
		<g>
			<path class="st13" d="M80.505,33.085h-61.01c-1.459,0-2.653,1.194-2.653,2.653v0.135c0,1.459,1.194,2.653,2.653,2.653h61.01
				c1.459,0,2.653-1.194,2.653-2.653v-0.135C83.158,34.279,81.964,33.085,80.505,33.085z"/>
		</g>
	</g>
	<g>
		<g>
			<path class="st7" d="M70.142,91.31H29.858c-2.429-0.395-4.399,1.574-4.399,4.004v0.288c0,2.429,1.969,4.399,4.399,4.399h40.285
				c2.429,0,4.399-1.969,4.399-4.399v-0.288C74.541,92.884,72.572,90.914,70.142,91.31z"/>
		</g>
	</g>
	<g>
		<g>
			<circle class="st7" cx="75.398" cy="35.747" r="4.182"/>
		</g>
	</g>
	<g>
		<g>
			<circle class="st7" cx="24.602" cy="35.747" r="4.182"/>
		</g>
	</g>
	<g>
		<g>
			<g>
				<circle class="st14" cx="62.666" cy="14.592" r="1.839"/>
			</g>
		</g>
		<g>
			<g>
				<circle class="st14" cx="62.666" cy="21.593" r="1.839"/>
			</g>
		</g>
		<g>
			<g>
				<circle class="st14" cx="62.666" cy="28.594" r="1.839"/>
			</g>
		</g>
		<g>
			<g>
				<circle class="st14" cx="56.333" cy="7.591" r="1.839"/>
			</g>
		</g>
		<g>
			<g>
				<circle class="st14" cx="56.333" cy="14.592" r="1.839"/>
			</g>
		</g>
		<g>
			<g>
				<circle class="st14" cx="56.333" cy="21.593" r="1.839"/>
			</g>
		</g>
		<g>
			<g>
				<circle class="st14" cx="56.333" cy="28.594" r="1.839"/>
			</g>
		</g>
		<g>
			<g>
				<circle class="st14" cx="50" cy="7.591" r="1.839"/>
			</g>
		</g>
		<g>
			<g>
				<circle class="st14" cx="50" cy="14.592" r="1.839"/>
			</g>
		</g>
		<g>
			<g>
				<circle class="st14" cx="50" cy="21.593" r="1.839"/>
			</g>
		</g>
		<g>
			<g>
				<circle class="st14" cx="50" cy="28.594" r="1.839"/>
			</g>
		</g>
		<g>
			<g>
				<circle class="st14" cx="43.667" cy="7.591" r="1.839"/>
			</g>
		</g>
		<g>
			<g>
				<circle class="st14" cx="43.667" cy="14.592" r="1.839"/>
			</g>
		</g>
		<g>
			<g>
				<circle class="st14" cx="43.667" cy="21.593" r="1.839"/>
			</g>
		</g>
		<g>
			<g>
				<circle class="st14" cx="43.667" cy="28.594" r="1.839"/>
			</g>
		</g>
		<g>
			<g>
				<circle class="st14" cx="37.334" cy="14.592" r="1.839"/>
			</g>
		</g>
		<g>
			<g>
				<circle class="st14" cx="37.334" cy="21.593" r="1.839"/>
			</g>
		</g>
		<g>
			<g>
				<circle class="st14" cx="37.334" cy="28.594" r="1.839"/>
			</g>
		</g>
	</g>
</g>
</svg>
