<svg width="226" height="386" xmlns="http://www.w3.org/2000/svg">

 <g>
  <title>Layer 1</title>
  <path id="svg_2" fill="#9B6627" d="m207.6,340.8l-188.6,0c-2.3,0 -4.1,1.9 -4.1,4.1l0,34.7c0,2.3 1.9,4.1 4.1,4.1l30.6,0c2.3,0 4.1,-1.9 4.1,-4.1l0,-10.7l119.1,0l0,10.7c0,2.3 1.9,4.1 4.1,4.1l30.6,0c2.3,0 4.1,-1.9 4.1,-4.1l0,-34.7c0.1,-2.2 -1.7,-4.1 -4,-4.1z"/>
  <path id="svg_3" fill="#D61E1E" d="m217.5,236l0,-118.7c0,-62.4 -46.7,-113 -104.2,-113s-104.2,50.6 -104.2,113l0,119.3l0,0l0,51.6c0,6.3 208.5,0 208.5,0l0,-51.6c-0.1,-0.2 -0.1,-0.4 -0.1,-0.6z"/>
  <path id="svg_4" fill="#FDD951" d="m208.7,231l0,-108.6c0,-57.1 -42.7,-103.5 -95.4,-103.5s-95.4,46.3 -95.4,103.5l0,109.2l0,0l0,92.5c0,5.8 4.7,10.4 10.4,10.4l170,0c5.8,0 10.4,-4.7 10.4,-10.4l0,-92.6c0,-0.2 0,-0.3 0,-0.5z"/>
  <path id="svg_5" fill="#FFBD02" d="m198.1,336.5l-169.6,0c-7,0 -12.7,-5.7 -12.7,-12.7l0,-201.3c0,-28.2 10.1,-54.6 28.5,-74.6s42.9,-31 69,-31s50.6,11 69,31c18.4,19.9 28.5,46.4 28.5,74.6l0,108.4c0,0.2 0,0.4 0,0.6l0,92.4c0,6.9 -5.7,12.6 -12.7,12.6zm-177.8,-105l0,92.4c0,4.5 3.7,8.2 8.2,8.2l169.6,0c4.5,0 8.2,-3.7 8.2,-8.2l0,-92.4c0,-0.1 0,-0.3 0,-0.4l0,-0.1l0,-108.5c0,-55.7 -41.7,-101 -93,-101s-93,45.3 -93,101l0,109l0,0z"/>
  <rect id="svg_6" fill="#D61E1E" height="18.2" width="29" y="13.5" x="99.2"/>
  <path id="svg_7" fill="#602213" d="m113.3,31.5c-44.1,0 -79.8,38.8 -79.8,86.6l0,183.6l159.6,0l0,-183.6c0,-47.8 -35.7,-86.6 -79.8,-86.6z"/>
  <g id="svg_8">
   <path id="svg_9" fill="#833119" d="m113.3,36c-41.6,0 -75.3,36.5 -75.3,81.6l0,203.3l150.5,0l0,-203.3c0,-45.1 -33.6,-81.6 -75.2,-81.6z"/>
   <path id="svg_10" fill="#833119" d="m219.6,280l-212.6,0l0,58.2c0,6.4 5.2,11.6 11.6,11.6l189.4,0c6.4,0 11.6,-5.2 11.6,-11.6l0,-58.2z"/>
  </g>
  <g id="svg_11">
   <path id="svg_12" fill="#682212" d="m41.3,280l-34.3,0l0,58.2c0,6.4 5.2,11.6 11.6,11.6l22.7,0l0,-69.8z"/>
   <path id="svg_13" fill="#682212" d="m185.2,280l34.3,0l0,58.2c0,6.4 -5.2,11.6 -11.6,11.6l-22.7,0l0,-69.8l0,0z"/>
  </g>
  <rect id="svg_14" fill="#FEE897" height="118.8" width="90.2" y="183.3" x="68.2"/>
  <path id="svg_15" fill="#8B8C8B" d="m140,194.3l-8.2,-11l-5,0l10.7,14.4l-10.7,14.5l-10.8,-14.5l10.7,-14.4l-5,0l-8.2,11l-8.2,-11l-5,0l10.7,14.4l-10.8,14.5l-10.8,-14.5l10.7,-14.4l-5,0l-8.2,11l-8.2,-11l-5,0l10.7,14.4l-10.8,14.5l-1,-1.3l0,9.4l1,-1.3l10.8,14.5l-10.8,14.5l-1,-1.3l0,5.9c0,1.1 0,2.2 0.1,3.3l0.9,-1.2l10.8,14.5l-5.8,7.8c0.7,1.3 1.4,2.6 2.2,3.8l6.1,-8.2l10.8,14.5l-4.7,6.3c1.1,0.8 2.3,1.5 3.5,2.1l3.7,-5l6.3,8.6c1.8,0.4 3.6,0.6 5.5,0.6l-9.3,-12.6l10.8,-14.5l10.8,14.5l-9.3,12.6c1.9,-0.1 3.7,-0.3 5.5,-0.7l6.3,-8.5l3.6,4.9c1.2,-0.6 2.3,-1.3 3.5,-2.1l-4.6,-6.2l10.8,-14.5l5.9,8c0.8,-1.2 1.5,-2.5 2.2,-3.8l-5.6,-7.6l10.8,-14.5l0.6,0.8c0.1,-1 0.1,-2 0.1,-3l0,-5.5l-0.7,0.9l-10.8,-14.5l10.8,-14.5l0.7,0.9l0,-8.6l-0.7,0.9l-10.8,-14.5l10.7,-14.4l-5,0l-8.3,11.1zm-2.6,39.3l-10.8,14.5l-10.8,-14.5l10.8,-14.5l10.8,14.5zm-24,-32.5l10.8,14.5l-10.8,14.5l-10.8,-14.5l10.8,-14.5zm-2.5,32.5l-10.8,14.5l-10.8,-14.5l10.8,-14.5l10.8,14.5zm-34.7,-17.9l10.8,-14.5l10.8,14.5l-10.8,14.5l-10.8,-14.5zm0,35.8l10.7,-14.5l10.8,14.5l-10.8,14.6l-10.7,-14.6zm24,32.5l-10.8,-14.5l10.8,-14.5l10.8,14.5l-10.8,14.5zm2.5,-32.4l10.8,-14.5l10.8,14.5l-10.9,14.5l-10.7,-14.5zm24,32.4l-10.8,-14.5l10.8,-14.5l10.7,14.5l-10.7,14.5zm24,-32.5l-10.7,14.6l-10.8,-14.5l10.8,-14.5l10.7,14.4zm0,-35.8l-10.8,14.5l-10.8,-14.5l10.8,-14.5l10.8,14.5z"/>
  <g id="svg_16">
   <polygon id="svg_17" fill="#555957" points="126.70001220703125,183.1999969482422 126.60000610351562,183.3000030517578 126.79998779296875,183.3000030517578 "/>
   <polygon id="svg_18" fill="#555957" points="100.19999694824219,183.1999969482422 100.10000610351562,183.3000030517578 100.30000305175781,183.3000030517578 "/>
  </g>
  <circle id="svg_19" fill="#8B8C8B" r="15.8" cy="267.4" cx="114.8"/>
  <circle id="svg_20" fill="#EF3030" r="12.3" cy="267.4" cx="114.8"/>
  <path id="svg_21" fill="#FDD951" d="m153.9,252.8c0,26.1 -18.2,47.3 -40.6,47.3s-40.6,-21.2 -40.6,-47.3l0,-69.5l-21.9,0l0,70.4c0,19.2 6.5,37.3 18.2,50.9c11.8,13.7 27.5,21.2 44.3,21.2c16.7,0 32.5,-7.5 44.3,-21.2c11.7,-13.6 18.2,-31.7 18.2,-50.9l0,-70.4l-21.9,0l0,69.5z"/>
  <path id="svg_22" fill="#F7D152" d="m174.8,99.6c-2.6,-15.3 -10.2,-29.2 -21.2,-39.3c-11.3,-10.2 -25.5,-15.9 -40.2,-15.9c-14.7,0 -29,5.6 -40.2,15.9c-11.1,10.1 -18.6,24 -21.2,39.3c-0.1,0.7 0.1,1.4 0.5,1.9s1.1,0.8 1.8,0.8l118.3,0c0.7,0 1.4,-0.3 1.8,-0.8c0.3,-0.5 0.5,-1.2 0.4,-1.9z"/>
  <path id="svg_23" fill="#FEE897" d="m178.2,113.1l-130.7,0c-0.8,0 -1.4,0.6 -1.4,1.4l0,33c0,0.8 0.6,1.4 1.4,1.4l130.7,0c0.8,0 1.4,-0.6 1.4,-1.4l0,-33c-0.1,-0.8 -0.7,-1.4 -1.4,-1.4z"/>
  <path id="svg_24" fill="#C1C1C1" d="m122.2,149.9l0,-38c0,-0.4 -0.4,-0.7 -0.9,-0.7l-17.1,0c-0.5,0 -0.9,0.3 -0.9,0.7l0,38c0,0.4 0.4,0.7 0.9,0.7l17.1,0c0.5,0 0.9,-0.3 0.9,-0.7z"/>
  <g id="svg_25">
   <circle id="svg_26" fill="#D61E1E" r="1.7" cy="116.9" cx="110"/>
   <circle id="svg_27" fill="#D61E1E" r="1.7" cy="116.9" cx="115.6"/>
   <circle id="svg_28" fill="#D61E1E" r="1.7" cy="122" cx="110"/>
   <circle id="svg_29" fill="#D61E1E" r="1.7" cy="122" cx="115.6"/>
   <circle id="svg_30" fill="#D61E1E" r="1.7" cy="127" cx="110"/>
   <circle id="svg_31" fill="#D61E1E" r="1.7" cy="127" cx="115.6"/>
   <circle id="svg_32" fill="#D61E1E" r="1.7" cy="132" cx="110"/>
   <circle id="svg_33" fill="#D61E1E" r="1.7" cy="132" cx="115.6"/>
   <circle id="svg_34" fill="#D61E1E" r="1.7" cy="137.1" cx="110"/>
   <circle id="svg_35" fill="#D61E1E" r="1.7" cy="137.1" cx="115.6"/>
   <circle id="svg_36" fill="#D61E1E" r="1.7" cy="144" cx="107.2"/>
   <circle id="svg_37" fill="#D61E1E" r="1.7" cy="144" cx="112.8"/>
   <circle id="svg_38" fill="#D61E1E" r="1.7" cy="144" cx="118.3"/>
  </g>
  <g id="svg_39">
   <path id="svg_40" fill="#FFFBEE" d="m72.9,116.7l-19,0c-0.4,0 -0.8,0.3 -0.8,0.8l0,5.4c0,0.4 0.3,0.8 0.8,0.8l19,0c0.4,0 0.8,-0.3 0.8,-0.8l0,-5.4c0,-0.5 -0.4,-0.8 -0.8,-0.8z"/>
   <path id="svg_41" fill="#FFFBEE" d="m98.8,116.7l-19,0c-0.4,0 -0.8,0.3 -0.8,0.8l0,5.4c0,0.4 0.3,0.8 0.8,0.8l19,0c0.4,0 0.8,-0.3 0.8,-0.8l0,-5.4c-0.1,-0.5 -0.4,-0.8 -0.8,-0.8z"/>
   <path id="svg_42" fill="#FFFBEE" d="m72.9,127.7l-19,0c-0.4,0 -0.8,0.3 -0.8,0.8l0,5.4c0,0.4 0.3,0.8 0.8,0.8l19,0c0.4,0 0.8,-0.3 0.8,-0.8l0,-5.4c0,-0.4 -0.4,-0.8 -0.8,-0.8z"/>
   <path id="svg_43" fill="#FFFBEE" d="m98.8,127.7l-19,0c-0.4,0 -0.8,0.3 -0.8,0.8l0,5.4c0,0.4 0.3,0.8 0.8,0.8l19,0c0.4,0 0.8,-0.3 0.8,-0.8l0,-5.4c-0.1,-0.4 -0.4,-0.8 -0.8,-0.8z"/>
   <path id="svg_44" fill="#FFFBEE" d="m72.9,138.3l-19,0c-0.4,0 -0.8,0.3 -0.8,0.8l0,5.4c0,0.4 0.3,0.8 0.8,0.8l19,0c0.4,0 0.8,-0.3 0.8,-0.8l0,-5.4c0,-0.5 -0.4,-0.8 -0.8,-0.8z"/>
   <path id="svg_45" fill="#FFFBEE" d="m98.8,138.3l-19,0c-0.4,0 -0.8,0.3 -0.8,0.8l0,5.4c0,0.4 0.3,0.8 0.8,0.8l19,0c0.4,0 0.8,-0.3 0.8,-0.8l0,-5.4c-0.1,-0.5 -0.4,-0.8 -0.8,-0.8z"/>
   <path id="svg_46" fill="#FFFBEE" d="m145.5,116.7l-19,0c-0.4,0 -0.8,0.3 -0.8,0.8l0,5.4c0,0.4 0.3,0.8 0.8,0.8l19,0c0.4,0 0.8,-0.3 0.8,-0.8l0,-5.4c0,-0.5 -0.4,-0.8 -0.8,-0.8z"/>
   <path id="svg_47" fill="#FFFBEE" d="m171.4,116.7l-19,0c-0.4,0 -0.8,0.3 -0.8,0.8l0,5.4c0,0.4 0.3,0.8 0.8,0.8l19,0c0.4,0 0.8,-0.3 0.8,-0.8l0,-5.4c-0.1,-0.5 -0.4,-0.8 -0.8,-0.8z"/>
   <path id="svg_48" fill="#FFFBEE" d="m145.5,127.7l-19,0c-0.4,0 -0.8,0.3 -0.8,0.8l0,5.4c0,0.4 0.3,0.8 0.8,0.8l19,0c0.4,0 0.8,-0.3 0.8,-0.8l0,-5.4c0,-0.4 -0.4,-0.8 -0.8,-0.8z"/>
   <path id="svg_49" fill="#FFFBEE" d="m171.4,127.7l-19,0c-0.4,0 -0.8,0.3 -0.8,0.8l0,5.4c0,0.4 0.3,0.8 0.8,0.8l19,0c0.4,0 0.8,-0.3 0.8,-0.8l0,-5.4c-0.1,-0.4 -0.4,-0.8 -0.8,-0.8z"/>
   <path id="svg_50" fill="#FFFBEE" d="m145.5,138.3l-19,0c-0.4,0 -0.8,0.3 -0.8,0.8l0,5.4c0,0.4 0.3,0.8 0.8,0.8l19,0c0.4,0 0.8,-0.3 0.8,-0.8l0,-5.4c0,-0.5 -0.4,-0.8 -0.8,-0.8z"/>
   <path id="svg_51" fill="#FFFBEE" d="m171.4,138.3l-19,0c-0.4,0 -0.8,0.3 -0.8,0.8l0,5.4c0,0.4 0.3,0.8 0.8,0.8l19,0c0.4,0 0.8,-0.3 0.8,-0.8l0,-5.4c-0.1,-0.5 -0.4,-0.8 -0.8,-0.8z"/>
  </g>
  <g id="svg_52">
   <path id="svg_53" fill="#8B8C8B" d="m44.6,114l-38,0c-0.4,0 -0.7,0.4 -0.7,0.9l0,4.5c0,0.5 0.3,0.9 0.7,0.9l38,0c0.4,0 0.7,-0.4 0.7,-0.9l0,-4.5c0,-0.5 -0.3,-0.9 -0.7,-0.9z"/>
   <path id="svg_54" fill="#8B8C8B" d="m44.6,127.8l-38,0c-0.4,0 -0.7,0.4 -0.7,0.9l0,4.5c0,0.5 0.3,0.9 0.7,0.9l38,0c0.4,0 0.7,-0.4 0.7,-0.9l0,-4.5c0,-0.5 -0.3,-0.9 -0.7,-0.9z"/>
   <path id="svg_55" fill="#8B8C8B" d="m44.6,141.8l-38,0c-0.4,0 -0.7,0.4 -0.7,0.9l0,4.5c0,0.5 0.3,0.9 0.7,0.9l38,0c0.4,0 0.7,-0.4 0.7,-0.9l0,-4.5c0,-0.5 -0.3,-0.9 -0.7,-0.9z"/>
   <path id="svg_56" fill="#8B8C8B" d="m47.7,149.9l0,-38c0,-0.4 -0.4,-0.7 -0.9,-0.7l-4.5,0c-0.5,0 -0.9,0.3 -0.9,0.7l0,38c0,0.4 0.4,0.7 0.9,0.7l4.5,0c0.5,0 0.9,-0.3 0.9,-0.7z"/>
   <path id="svg_57" fill="#8B8C8B" d="m219.6,114l-38,0c-0.4,0 -0.7,0.4 -0.7,0.9l0,4.5c0,0.5 0.3,0.9 0.7,0.9l38,0c0.4,0 0.7,-0.4 0.7,-0.9l0,-4.5c0,-0.5 -0.3,-0.9 -0.7,-0.9z"/>
   <path id="svg_58" fill="#8B8C8B" d="m219.6,127.8l-38,0c-0.4,0 -0.7,0.4 -0.7,0.9l0,4.5c0,0.5 0.3,0.9 0.7,0.9l38,0c0.4,0 0.7,-0.4 0.7,-0.9l0,-4.5c0,-0.5 -0.3,-0.9 -0.7,-0.9z"/>
   <path id="svg_59" fill="#8B8C8B" d="m219.6,141.8l-38,0c-0.4,0 -0.7,0.4 -0.7,0.9l0,4.5c0,0.5 0.3,0.9 0.7,0.9l38,0c0.4,0 0.7,-0.4 0.7,-0.9l0,-4.5c0,-0.5 -0.3,-0.9 -0.7,-0.9z"/>
   <path id="svg_60" fill="#8B8C8B" d="m184.6,149.9l0,-38c0,-0.4 -0.4,-0.7 -0.9,-0.7l-4.5,0c-0.5,0 -0.9,0.3 -0.9,0.7l0,38c0,0.4 0.4,0.7 0.9,0.7l4.5,0c0.5,0 0.9,-0.3 0.9,-0.7z"/>
  </g>
  <g id="svg_61">
   <path id="svg_62" fill="#6D6D6D" d="m118.3,335.1c0,2 -1.7,3.7 -3.7,3.7l-3.7,0c-2,0 -3.7,-1.7 -3.7,-3.7l2,-36.5c0,-1.3 1,-2.3 2.3,-2.3l2.3,0c1.3,0 2.3,1 2.3,2.3l2.2,36.5z"/>
   <circle id="svg_63" fill="#6D6D6D" r="10.6" cy="327.3" cx="58.6"/>
  </g>
  <g id="svg_64">
   <path id="svg_65" fill="#8B8C8B" d="m75.5,12c4.2,-1.6 11.8,-6 14,1.4l8.3,26l14.4,-1l-0.4,-9.4l-8.2,0.5c0,0 -6.6,-8.6 -0.7,-12.3c1.4,-0.9 6.6,-1.5 7.4,-1.7c0,0 -0.1,-4.9 -1.2,-5.3c-3.5,-3.5 -9.7,2.7 -9.7,2.7l-3.6,-5.2c0,0 -3.8,-6.6 -9.3,-5.2c-5.5,1.5 -11.4,7.8 -11.4,7.8s-10.1,-2.9 -12.2,8c-0.1,0 8.4,-4.7 12.6,-6.3z"/>
   <path id="svg_66" fill="#8B8C8B" d="m151,12c-4.2,-1.6 -11.8,-6 -14,1.4l-8.3,26l-14.3,-1l0.4,-9.4l8.2,0.5c0,0 6.6,-8.6 0.7,-12.3c-1.4,-0.9 -6.6,-1.5 -7.4,-1.7c0,0 0.1,-4.9 1.2,-5.3c3.4,-3.4 9.7,2.7 9.7,2.7l3.6,-5.2c0,0 3.8,-6.6 9.3,-5.2c5.5,1.5 11.4,7.8 11.4,7.8s10.1,-2.9 12.2,8c-0.1,0 -8.5,-4.7 -12.7,-6.3z"/>
  </g>
  <g id="svg_67"/>
  <g id="svg_68"/>
  <g id="svg_69"/>
  <g id="svg_70"/>
  <g id="svg_71"/>
  <g id="svg_72"/>
  <g id="svg_73"/>
  <g id="svg_74"/>
  <g id="svg_75"/>
  <g id="svg_76"/>
  <g id="svg_77"/>
  <g id="svg_78"/>
  <g id="svg_79"/>
  <g id="svg_80"/>
  <g id="svg_81"/>
 </g>
</svg>