<?xml version="1.0" encoding="UTF-8" standalone="no"?>
<svg
   width="213.859"
   height="213.865"
   version="1.1"
   id="svg65"
   sodipodi:docname="radio-dimanche-logo-text.svg"
   inkscape:version="1.1 (c68e22c387, 2021-05-23)"
   xmlns:inkscape="http://www.inkscape.org/namespaces/inkscape"
   xmlns:sodipodi="http://sodipodi.sourceforge.net/DTD/sodipodi-0.dtd"
   xmlns="http://www.w3.org/2000/svg"
   xmlns:svg="http://www.w3.org/2000/svg">
  <defs
     id="defs69" />
  <sodipodi:namedview
     id="namedview67"
     pagecolor="#505050"
     bordercolor="#eeeeee"
     borderopacity="1"
     inkscape:pageshadow="0"
     inkscape:pageopacity="0"
     inkscape:pagecheckerboard="0"
     showgrid="false"
     inkscape:zoom="3.357258"
     inkscape:cx="48.253664"
     inkscape:cy="106.9325"
     inkscape:window-width="1680"
     inkscape:window-height="956"
     inkscape:window-x="-11"
     inkscape:window-y="-11"
     inkscape:window-maximized="1"
     inkscape:current-layer="g63" />
  <g
     transform="translate(184.017,1.563)"
     id="g63">
    <path
       d="m 29.842,105.373 c 0,59.06 -47.87,106.929 -106.933,106.929 -59.05,0 -106.926,-47.87 -106.926,-106.929 0,-59.057 47.876,-106.936 106.926,-106.936 59.064,0 106.933,47.879 106.933,106.936 z"
       id="path40" />
    <path
       d="m -40.176,105.373 c 0,20.385 -16.525,36.918 -36.915,36.918 -20.388,0 -36.915,-16.532 -36.915,-36.918 0,-20.39 16.527,-36.915 36.915,-36.915 20.39,0 36.915,16.526 36.915,36.915 z"
       fill="#ffffff"
       id="path42" />
    <path
       d="m -164.973,61.185 c 10.256,-20.362 27.382,-36.666 48.333,-45.88 M 12.976,144.92 c -9.904,22.525 -28.01,40.63 -50.541,50.535 m -120.91,-135.14 a 93.4,93.4 0 0 1 40.86,-38.69 M 6.688,145.833 c -9.121,18.859 -24.432,34.17 -43.29,43.302 M -154.377,62.963 c 9.016,-16.394 23.098,-29.61 40.13,-37.54 M 2.942,142.352 A 88.458,88.458 0 0 1 -39.46,185.1 M 0.381,135.885 c -7.19,18.248 -20.642,33.344 -37.712,42.643 M -151.013,67.06 a 83.644,83.644 0 0 1 35.638,-35.626 M -5.05,136.687 c -7.264,16.694 -20.167,30.375 -36.305,38.632 M -145.904,67.492 a 78.903,78.903 0 0 1 34.767,-32.91 m -32.273,39.165 c 6.423,-13.457 16.828,-24.648 29.683,-32.062 m 96.903,94.99 a 68.23,68.23 0 0 1 -25.647,27.122 m -93.51,-92.237 a 68.208,68.208 0 0 1 27.59,-26.453 m 84.636,92.611 a 62.702,62.702 0 0 1 -24.357,22.894 m -81.555,-88.785 a 62.622,62.622 0 0 1 25.4,-22.6 m 77.483,83.042 a 57.384,57.384 0 0 1 -20.013,21.438 m -78.428,-78.933 a 57.254,57.254 0 0 1 20.951,-19.55 m 74.41,72.633 a 52.53,52.53 0 0 1 -20.377,22.407 m -72.855,-69.791 a 52.59,52.59 0 0 1 21.1,-21.106 m 66.658,67.533 a 47.132,47.132 0 0 1 -18.15,19.086 m -64.22,-64.223 A 47.19,47.19 0 0 1 -96.14,62.426 m 58.118,59.019 a 42.434,42.434 0 0 1 -20.168,21.704 m -56.427,-57.174 a 42.414,42.414 0 0 1 18.125,-18.128 m 87.999,63.867 c -5.764,15.014 -16.317,27.647 -29.782,36.038"
       fill="none"
       stroke="#ffffff"
       stroke-width="2.37"
       stroke-linecap="round"
       stroke-linejoin="round"
       id="path46" />
    <ellipse
       cx="-77.264"
       cy="106.704"
       rx="38.877998"
       ry="35.527"
       fill="#fdf9d8"
       id="ellipse48" />
    <path
       d="m -79.975,139.016 c -0.244,-0.055 -0.435,-0.189 -0.887,-0.62 -0.317,-0.303 -0.665,-0.68 -0.774,-0.838 -0.28,-0.41 -0.68,-1.524 -1.007,-2.806 a 72.272,72.272 0 0 0 -0.42,-1.59 35.373,35.373 0 0 1 -0.405,-1.74 171.805,171.805 0 0 0 -1.002,-4.449 52.55,52.55 0 0 1 -0.722,-3.444 57.22,57.22 0 0 0 -0.36,-1.838 c -0.096,-0.44 -0.175,-0.86 -0.175,-0.933 0,-0.074 -0.13,-0.668 -0.287,-1.32 a 43.902,43.902 0 0 1 -0.471,-2.224 c -0.101,-0.572 -0.26,-1.38 -0.355,-1.794 a 35.967,35.967 0 0 1 -0.32,-1.65 c -0.623,-3.711 -1.678,-9.24 -1.785,-9.346 -0.032,-0.033 -0.1,0.176 -0.15,0.463 -0.173,0.99 -0.474,1.457 -1.073,1.668 -0.883,0.312 -1.112,-0.009 -1.513,-2.12 -0.3,-1.573 -0.415,-1.97 -0.65,-2.222 -0.154,-0.163 -0.261,-0.211 -0.475,-0.211 -0.374,0 -0.796,0.125 -0.953,0.282 -0.13,0.13 -0.375,1.272 -0.47,2.193 -0.025,0.237 -0.186,1.19 -0.359,2.117 -0.172,0.928 -0.349,1.96 -0.393,2.296 l -0.18,1.4 -0.215,1.65 c -0.063,0.474 -0.192,1.572 -0.288,2.44 -0.096,0.868 -0.29,2.483 -0.432,3.588 -0.14,1.105 -0.32,2.526 -0.397,3.157 -0.23,1.88 -0.897,5.28 -1.265,6.45 -0.238,0.757 -0.583,1.116 -1.285,1.332 -0.547,0.17 -0.887,0.181 -1.269,0.045 -0.863,-0.308 -1.347,-1.125 -2.192,-3.701 -0.547,-1.669 -0.6,-1.88 -1.272,-5.109 -0.137,-0.659 -0.285,-1.288 -0.328,-1.4 a 7.847,7.847 0 0 1 -0.209,-0.81 c -0.071,-0.336 -0.21,-0.933 -0.309,-1.328 a 89.081,89.081 0 0 1 -0.374,-1.579 c -0.235,-1.042 -0.44,-1.614 -0.575,-1.614 -0.157,0 -0.286,0.247 -0.867,1.66 -0.992,2.414 -1.433,3.058 -2.397,3.503 l -0.513,0.236 -1.805,0.06 c -0.993,0.035 -1.978,0.077 -2.189,0.095 -0.478,0.042 -0.67,-0.043 -0.86,-0.38 -0.182,-0.325 -0.828,-2.58 -0.983,-3.434 -0.062,-0.345 -0.223,-1.177 -0.357,-1.848 -0.317,-1.584 -0.378,-2.173 -0.474,-4.592 -0.1,-2.487 -0.047,-5.78 0.11,-6.981 0.363,-2.773 0.89,-5.094 1.868,-8.232 0.173,-0.552 0.334,-1.107 0.36,-1.232 0.025,-0.125 0.19,-0.552 0.364,-0.95 l 0.318,-0.721 0.302,-0.84 c 0,0 0.098,-0.007 1.01,-2.14 0.216,-0.505 0.995,-1.976 1.33,-2.512 0.39,-0.623 1.662,-2.397 2.256,-3.146 1.252,-1.58 4.59,-4.87 5.724,-5.643 0.138,-0.094 0.413,-0.318 0.611,-0.499 0.84,-0.765 1.684,-1.46 2.187,-1.801 2.089,-1.418 2.229,-1.5 4.282,-2.494 1.778,-0.862 3.168,-1.417 4.795,-1.916 a 44.029,44.029 0 0 0 1.543,-0.507 19.77,19.77 0 0 1 1.543,-0.456 16.958,16.958 0 0 0 1.256,-0.357 c 1.175,-0.426 1.442,-0.507 1.901,-0.573 0.277,-0.04 0.97,-0.173 1.543,-0.297 1.667,-0.36 3.551,-0.648 4.553,-0.695 0.898,-0.043 3.239,0.059 4.489,0.194 2.873,0.312 5.168,0.707 6.745,1.161 2.178,0.628 4.748,1.515 5.633,1.945 0.513,0.249 1.115,0.526 1.338,0.616 0.488,0.196 2.556,1.327 3.507,1.917 0.375,0.233 1.199,0.795 1.83,1.25 l 1.448,1.04 c 1.124,0.802 3.447,3.013 5.376,5.116 0.765,0.833 1.81,2.238 2.467,3.315 0.204,0.335 0.51,0.82 0.678,1.076 1.193,1.817 2.442,4.063 2.906,5.225 0.152,0.383 0.526,1.244 0.83,1.915 0.754,1.669 1.234,3.177 1.758,5.529 1.229,5.518 1.395,9.765 0.57,14.6 -0.355,2.07 -0.533,2.83 -0.99,4.203 -0.646,1.945 -0.916,2.56 -1.286,2.936 l -0.332,0.338 -0.47,-0.037 c -3.702,-0.293 -4.823,-0.22 -5.761,0.376 a 2.319,2.319 0 0 0 -0.507,0.446 c -0.184,0.241 -0.713,1.475 -0.95,2.214 -0.163,0.51 -0.502,1.188 -0.753,1.508 -0.316,0.4 -0.922,0.778 -1.389,0.864 -0.798,0.148 -1.653,-0.196 -2.005,-0.806 -0.206,-0.356 -0.455,-1.158 -0.588,-1.889 -0.23,-1.27 -0.35,-1.853 -0.538,-2.62 a 35.513,35.513 0 0 1 -0.28,-1.22 12.9,12.9 0 0 0 -0.185,-0.783 c -0.059,-0.215 -0.317,-1.49 -0.575,-2.835 -0.503,-2.628 -0.734,-3.515 -0.992,-3.815 -0.352,-0.41 -0.646,-0.032 -0.938,1.203 -0.097,0.408 -0.29,1.145 -0.428,1.638 -0.849,3.01 -2.39,9.626 -2.56,10.98 a 27.97,27.97 0 0 1 -0.834,4.125 c -0.215,0.75 -0.433,1.445 -0.484,1.543 -0.456,0.875 -0.78,1.296 -1.144,1.485 a 3.36,3.36 0 0 1 -0.672,0.212 c -0.395,0.083 -0.506,0.08 -0.969,-0.037 -0.668,-0.167 -0.902,-0.29 -1.225,-0.648 -0.592,-0.655 -1.073,-2.008 -1.88,-5.281 -0.663,-2.696 -0.807,-3.35 -1.217,-5.543 -0.175,-0.938 -0.4,-2.125 -0.501,-2.638 -0.101,-0.513 -0.266,-1.385 -0.366,-1.937 -0.471,-2.597 -0.766,-4.117 -0.904,-4.669 -0.208,-0.83 -0.202,-0.838 0.565,-0.797 1.824,0.1 3.378,0.293 3.586,0.446 0.116,0.085 0.098,0.106 -0.195,0.231 -0.178,0.076 -0.743,0.276 -1.256,0.445 -0.513,0.17 -0.96,0.332 -0.992,0.361 -0.065,0.06 0.223,1.638 0.323,1.768 0.047,0.06 0.15,0.057 0.402,-0.012 l 1.164,-0.322 c 2.361,-0.652 3.886,-1.46 4.461,-2.363 0.495,-0.776 0.003,-1.47 -1.247,-1.759 -0.992,-0.229 -3.245,-0.4 -5.31,-0.403 -2.245,-0.003 -2.077,0.041 -2.169,-0.59 -0.027,-0.188 -0.226,-0.995 -0.442,-1.793 -0.404,-1.496 -0.565,-1.85 -0.98,-2.157 l -0.197,-0.147 -0.254,0.246 c -0.485,0.47 -0.802,1.403 -1.047,3.083 -0.083,0.573 -0.178,1.11 -0.21,1.195 -0.052,0.138 -0.13,0.16 -0.691,0.198 -3.795,0.256 -5.22,0.608 -6.01,1.483 -0.262,0.289 -0.27,0.315 -0.243,0.74 0.02,0.293 0.076,0.506 0.17,0.63 0.23,0.31 0.771,0.635 1.408,0.849 0.697,0.234 2.83,0.667 3.12,0.633 0.195,-0.023 0.2,-0.034 0.317,-0.848 0.065,-0.454 0.099,-0.847 0.075,-0.873 -0.024,-0.026 -0.302,-0.096 -0.617,-0.155 -0.654,-0.123 -0.97,-0.23 -0.97,-0.328 0,-0.094 0.383,-0.205 0.898,-0.262 0.237,-0.027 0.648,-0.092 0.914,-0.147 0.584,-0.119 1.337,-0.064 1.401,0.102 0.056,0.145 -0.086,1.112 -0.338,2.309 -0.112,0.533 -0.29,1.566 -0.397,2.296 -0.106,0.73 -0.252,1.634 -0.326,2.01 -0.073,0.374 -0.17,1.133 -0.213,1.686 a 54.392,54.392 0 0 1 -0.29,2.511 67.824,67.824 0 0 0 -0.356,3.48 c -0.21,2.816 -0.541,6.07 -0.826,8.109 -0.135,0.967 -0.312,2.275 -0.394,2.906 -0.184,1.411 -0.297,1.913 -0.562,2.492 -0.262,0.572 -0.379,0.671 -0.948,0.805 -0.52,0.123 -0.556,0.124 -0.99,0.027 z m 1.289,-0.25 c 0.256,-0.103 0.322,-0.178 0.501,-0.579 0.249,-0.554 0.383,-1.068 0.492,-1.885 l 0.362,-2.655 c 0.154,-1.125 0.33,-2.513 0.392,-3.086 0.34,-3.2 0.41,-3.944 0.54,-5.742 0.165,-2.28 0.184,-2.467 0.366,-3.622 0.074,-0.474 0.199,-1.523 0.277,-2.332 0.077,-0.81 0.189,-1.697 0.247,-1.974 0.058,-0.276 0.155,-0.857 0.216,-1.291 0.235,-1.672 0.343,-2.322 0.507,-3.05 0.239,-1.064 0.344,-1.723 0.315,-1.973 -0.025,-0.21 -0.037,-0.216 -0.453,-0.238 -0.75,-0.038 -0.757,-0.032 -0.868,0.776 l -0.145,1.04 c -0.056,0.395 -0.165,1.235 -0.244,1.866 a 123.59,123.59 0 0 1 -0.252,1.902 77.2,77.2 0 0 0 -0.43,4.305 76.165,76.165 0 0 1 -0.219,2.404 c -0.095,0.908 -0.255,2.538 -0.355,3.624 -0.303,3.262 -0.464,4.766 -0.68,6.35 a 99.947,99.947 0 0 0 -0.255,1.974 c -0.074,0.712 -0.32,1.941 -0.433,2.158 -0.29,0.563 -0.956,0.748 -1.387,0.386 -0.266,-0.224 -0.37,-0.5 -0.969,-2.552 -0.74,-2.54 -1.237,-4.705 -2.062,-8.998 a 181.65,181.65 0 0 0 -0.645,-3.193 c -0.157,-0.73 -0.46,-2.151 -0.672,-3.157 -0.213,-1.007 -0.564,-2.54 -0.781,-3.409 -0.497,-1.985 -0.588,-2.435 -0.73,-3.59 a 21.725,21.725 0 0 0 -0.323,-1.843 30.943,30.943 0 0 1 -0.393,-2.277 c -0.1,-0.75 -0.213,-1.446 -0.25,-1.546 -0.038,-0.1 -0.133,-0.61 -0.21,-1.136 a 45.061,45.061 0 0 0 -0.43,-2.314 c -0.16,-0.747 -0.357,-1.76 -0.44,-2.25 a 46.43,46.43 0 0 0 -0.399,-2.01 c -0.31,-1.385 -0.953,-4.343 -1.007,-4.633 -0.048,-0.259 -0.505,-1.702 -0.64,-2.02 -0.059,-0.14 -0.254,-0.332 -0.509,-0.501 -0.354,-0.235 -0.481,-0.278 -0.89,-0.302 -0.535,-0.03 -0.888,0.104 -1.23,0.466 -0.255,0.27 -0.609,1.032 -0.71,1.528 -0.044,0.219 -0.188,0.867 -0.32,1.439 a 77.012,77.012 0 0 0 -0.354,1.614 c -0.063,0.316 -0.197,0.845 -0.297,1.175 -0.165,0.545 -0.451,2.373 -0.71,4.53 -0.054,0.454 -0.277,2.069 -0.493,3.588 -0.217,1.52 -0.431,3.07 -0.476,3.444 -0.046,0.375 -0.143,1.07 -0.217,1.543 a 61.53,61.53 0 0 0 -0.247,1.794 c -0.061,0.513 -0.142,1.175 -0.18,1.471 a 85.06,85.06 0 0 0 -0.216,2.296 77.367,77.367 0 0 1 -1.265,8.934 c -0.275,1.376 -0.385,1.627 -0.867,1.972 -0.482,0.345 -0.81,0.425 -1.063,0.259 -0.23,-0.15 -0.882,-1.497 -1.167,-2.41 -0.25,-0.798 -0.53,-2.04 -0.985,-4.377 -0.18,-0.928 -0.423,-2.09 -0.538,-2.584 -0.115,-0.493 -0.354,-1.526 -0.53,-2.296 -0.511,-2.235 -0.889,-3.088 -1.61,-3.638 -0.253,-0.193 -0.376,-0.237 -0.658,-0.237 -0.19,0 -0.49,0.062 -0.666,0.137 -0.519,0.222 -0.726,0.603 -1.157,2.124 -0.286,1.008 -0.933,2.453 -1.25,2.787 -0.105,0.112 -0.354,0.29 -0.551,0.395 l -0.359,0.19 -1.579,-0.02 c -0.868,-0.012 -1.688,-0.046 -1.821,-0.074 -0.238,-0.05 -0.251,-0.073 -0.556,-0.948 -0.899,-2.575 -1.532,-8.134 -1.317,-11.568 0.327,-5.239 0.393,-5.73 1.085,-8.12 1.23,-4.246 2.073,-6.303 4.031,-9.839 1.083,-1.956 1.113,-2 2.72,-4.009 0.45,-0.564 3.785,-4.025 4.472,-4.643 2.295,-2.061 3.53,-2.93 7.11,-5.005 1.213,-0.702 3.719,-1.808 4.883,-2.156 a 90.239,90.239 0 0 0 2.306,-0.754 c 1.68,-0.57 2.805,-0.872 4.176,-1.118 0.454,-0.082 1.068,-0.195 1.364,-0.252 0.296,-0.056 0.812,-0.123 1.148,-0.147 0.335,-0.025 0.914,-0.092 1.285,-0.15 3.801,-0.588 7.544,-0.47 11.774,0.373 0.69,0.138 1.283,0.279 1.319,0.314 0.086,0.087 -0.304,0.183 -1.447,0.357 -1.236,0.189 -1.634,0.292 -2.85,0.74 -2.047,0.753 -3.871,2.068 -5.587,4.025 -1.117,1.275 -1.598,1.976 -2.283,3.33 -0.665,1.311 -0.841,1.845 -1.137,3.435 -0.364,1.963 -0.372,2.05 -0.38,4.297 -0.008,1.96 0.005,2.224 0.15,2.946 0.342,1.695 1.07,3.315 2.323,5.172 0.766,1.135 1.83,2.202 3.3,3.31 1.317,0.99 2.274,1.448 4.527,2.166 2.469,0.786 3.195,0.917 5.618,1.014 1.624,0.065 1.769,0.06 2.547,-0.086 0.976,-0.182 2.448,-0.676 3.3,-1.106 0.7,-0.354 0.92,-0.502 0.846,-0.575 -0.028,-0.029 -0.367,-0.08 -0.753,-0.113 -1.015,-0.09 -2.17,-0.263 -2.6,-0.391 a 1.909,1.909 0 0 1 -0.638,-0.353 c -0.235,-0.215 -0.262,-0.277 -0.258,-0.588 0.009,-0.604 0.414,-0.982 1.289,-1.2 0.662,-0.167 3.059,-0.46 5.235,-0.641 1.642,-0.137 1.994,-0.186 2.113,-0.293 0.21,-0.191 1.153,-1.44 1.153,-1.527 0,-0.097 -0.291,-0.137 -1.973,-0.274 -0.75,-0.06 -1.848,-0.156 -2.44,-0.212 -1.35,-0.128 -3.133,-0.225 -6.566,-0.36 -3.166,-0.123 -3.233,-0.127 -8.682,-0.54 -0.533,-0.041 -1.421,-0.106 -1.974,-0.145 -2.1,-0.149 -2.794,-0.324 -3.107,-0.786 -0.143,-0.21 -0.166,-0.319 -0.142,-0.664 0.036,-0.513 0.257,-0.774 0.84,-0.993 1.028,-0.386 2.092,-0.442 6.177,-0.326 1.754,0.05 2.559,0.038 4.054,-0.054 a 558.62,558.62 0 0 1 3.875,-0.224 c 2.807,-0.15 4.556,-0.355 4.556,-0.532 0,-0.131 -0.204,-0.21 -0.753,-0.291 -0.316,-0.046 -1.042,-0.161 -1.615,-0.255 a 55.313,55.313 0 0 0 -2.403,-0.32 c -2.836,-0.31 -3.636,-0.726 -3.236,-1.683 0.124,-0.297 0.526,-0.544 1.346,-0.827 1.664,-0.576 3.261,-0.7 9.855,-0.766 2.47,-0.025 4.485,-0.074 4.531,-0.11 0.046,-0.036 0.07,-0.183 0.056,-0.331 -0.264,-2.577 -0.412,-3.306 -0.976,-4.807 -0.123,-0.326 -0.203,-0.613 -0.18,-0.637 0.06,-0.059 0.991,0.79 1.879,1.71 1.123,1.165 3.087,3.644 3.92,4.95 0.268,0.42 0.631,0.969 0.807,1.22 0.369,0.527 1.923,3.504 2.355,4.51 0.707,1.643 1.54,3.964 1.916,5.334 1.017,3.71 1.518,8.271 1.227,11.17 -0.234,2.33 -0.562,4.555 -0.938,6.368 -0.254,1.221 -1.096,3.847 -1.3,4.05 -0.133,0.133 -0.255,0.138 -3.058,0.117 l -2.92,-0.023 -0.466,0.18 c -0.428,0.165 -0.484,0.212 -0.672,0.562 -0.113,0.21 -0.44,1.022 -0.727,1.804 -0.59,1.61 -0.885,2.21 -1.234,2.516 -0.548,0.48 -1.03,0.164 -1.343,-0.882 -0.097,-0.325 -0.374,-1.512 -0.615,-2.637 -1.027,-4.8 -1.856,-8.031 -2.278,-8.888 a 4.388,4.388 0 0 0 -0.662,-0.95 c -0.4,-0.42 -0.405,-0.423 -0.815,-0.423 -1.518,0 -2.169,1.348 -3.235,6.71 -0.22,1.104 -0.434,2.234 -0.476,2.51 a 55.205,55.205 0 0 1 -0.32,1.723 c -0.134,0.67 -0.328,1.769 -0.43,2.44 -0.285,1.847 -0.458,2.8 -0.647,3.552 -0.095,0.375 -0.237,1.069 -0.316,1.542 -0.227,1.35 -0.472,1.945 -0.996,2.415 -0.394,0.354 -0.809,0.52 -1.142,0.459 -0.336,-0.062 -0.93,-0.643 -1.198,-1.17 -0.305,-0.602 -0.855,-2.78 -1.046,-4.143 a 58.214,58.214 0 0 0 -0.29,-1.723 372.28,372.28 0 0 1 -0.47,-2.655 40.648,40.648 0 0 0 -0.433,-2.188 c -0.094,-0.375 -0.299,-1.444 -0.455,-2.375 -0.156,-0.931 -0.347,-1.949 -0.424,-2.26 -0.133,-0.538 -0.329,-1.537 -0.52,-2.649 -0.148,-0.86 -0.113,-0.825 -0.818,-0.825 -0.336,0 -0.611,0.03 -0.611,0.066 0,0.036 0.078,0.399 0.175,0.807 0.096,0.408 0.272,1.298 0.391,1.979 0.12,0.68 0.25,1.359 0.288,1.507 0.04,0.148 0.156,0.77 0.258,1.382 0.102,0.612 0.342,1.903 0.533,2.87 0.191,0.967 0.435,2.22 0.542,2.786 0.312,1.656 1.245,5.486 1.658,6.809 0.494,1.583 0.915,2.394 1.422,2.735 0.136,0.093 0.48,0.227 0.763,0.3 0.42,0.108 0.595,0.12 0.947,0.063 0.539,-0.087 0.752,-0.196 1.067,-0.544 0.474,-0.524 0.761,-1.163 1.177,-2.614 0.417,-1.453 0.58,-2.25 0.827,-4.045 0.082,-0.592 0.276,-1.642 0.43,-2.333 0.156,-0.69 0.316,-1.433 0.356,-1.65 0.04,-0.217 0.17,-0.766 0.288,-1.22 0.12,-0.454 0.445,-1.745 0.723,-2.87 0.279,-1.125 0.663,-2.61 0.855,-3.301 0.192,-0.69 0.372,-1.385 0.4,-1.543 0.081,-0.45 0.359,-1.017 0.566,-1.152 0.384,-0.252 0.684,0.095 0.971,1.127 0.08,0.29 0.341,1.545 0.578,2.788 0.238,1.243 0.51,2.583 0.604,2.978 0.51,2.122 0.701,2.978 0.9,4.018 0.324,1.703 0.523,2.3 0.888,2.665 0.579,0.58 1.577,0.68 2.284,0.23 0.675,-0.429 1.021,-0.953 1.456,-2.203 0.355,-1.02 0.72,-1.854 0.934,-2.134 0.225,-0.296 0.774,-0.623 1.363,-0.812 0.757,-0.243 2.08,-0.251 4.864,-0.031 l 0.56,0.044 0.308,-0.322 c 0.262,-0.274 0.373,-0.497 0.745,-1.499 0.483,-1.303 0.906,-2.65 1.058,-3.369 0.134,-0.633 0.58,-3.138 0.671,-3.763 0.24,-1.648 0.286,-5.82 0.085,-7.678 -0.186,-1.722 -0.82,-5.015 -1.34,-6.96 -0.49,-1.832 -0.69,-2.41 -1.327,-3.814 a 60.991,60.991 0 0 1 -0.854,-1.963 c -0.321,-0.806 -1.165,-2.413 -1.813,-3.455 -0.254,-0.409 -0.598,-0.97 -0.764,-1.246 -0.166,-0.276 -0.405,-0.659 -0.53,-0.85 l -0.723,-1.112 c -1.156,-1.787 -1.77,-2.517 -4.132,-4.916 -1.376,-1.397 -2.734,-2.61 -3.506,-3.132 a 100.26,100.26 0 0 1 -1.361,-0.969 c -1.832,-1.32 -3.803,-2.49 -5.37,-3.186 a 74.744,74.744 0 0 1 -1.461,-0.672 c -0.72,-0.344 -1.458,-0.616 -3.157,-1.165 -3.053,-0.985 -4.62,-1.31 -8.79,-1.825 -0.963,-0.119 -2.809,-0.22 -4.007,-0.22 -0.94,0 -1.412,0.043 -2.75,0.25 -0.889,0.139 -1.638,0.265 -1.665,0.282 -0.045,0.028 -1.677,0.36 -2.701,0.548 -0.237,0.044 -0.625,0.16 -0.861,0.257 -0.58,0.239 -1.144,0.413 -2.045,0.633 -0.415,0.1 -1.06,0.293 -1.436,0.426 -0.375,0.134 -1.295,0.442 -2.045,0.684 -1.862,0.6 -2.804,0.991 -4.748,1.969 -1.835,0.923 -3.958,2.28 -4.967,3.175 -0.307,0.272 -0.781,0.68 -1.054,0.904 -1.816,1.499 -2.532,2.148 -3.872,3.51 -1.618,1.645 -2.539,2.698 -3.16,3.615 -0.214,0.316 -0.6,0.865 -0.86,1.22 -0.78,1.074 -1.573,2.572 -2.475,4.683 -0.215,0.5 -0.202,0.58 -0.39,0.917 -0.289,0.74 -0.263,0.427 -0.322,0.669 l -0.36,0.826 c -0.198,0.455 -0.36,0.879 -0.36,0.943 0,0.064 -0.14,0.558 -0.313,1.098 -1.026,3.214 -1.718,6.373 -1.951,8.905 -0.174,1.889 -0.11,7.058 0.112,9.068 0.066,0.594 0.306,1.901 0.728,3.961 0.171,0.838 0.743,2.847 0.892,3.135 0.147,0.284 0.292,0.337 0.82,0.3 0.256,-0.017 1.243,-0.057 2.192,-0.087 l 1.727,-0.055 0.498,-0.233 c 0.91,-0.425 1.412,-1.177 2.325,-3.478 0.625,-1.574 0.851,-1.915 1.105,-1.661 0.168,0.168 0.376,0.793 0.586,1.763 0.106,0.49 0.254,1.134 0.329,1.43 0.074,0.296 0.201,0.829 0.282,1.184 0.081,0.355 0.209,0.856 0.283,1.112 0.075,0.257 0.234,0.935 0.354,1.507 0.612,2.938 0.789,3.641 1.309,5.202 0.816,2.451 1.4,3.286 2.368,3.386 0.737,0.076 1.585,-0.318 1.846,-0.857 0.164,-0.34 0.579,-1.886 0.755,-2.816 0.395,-2.086 0.566,-3.108 0.723,-4.34 0.374,-2.923 0.752,-6.034 0.863,-7.103 0.063,-0.61 0.145,-1.256 0.183,-1.435 0.037,-0.179 0.115,-0.745 0.174,-1.258 0.251,-2.18 0.342,-2.806 0.616,-4.263 0.159,-0.844 0.35,-1.977 0.425,-2.517 0.152,-1.092 0.341,-2.003 0.442,-2.129 0.114,-0.14 0.959,-0.334 1.236,-0.282 0.299,0.056 0.63,0.417 0.75,0.817 0.043,0.146 0.16,0.701 0.262,1.234 0.476,2.502 0.602,2.738 1.348,2.514 0.703,-0.21 0.912,-0.575 1.161,-2.03 0.054,-0.316 0.224,-0.36 0.329,-0.084 0.039,0.102 0.217,0.934 0.397,1.848 l 0.433,2.201 c 0.06,0.296 0.155,0.84 0.213,1.207 0.058,0.368 0.135,0.804 0.172,0.969 0.037,0.165 0.228,1.223 0.425,2.351 0.196,1.129 0.406,2.243 0.465,2.476 0.06,0.233 0.192,0.908 0.295,1.5 0.102,0.592 0.312,1.61 0.466,2.26 0.154,0.652 0.41,1.863 0.57,2.692 0.674,3.518 0.886,4.564 1.08,5.31 0.224,0.872 0.586,2.458 0.97,4.27 0.14,0.65 0.351,1.555 0.471,2.009 0.12,0.454 0.286,1.083 0.368,1.399 0.23,0.884 0.49,1.68 0.703,2.153 0.34,0.756 1.196,1.658 1.784,1.877 0.313,0.117 0.886,0.075 1.312,-0.095 z m -11.99,-33.82 c -0.12,-0.223 -0.278,-1.115 -0.358,-2.012 -0.124,-1.403 -0.392,-2.126 -0.905,-2.443 -0.227,-0.14 -0.318,-0.154 -0.737,-0.112 -0.947,0.096 -0.838,0.166 -0.824,-0.53 0.009,-0.426 0.154,-1.313 0.482,-2.94 0.495,-2.457 0.626,-2.86 1.132,-3.474 0.247,-0.3 0.577,-0.357 0.703,-0.122 0.101,0.19 0.41,1.202 0.466,1.534 0.026,0.15 0.141,0.602 0.256,1.004 0.116,0.403 0.437,1.88 0.715,3.28 0.278,1.401 0.522,2.602 0.543,2.667 0.022,0.071 -0.048,0.219 -0.174,0.361 -0.245,0.28 -0.402,0.78 -0.512,1.637 -0.09,0.704 -0.183,1.033 -0.333,1.184 -0.15,0.15 -0.365,0.134 -0.454,-0.034 z m 0.457,-0.202 c 0.056,-0.11 0.156,-0.586 0.222,-1.059 0.117,-0.851 0.256,-1.267 0.537,-1.612 l 0.147,-0.179 -0.363,-1.83 c -0.828,-4.182 -1.487,-6.755 -1.744,-6.804 -0.166,-0.032 -0.472,0.31 -0.758,0.847 -0.2,0.376 -0.307,0.793 -0.696,2.734 -0.46,2.295 -0.626,3.357 -0.537,3.456 0.026,0.029 0.249,0.017 0.494,-0.026 0.63,-0.111 0.902,-0.041 1.267,0.324 0.413,0.413 0.586,0.958 0.722,2.27 0.11,1.063 0.225,1.73 0.336,1.953 0.092,0.186 0.255,0.153 0.373,-0.074 z m 15.947,3.635 c 0.043,-0.036 0.098,-0.202 0.12,-0.369 0.267,-2.063 0.58,-3.231 1.022,-3.809 0.224,-0.294 0.442,-0.477 0.568,-0.477 0.087,0 0.7,0.61 0.79,0.785 0.127,0.249 0.73,2.431 0.886,3.212 l 0.127,0.631 0.634,0.021 c 0.63,0.02 0.634,0.02 0.588,-0.143 -0.025,-0.09 -0.24,-0.946 -0.477,-1.902 -0.801,-3.22 -1.139,-4.046 -1.793,-4.38 -0.595,-0.304 -1.052,-0.183 -1.72,0.453 -0.617,0.59 -0.94,1.287 -1.334,2.882 -0.321,1.302 -0.59,2.923 -0.517,3.114 0.032,0.084 0.145,0.1 0.533,0.077 0.27,-0.017 0.528,-0.06 0.573,-0.095 z m -32.067,-6.017 c 5.644,-0.093 7.67,-0.217 9.418,-0.574 0.578,-0.118 0.712,-0.173 0.88,-0.359 0.108,-0.12 0.197,-0.294 0.197,-0.387 0,-0.253 -0.293,-0.635 -0.63,-0.821 -0.426,-0.236 -1.687,-0.538 -3.468,-0.831 -0.845,-0.14 -1.648,-0.292 -1.787,-0.338 -0.538,-0.182 -0.57,-0.366 -0.09,-0.521 0.57,-0.184 1.14,-0.259 2.529,-0.334 0.73,-0.04 1.668,-0.102 2.082,-0.14 a 61.71,61.71 0 0 1 1.59,-0.116 c 0.46,-0.027 0.871,-0.07 0.914,-0.097 0.103,-0.063 0.299,-0.773 0.625,-2.265 l 0.34,-1.559 c 0.042,-0.186 0.055,-0.358 0.031,-0.382 -0.024,-0.024 -0.652,-0.09 -1.395,-0.145 a 32.756,32.756 0 0 1 -1.53,-0.136 c -0.1,-0.02 -0.971,-0.085 -1.938,-0.145 -2.044,-0.127 -1.957,-0.119 -4.5,-0.438 -1.075,-0.135 -2.036,-0.283 -2.135,-0.328 -0.227,-0.103 -0.235,-0.3 -0.017,-0.4 0.606,-0.275 2.812,-0.438 8.051,-0.594 2.157,-0.064 5.265,-0.278 5.848,-0.403 0.634,-0.135 0.8,-0.397 0.562,-0.88 -0.11,-0.22 -0.232,-0.333 -0.514,-0.468 -1.032,-0.496 -4.065,-0.965 -8.874,-1.37 a 381.868,381.868 0 0 1 -4.989,-0.467 c -3.588,-0.36 -4.619,-0.438 -4.77,-0.357 -0.136,0.072 -1.28,2.29 -1.903,3.688 -0.697,1.565 -2.014,5.728 -2.432,7.685 -0.158,0.744 -0.4,2.764 -0.4,3.352 v 0.195 l 0.699,0.029 a 43.88,43.88 0 0 0 2.027,0.003 c 0.73,-0.015 3.24,-0.058 5.58,-0.097 z m 66.195,-3.661 c -0.036,-0.476 -0.73,-3.13 -1.116,-4.273 -0.412,-1.22 -1.102,-3.038 -1.472,-3.881 -0.433,-0.988 -2.027,-3.997 -2.404,-4.538 -0.21,-0.301 -0.564,-0.843 -0.79,-1.204 -0.225,-0.361 -0.455,-0.695 -0.512,-0.742 -0.08,-0.066 -0.706,-0.067 -2.743,-0.006 a 626.03,626.03 0 0 1 -6.981,0.15 c -2.388,0.038 -4.761,0.103 -5.274,0.144 -1.78,0.142 -3.168,0.448 -4.09,0.903 -0.48,0.236 -0.61,0.405 -0.61,0.783 0,0.683 0.724,0.942 3.507,1.255 0.726,0.082 1.679,0.209 2.117,0.283 0.439,0.074 1.056,0.172 1.372,0.217 0.689,0.098 1.02,0.195 1.062,0.31 0.05,0.138 -0.076,0.317 -0.253,0.361 -0.508,0.126 -2.345,0.283 -5.193,0.446 -5.218,0.297 -6.01,0.321 -7.78,0.237 -2.176,-0.103 -4.168,-0.048 -4.887,0.134 -1.033,0.263 -1.395,0.565 -1.386,1.156 0.014,0.977 0.627,1.135 5.628,1.452 0.612,0.039 1.887,0.134 2.834,0.212 0.948,0.077 2.917,0.189 4.378,0.247 4.326,0.173 6.49,0.291 7.929,0.433 0.572,0.057 1.686,0.154 2.476,0.216 0.789,0.063 1.515,0.148 1.614,0.189 0.098,0.04 0.824,0.104 1.614,0.14 2.637,0.12 3.354,0.344 2.638,0.827 -0.298,0.2 -1.026,0.331 -3.355,0.601 -1.026,0.12 -1.962,0.247 -2.08,0.285 -0.12,0.037 -1.056,0.136 -2.082,0.22 -1.934,0.157 -4.81,0.509 -5.31,0.65 -0.45,0.126 -0.932,0.414 -1.063,0.637 -0.295,0.499 -0.04,1.049 0.58,1.252 0.473,0.154 1.4,0.305 2.456,0.398 0.494,0.044 1.027,0.11 1.184,0.148 0.455,0.108 3.202,0.276 5.239,0.32 1.026,0.023 2.754,0.075 3.839,0.118 1.719,0.066 8.257,0.2 8.754,0.178 0.16,-0.007 0.178,-0.035 0.16,-0.258 z m -42.138,-1.15 c 1.835,-0.076 2.44,-0.142 2.993,-0.33 0.908,-0.308 1.16,-0.775 0.774,-1.433 -0.099,-0.169 -0.236,-0.323 -0.305,-0.344 -0.069,-0.02 -0.61,-0.12 -1.202,-0.224 a 58.541,58.541 0 0 1 -1.865,-0.358 27.435,27.435 0 0 0 -1.58,-0.284 c -0.736,-0.105 -5.38,-0.542 -5.764,-0.542 -0.204,0 -0.228,-0.213 0.23,2.001 0.175,0.844 0.35,1.554 0.39,1.579 0.103,0.064 4.255,0.02 6.33,-0.065 z"
       fill="#eca8ba"
       id="path50" />
    <path
       d="m -79.998,138.86 c -0.588,-0.218 -1.445,-1.12 -1.784,-1.876 -0.213,-0.474 -0.472,-1.269 -0.703,-2.153 -0.082,-0.316 -0.247,-0.945 -0.368,-1.4 a 52.05,52.05 0 0 1 -0.47,-2.009 c -0.385,-1.81 -0.747,-3.397 -0.972,-4.27 -0.193,-0.745 -0.405,-1.79 -1.08,-5.31 a 78.396,78.396 0 0 0 -0.569,-2.69 46.095,46.095 0 0 1 -0.466,-2.26 28.337,28.337 0 0 0 -0.295,-1.5 c -0.06,-0.234 -0.269,-1.348 -0.465,-2.477 a 123.062,123.062 0 0 0 -0.425,-2.351 c -0.037,-0.165 -0.114,-0.6 -0.172,-0.969 a 36.213,36.213 0 0 0 -0.213,-1.207 l -0.433,-2.2 c -0.18,-0.915 -0.358,-1.747 -0.397,-1.849 -0.105,-0.276 -0.275,-0.232 -0.329,0.085 -0.25,1.454 -0.458,1.819 -1.16,2.03 -0.747,0.223 -0.873,-0.013 -1.349,-2.515 a 20.868,20.868 0 0 0 -0.263,-1.234 c -0.119,-0.4 -0.45,-0.761 -0.749,-0.817 -0.277,-0.052 -1.122,0.141 -1.236,0.282 -0.1,0.126 -0.29,1.037 -0.442,2.129 -0.075,0.54 -0.266,1.673 -0.425,2.517 -0.274,1.457 -0.364,2.083 -0.616,4.263 a 21.34,21.34 0 0 1 -0.174,1.258 c -0.038,0.179 -0.12,0.825 -0.183,1.435 -0.11,1.07 -0.489,4.18 -0.863,7.102 -0.157,1.233 -0.328,2.255 -0.723,4.341 -0.176,0.93 -0.59,2.477 -0.755,2.816 -0.261,0.54 -1.11,0.933 -1.846,0.857 -0.968,-0.1 -1.552,-0.935 -2.368,-3.386 -0.52,-1.56 -0.697,-2.264 -1.31,-5.202 -0.119,-0.572 -0.278,-1.25 -0.353,-1.507 a 23.549,23.549 0 0 1 -0.283,-1.112 c -0.08,-0.355 -0.208,-0.888 -0.282,-1.184 -0.075,-0.296 -0.223,-0.94 -0.329,-1.43 -0.21,-0.97 -0.418,-1.595 -0.586,-1.763 -0.254,-0.254 -0.48,0.087 -1.105,1.661 -0.913,2.301 -1.415,3.053 -2.325,3.478 l -0.498,0.233 -1.727,0.055 c -0.95,0.03 -1.936,0.07 -2.192,0.087 -0.528,0.038 -0.673,-0.016 -0.82,-0.3 -0.149,-0.288 -0.72,-2.297 -0.892,-3.135 -0.422,-2.06 -0.662,-3.367 -0.728,-3.961 -0.222,-2.01 -0.286,-7.18 -0.112,-9.068 0.233,-2.532 0.925,-5.69 1.95,-8.905 0.173,-0.54 0.314,-1.034 0.314,-1.098 0,-0.064 0.162,-0.488 0.36,-0.943 l 0.36,-0.826 0.24,-0.707 c 0,0 0.257,-0.379 0.472,-0.88 0.902,-2.11 1.694,-3.608 2.476,-4.682 0.258,-0.355 0.645,-0.904 0.859,-1.22 0.621,-0.917 1.542,-1.97 3.16,-3.615 1.34,-1.362 2.056,-2.011 3.872,-3.51 0.273,-0.225 0.747,-0.632 1.054,-0.904 1.01,-0.896 3.132,-2.252 4.967,-3.175 1.944,-0.978 2.886,-1.369 4.748,-1.97 0.75,-0.241 1.67,-0.549 2.045,-0.683 0.375,-0.133 1.021,-0.325 1.436,-0.426 0.9,-0.22 1.465,-0.394 2.045,-0.633 0.236,-0.098 0.624,-0.213 0.86,-0.257 1.025,-0.189 2.657,-0.52 2.702,-0.548 0.027,-0.017 0.776,-0.143 1.664,-0.281 1.339,-0.208 1.81,-0.25 2.751,-0.25 1.198,0 3.044,0.1 4.006,0.22 4.17,0.513 5.738,0.839 8.79,1.825 1.7,0.549 2.438,0.82 3.158,1.164 0.375,0.179 1.032,0.48 1.461,0.672 1.567,0.697 3.538,1.867 5.37,3.187 0.602,0.434 1.215,0.87 1.36,0.968 0.773,0.521 2.131,1.735 3.507,3.132 2.362,2.399 2.976,3.13 4.132,4.916 l 0.723,1.112 c 0.125,0.191 0.364,0.574 0.53,0.85 0.166,0.277 0.51,0.837 0.764,1.246 0.648,1.042 1.492,2.649 1.813,3.455 0.15,0.375 0.534,1.258 0.854,1.963 0.637,1.404 0.838,1.982 1.327,3.813 0.52,1.946 1.154,5.239 1.34,6.96 0.2,1.86 0.155,6.03 -0.085,7.679 -0.09,0.625 -0.537,3.13 -0.671,3.763 -0.152,0.719 -0.575,2.066 -1.058,3.37 -0.372,1 -0.483,1.224 -0.745,1.498 l -0.308,0.322 -0.56,-0.044 c -2.784,-0.22 -4.107,-0.212 -4.864,0.031 -0.589,0.19 -1.138,0.516 -1.363,0.812 -0.214,0.28 -0.579,1.114 -0.934,2.134 -0.435,1.25 -0.781,1.774 -1.456,2.203 -0.707,0.45 -1.705,0.35 -2.284,-0.23 -0.365,-0.365 -0.564,-0.962 -0.889,-2.665 -0.198,-1.04 -0.39,-1.896 -0.899,-4.018 -0.095,-0.395 -0.366,-1.735 -0.604,-2.978 -0.237,-1.243 -0.497,-2.498 -0.578,-2.788 -0.287,-1.032 -0.587,-1.38 -0.971,-1.127 -0.207,0.135 -0.485,0.701 -0.566,1.152 -0.029,0.158 -0.208,0.852 -0.4,1.543 a 154.9,154.9 0 0 0 -0.855,3.3 306.077,306.077 0 0 1 -0.723,2.871 22.83,22.83 0 0 0 -0.289,1.22 c -0.04,0.217 -0.199,0.96 -0.354,1.65 a 34.39,34.39 0 0 0 -0.43,2.333 c -0.248,1.795 -0.411,2.592 -0.828,4.045 -0.416,1.451 -0.703,2.09 -1.177,2.614 -0.315,0.348 -0.528,0.457 -1.067,0.544 -0.352,0.056 -0.528,0.045 -0.947,-0.063 -0.283,-0.073 -0.627,-0.208 -0.763,-0.3 -0.507,-0.341 -0.928,-1.152 -1.422,-2.735 -0.413,-1.323 -1.346,-5.153 -1.658,-6.809 -0.107,-0.565 -0.35,-1.819 -0.542,-2.786 a 124.72,124.72 0 0 1 -0.533,-2.87 26.964,26.964 0 0 0 -0.258,-1.382 c -0.039,-0.148 -0.168,-0.826 -0.288,-1.507 -0.119,-0.68 -0.295,-1.571 -0.391,-1.98 a 13.11,13.11 0 0 1 -0.175,-0.806 c 0,-0.036 0.275,-0.066 0.611,-0.066 0.705,0 0.67,-0.035 0.818,0.825 0.191,1.112 0.387,2.11 0.52,2.648 0.077,0.312 0.268,1.33 0.424,2.26 0.156,0.932 0.361,2 0.455,2.376 0.095,0.375 0.29,1.36 0.433,2.188 0.143,0.83 0.355,2.024 0.47,2.655 0.115,0.632 0.245,1.407 0.29,1.723 0.191,1.364 0.741,3.541 1.046,4.143 0.267,0.527 0.862,1.108 1.198,1.17 0.333,0.061 0.748,-0.105 1.142,-0.459 0.524,-0.47 0.769,-1.064 0.996,-2.415 0.079,-0.473 0.221,-1.167 0.316,-1.542 0.189,-0.752 0.362,-1.705 0.646,-3.552 0.103,-0.671 0.297,-1.77 0.43,-2.44 0.135,-0.671 0.278,-1.446 0.32,-1.722 0.141,-0.925 0.874,-4.51 1.117,-5.464 0.248,-0.971 0.644,-2.11 0.934,-2.686 0.189,-0.374 0.654,-0.823 1.007,-0.97 0.132,-0.056 0.426,-0.101 0.654,-0.101 0.41,0 0.415,0.003 0.815,0.422 0.233,0.245 0.511,0.645 0.662,0.95 0.422,0.857 1.25,4.09 2.278,8.89 0.241,1.124 0.518,2.31 0.615,2.636 0.313,1.046 0.795,1.363 1.343,0.882 0.349,-0.307 0.643,-0.907 1.234,-2.516 0.287,-0.782 0.614,-1.593 0.727,-1.804 0.188,-0.35 0.244,-0.397 0.672,-0.562 l 0.466,-0.18 2.92,0.023 c 2.803,0.02 2.925,0.016 3.058,-0.116 0.204,-0.204 1.046,-2.83 1.3,-4.052 0.376,-1.813 0.704,-4.036 0.938,-6.367 0.291,-2.899 -0.21,-7.46 -1.227,-11.17 -0.376,-1.37 -1.21,-3.691 -1.916,-5.335 -0.432,-1.006 -1.986,-3.982 -2.355,-4.509 -0.176,-0.251 -0.539,-0.8 -0.807,-1.221 -0.833,-1.305 -2.797,-3.784 -3.92,-4.949 -1.05,-1.088 -1.846,-1.792 -1.888,-1.67 -0.022,0.067 -0.074,0.024 -0.152,-0.127 -0.338,-0.654 -3.724,-3.179 -5.746,-4.285 a 29.817,29.817 0 0 1 -1.015,-0.576 c -0.436,-0.273 -2.786,-1.57 -3.398,-1.875 a 8.28,8.28 0 0 0 -0.861,-0.377 c -0.158,-0.05 -0.772,-0.285 -1.364,-0.522 -1.682,-0.671 -2.45,-0.914 -2.902,-0.915 -0.25,0 -0.362,-0.024 -0.301,-0.063 0.154,-0.097 0.039,-0.133 -1.29,-0.397 -4.222,-0.841 -7.968,-0.96 -11.766,-0.371 -0.371,0.057 -0.95,0.124 -1.285,0.149 a 12.1,12.1 0 0 0 -1.148,0.147 c -0.296,0.057 -0.91,0.17 -1.364,0.252 -1.37,0.246 -2.495,0.547 -4.176,1.118 -0.88,0.3 -1.918,0.639 -2.306,0.754 -1.164,0.348 -3.67,1.454 -4.882,2.156 -3.581,2.075 -4.816,2.944 -7.11,5.005 -0.688,0.618 -4.023,4.08 -4.474,4.643 -1.606,2.01 -1.636,2.053 -2.719,4.01 -1.958,3.535 -2.8,5.592 -4.031,9.838 -0.692,2.39 -0.758,2.881 -1.085,8.12 -0.215,3.434 0.418,8.993 1.317,11.568 0.305,0.875 0.318,0.897 0.556,0.948 0.133,0.029 0.953,0.062 1.822,0.073 l 1.578,0.021 0.359,-0.19 c 0.197,-0.105 0.446,-0.283 0.552,-0.395 0.316,-0.333 0.964,-1.778 1.25,-2.787 0.43,-1.521 0.638,-1.902 1.156,-2.124 0.175,-0.075 0.475,-0.136 0.666,-0.136 0.282,0 0.405,0.044 0.658,0.236 0.721,0.55 1.099,1.404 1.61,3.638 0.176,0.77 0.415,1.803 0.53,2.297 0.115,0.493 0.357,1.656 0.538,2.583 0.456,2.337 0.735,3.58 0.985,4.377 0.285,0.913 0.937,2.26 1.167,2.41 0.254,0.166 0.58,0.087 1.063,-0.259 0.482,-0.345 0.592,-0.596 0.867,-1.971 a 77.37,77.37 0 0 0 1.265,-8.934 c 0.08,-0.967 0.178,-2 0.216,-2.296 0.037,-0.296 0.119,-0.958 0.18,-1.472 0.062,-0.513 0.173,-1.32 0.247,-1.793 0.074,-0.474 0.172,-1.168 0.217,-1.543 0.045,-0.375 0.259,-1.925 0.476,-3.445 0.216,-1.52 0.438,-3.134 0.493,-3.588 0.259,-2.157 0.545,-3.984 0.71,-4.53 0.1,-0.33 0.234,-0.859 0.297,-1.174 a 77,77 0 0 1 0.355,-1.615 c 0.131,-0.572 0.275,-1.22 0.32,-1.44 0.1,-0.495 0.454,-1.256 0.709,-1.526 0.342,-0.363 0.695,-0.496 1.23,-0.466 0.409,0.023 0.536,0.066 0.89,0.301 0.255,0.169 0.45,0.361 0.51,0.5 0.134,0.32 0.591,1.763 0.64,2.021 0.054,0.29 0.696,3.248 1.006,4.633 0.138,0.614 0.317,1.519 0.4,2.01 0.082,0.49 0.28,1.503 0.44,2.25 0.16,0.748 0.353,1.79 0.43,2.314 0.077,0.526 0.17,1.037 0.208,1.137 0.038,0.1 0.151,0.795 0.252,1.545 0.1,0.75 0.276,1.775 0.392,2.277 0.115,0.502 0.261,1.332 0.324,1.844 0.141,1.155 0.232,1.604 0.729,3.59 0.217,0.868 0.568,2.401 0.78,3.408 0.213,1.006 0.516,2.427 0.673,3.157 0.157,0.73 0.448,2.167 0.645,3.193 0.825,4.294 1.321,6.458 2.062,8.998 0.598,2.053 0.703,2.329 0.97,2.553 0.43,0.362 1.095,0.176 1.387,-0.387 0.111,-0.216 0.358,-1.446 0.432,-2.158 0.027,-0.256 0.141,-1.144 0.255,-1.973 0.216,-1.584 0.377,-3.09 0.68,-6.35 0.1,-1.086 0.26,-2.717 0.355,-3.625 0.095,-0.907 0.194,-1.99 0.219,-2.404 0.062,-1.026 0.298,-3.386 0.43,-4.305 0.06,-0.414 0.173,-1.27 0.252,-1.902 a 152.268,152.268 0 0 1 0.389,-2.906 c 0.111,-0.808 0.118,-0.814 0.868,-0.775 0.416,0.02 0.428,0.028 0.453,0.237 0.03,0.25 -0.076,0.91 -0.315,1.973 -0.164,0.728 -0.272,1.378 -0.507,3.05 a 24.295,24.295 0 0 1 -0.216,1.292 c -0.058,0.276 -0.17,1.164 -0.247,1.973 a 49.88,49.88 0 0 1 -0.277,2.332 c -0.182,1.155 -0.201,1.343 -0.365,3.623 -0.13,1.798 -0.2,2.542 -0.541,5.742 -0.061,0.572 -0.238,1.96 -0.392,3.085 l -0.362,2.655 c -0.109,0.817 -0.243,1.332 -0.491,1.885 -0.18,0.401 -0.246,0.477 -0.502,0.58 -0.425,0.17 -0.998,0.21 -1.312,0.094 z m -10.224,-33.88 c 0.15,-0.15 0.243,-0.48 0.333,-1.184 0.11,-0.857 0.266,-1.357 0.512,-1.637 0.125,-0.142 0.197,-0.29 0.174,-0.36 -0.02,-0.066 -0.265,-1.267 -0.543,-2.668 -0.278,-1.4 -0.6,-2.877 -0.715,-3.28 -0.115,-0.402 -0.23,-0.854 -0.256,-1.004 -0.057,-0.332 -0.365,-1.345 -0.467,-1.534 -0.125,-0.235 -0.455,-0.177 -0.702,0.122 -0.506,0.614 -0.637,1.017 -1.132,3.474 -0.328,1.627 -0.474,2.514 -0.482,2.94 -0.014,0.696 -0.124,0.626 0.824,0.53 0.419,-0.042 0.51,-0.027 0.737,0.112 0.513,0.317 0.78,1.04 0.905,2.443 0.08,0.897 0.238,1.79 0.358,2.013 0.089,0.167 0.304,0.183 0.454,0.033 z m 14.844,3.417 c -0.073,-0.191 0.196,-1.812 0.517,-3.114 0.394,-1.596 0.717,-2.293 1.335,-2.882 0.667,-0.636 1.124,-0.757 1.72,-0.453 0.653,0.333 0.991,1.16 1.792,4.38 0.237,0.955 0.452,1.811 0.477,1.902 0.046,0.163 0.042,0.164 -0.588,0.143 l -0.634,-0.021 -0.126,-0.631 c -0.157,-0.781 -0.76,-2.963 -0.887,-3.212 -0.09,-0.176 -0.703,-0.785 -0.79,-0.785 -0.125,0 -0.344,0.183 -0.568,0.477 -0.441,0.577 -0.755,1.746 -1.022,3.809 -0.022,0.167 -0.076,0.333 -0.12,0.368 -0.044,0.036 -0.302,0.079 -0.573,0.095 -0.388,0.024 -0.5,0.007 -0.533,-0.076 z m 11.484,-8.17 a 3.12,3.12 0 0 1 0.538,0 c 0.148,0.016 0.027,0.028 -0.27,0.028 -0.295,0 -0.416,-0.012 -0.268,-0.028 z m -1.902,-0.072 c 0.247,-0.015 0.65,-0.015 0.897,0 0.247,0.014 0.045,0.025 -0.448,0.025 -0.494,0 -0.695,-0.011 -0.449,-0.025 z m 2.87,0.006 c 0.05,-0.02 0.13,-0.02 0.18,0 0.05,0.02 0.01,0.036 -0.09,0.036 -0.098,0 -0.139,-0.017 -0.09,-0.036 z m -4.02,-0.072 a 0.418,0.418 0 0 1 0.216,-0.003 c 0.07,0.019 0.03,0.035 -0.088,0.036 -0.119,0.001 -0.176,-0.013 -0.127,-0.033 z m 4.417,0.004 c 0.024,-0.024 0.085,-0.026 0.137,-0.006 0.058,0.023 0.04,0.04 -0.043,0.044 -0.076,0.003 -0.118,-0.014 -0.094,-0.038 z m -4.845,-0.076 c 0.049,-0.02 0.13,-0.02 0.179,0 0.05,0.02 0.01,0.036 -0.09,0.036 -0.098,0 -0.139,-0.016 -0.09,-0.036 z m 5.204,0.004 c 0.024,-0.024 0.085,-0.026 0.137,-0.006 0.057,0.023 0.04,0.04 -0.043,0.044 -0.076,0.003 -0.118,-0.014 -0.095,-0.038 z m -5.708,-0.075 a 0.413,0.413 0 0 1 0.215,-0.003 c 0.07,0.019 0.03,0.035 -0.088,0.036 -0.119,0.002 -0.176,-0.013 -0.127,-0.033 z m 6.029,0 c 0.05,-0.02 0.13,-0.02 0.18,0 0.048,0.02 0.008,0.035 -0.09,0.035 -0.1,0 -0.14,-0.016 -0.09,-0.036 z m -6.42,-0.068 c 0.023,-0.024 0.085,-0.027 0.137,-0.006 0.057,0.023 0.04,0.04 -0.044,0.043 -0.075,0.003 -0.118,-0.013 -0.094,-0.037 z m -0.288,-0.072 c 0.024,-0.024 0.086,-0.027 0.138,-0.006 0.057,0.023 0.04,0.04 -0.044,0.044 -0.075,0.003 -0.118,-0.014 -0.094,-0.038 z m -0.287,-0.072 c 0.024,-0.024 0.086,-0.026 0.138,-0.006 0.057,0.023 0.04,0.04 -0.044,0.044 -0.076,0.003 -0.118,-0.014 -0.094,-0.038 z m -0.502,-0.144 c 0.024,-0.023 0.085,-0.026 0.137,-0.005 0.058,0.023 0.04,0.04 -0.043,0.043 -0.076,0.003 -0.118,-0.013 -0.094,-0.037 z m 8.735,-0.028 a 0.443,0.443 0 0 1 0.215,-0.065 c 0.071,0.002 0.059,0.025 -0.036,0.065 -0.197,0.085 -0.31,0.085 -0.18,0 z m -9.365,-0.143 c -0.094,-0.04 -0.107,-0.063 -0.036,-0.066 a 0.444,0.444 0 0 1 0.216,0.066 c 0.13,0.085 0.017,0.085 -0.18,0 z m 10.154,-0.144 a 0.43,0.43 0 0 1 0.18,-0.07 c 0.039,0 0.023,0.032 -0.037,0.07 a 0.43,0.43 0 0 1 -0.179,0.07 c -0.04,0 -0.023,-0.031 0.036,-0.07 z m -11.605,-0.33 c 0.024,-0.024 0.085,-0.026 0.137,-0.006 0.058,0.023 0.04,0.04 -0.043,0.044 -0.076,0.003 -0.118,-0.014 -0.094,-0.038 z m -0.307,-0.1 c -0.059,-0.038 -0.075,-0.07 -0.036,-0.07 0.04,0 0.12,0.032 0.18,0.07 0.059,0.038 0.075,0.07 0.036,0.07 a 0.433,0.433 0 0 1 -0.18,-0.07 z m 12.917,-0.031 c 0,-0.02 0.064,-0.07 0.143,-0.113 0.08,-0.042 0.144,-0.06 0.144,-0.04 0,0.02 -0.065,0.07 -0.144,0.112 -0.079,0.042 -0.143,0.06 -0.143,0.041 z M -72.2,98.663 c -0.18,-0.086 -0.186,-0.096 -0.036,-0.06 0.203,0.05 0.432,0.166 0.323,0.165 -0.04,-0.001 -0.169,-0.048 -0.287,-0.105 z m 13.782,-0.126 c 0.027,-0.07 0.067,-0.11 0.09,-0.089 0.021,0.023 0,0.08 -0.05,0.129 -0.07,0.07 -0.08,0.062 -0.04,-0.04 z m -14.249,-0.051 c -0.059,-0.038 -0.075,-0.07 -0.036,-0.07 0.04,0 0.12,0.032 0.18,0.07 0.059,0.038 0.075,0.07 0.036,0.07 a 0.433,0.433 0 0 1 -0.18,-0.07 z m 13.723,-0.121 a 0.787,0.787 0 0 1 0.287,-0.002 c 0.09,0.018 0.033,0.032 -0.124,0.033 -0.158,0 -0.231,-0.013 -0.163,-0.031 z m -14.584,-0.274 c -0.256,-0.134 -0.434,-0.244 -0.394,-0.244 0.039,0 0.281,0.11 0.538,0.244 0.256,0.135 0.434,0.244 0.394,0.244 -0.039,0 -0.281,-0.11 -0.538,-0.244 z m 13.796,0.202 a 0.581,0.581 0 0 1 0.25,0 c 0.07,0.018 0.014,0.032 -0.125,0.032 -0.138,0 -0.194,-0.014 -0.125,-0.032 z m -0.612,-0.07 a 0.408,0.408 0 0 1 0.216,-0.002 c 0.07,0.018 0.03,0.034 -0.089,0.036 -0.118,10e-4 -0.175,-0.013 -0.127,-0.033 z m -0.5,-0.072 c 0.049,-0.02 0.13,-0.02 0.179,0 0.05,0.02 0.009,0.036 -0.09,0.036 -0.098,0 -0.139,-0.016 -0.09,-0.036 z m -0.394,-0.067 c 0.024,-0.024 0.086,-0.027 0.138,-0.006 0.057,0.023 0.04,0.04 -0.043,0.044 -0.076,0.003 -0.118,-0.014 -0.095,-0.038 z m -13.098,-0.426 c -0.147,-0.1 -0.268,-0.197 -0.268,-0.216 0,-0.019 0.13,0.051 0.287,0.155 0.25,0.166 0.335,0.243 0.268,0.243 -0.01,0 -0.14,-0.082 -0.287,-0.182 z m 11.925,-0.087 -0.174,-0.197 0.198,0.174 c 0.184,0.162 0.23,0.22 0.174,0.22 -0.013,0 -0.102,-0.088 -0.198,-0.197 z m -12.417,-0.287 c -0.09,-0.114 -0.087,-0.116 0.026,-0.027 0.07,0.054 0.126,0.11 0.126,0.126 0,0.059 -0.059,0.02 -0.153,-0.099 z m -0.287,-0.215 c -0.09,-0.114 -0.087,-0.117 0.026,-0.027 0.07,0.054 0.126,0.11 0.126,0.125 0,0.06 -0.059,0.021 -0.153,-0.098 z m -0.288,-0.216 c -0.089,-0.114 -0.086,-0.117 0.027,-0.027 0.07,0.054 0.126,0.11 0.126,0.126 0,0.059 -0.059,0.02 -0.153,-0.099 z m -0.32,-0.251 -0.137,-0.162 0.162,0.137 c 0.151,0.128 0.194,0.186 0.136,0.186 a 0.794,0.794 0 0 1 -0.161,-0.161 z m -0.424,-0.341 c -0.113,-0.119 -0.19,-0.215 -0.17,-0.215 0.02,0 0.129,0.096 0.242,0.215 0.113,0.118 0.19,0.215 0.17,0.215 -0.02,0 -0.128,-0.097 -0.242,-0.215 z m -1.04,-0.969 c -0.413,-0.414 -0.735,-0.753 -0.715,-0.753 0.02,0 0.373,0.339 0.786,0.753 0.413,0.414 0.735,0.754 0.715,0.754 -0.02,0 -0.373,-0.34 -0.786,-0.754 z m 16.021,0.423 c 0.024,-0.024 0.086,-0.026 0.138,-0.005 0.057,0.023 0.04,0.04 -0.044,0.043 -0.075,0.003 -0.118,-0.014 -0.094,-0.038 z m 0.393,-0.076 c 0.05,-0.02 0.13,-0.02 0.18,0 0.049,0.02 0.009,0.036 -0.09,0.036 -0.099,0 -0.14,-0.016 -0.09,-0.036 z m 0.501,-0.071 a 0.413,0.413 0 0 1 0.215,-0.003 c 0.07,0.019 0.03,0.035 -0.088,0.036 -0.118,0.002 -0.175,-0.013 -0.127,-0.033 z m 0.574,-0.072 a 0.414,0.414 0 0 1 0.216,-0.002 c 0.07,0.018 0.03,0.034 -0.089,0.036 -0.118,0.001 -0.175,-0.014 -0.127,-0.034 z m 0.576,-0.072 c 0.049,-0.02 0.13,-0.02 0.18,0 0.048,0.02 0.008,0.036 -0.09,0.036 -0.1,0 -0.14,-0.017 -0.09,-0.036 z m 0.5,-0.071 a 0.413,0.413 0 0 1 0.216,-0.003 c 0.07,0.018 0.03,0.034 -0.088,0.036 -0.119,0.002 -0.176,-0.013 -0.127,-0.033 z m 0.612,-0.075 a 0.581,0.581 0 0 1 0.251,0 c 0.07,0.019 0.013,0.033 -0.125,0.033 -0.139,0 -0.195,-0.015 -0.126,-0.033 z m 0.788,-0.071 a 0.787,0.787 0 0 1 0.287,-0.002 c 0.09,0.018 0.034,0.032 -0.124,0.033 -0.158,0 -0.231,-0.013 -0.163,-0.031 z m 0.827,-0.073 a 1.02,1.02 0 0 1 0.322,0 c 0.09,0.017 0.016,0.03 -0.161,0.03 -0.178,0 -0.25,-0.013 -0.161,-0.03 z m 0.932,-0.072 a 1.02,1.02 0 0 1 0.323,0 c 0.09,0.017 0.016,0.03 -0.161,0.03 -0.178,0 -0.25,-0.013 -0.162,-0.03 z m 0.825,-0.07 a 0.789,0.789 0 0 1 0.287,-0.002 c 0.089,0.017 0.033,0.032 -0.125,0.033 -0.158,0 -0.23,-0.014 -0.162,-0.032 z m 0.839,-0.364 c 0.173,-0.207 0.328,-0.377 0.345,-0.377 0.049,0 -0.393,0.542 -0.533,0.653 -0.07,0.056 0.015,-0.069 0.188,-0.276 z m -24.259,-0.287 c -0.089,-0.114 -0.086,-0.116 0.027,-0.027 0.07,0.055 0.126,0.111 0.126,0.126 0,0.059 -0.06,0.02 -0.153,-0.099 z m 24.73,-0.305 c 0.072,-0.079 0.146,-0.143 0.166,-0.143 0.02,0 -0.022,0.064 -0.094,0.143 -0.071,0.08 -0.146,0.144 -0.166,0.144 -0.02,0 0.022,-0.065 0.094,-0.144 z m 0.251,-0.323 c 0.05,-0.059 0.106,-0.107 0.126,-0.107 0.02,0 -0.005,0.048 -0.054,0.107 -0.05,0.06 -0.106,0.108 -0.125,0.108 -0.02,0 0.004,-0.049 0.053,-0.108 z m 0.175,-0.328 c 0,-0.076 0.025,-0.138 0.056,-0.138 0.074,0 0.074,0.196 0,0.241 -0.03,0.02 -0.056,-0.027 -0.056,-0.103 z m -0.587,-0.188 a 0.581,0.581 0 0 1 0.25,0 c 0.07,0.019 0.013,0.033 -0.125,0.033 -0.138,0 -0.194,-0.015 -0.125,-0.033 z m -0.825,-0.073 a 1.02,1.02 0 0 1 0.322,0 c 0.09,0.018 0.016,0.031 -0.161,0.031 -0.178,0 -0.25,-0.013 -0.161,-0.03 z m -0.862,-0.071 a 1.02,1.02 0 0 1 0.323,0 c 0.09,0.017 0.016,0.03 -0.161,0.03 -0.178,0 -0.25,-0.013 -0.162,-0.03 z m -0.897,-0.07 a 0.787,0.787 0 0 1 0.287,-0.002 c 0.089,0.017 0.033,0.032 -0.125,0.032 -0.158,10e-4 -0.231,-0.013 -0.162,-0.031 z M -56.79,92.91 a 0.581,0.581 0 0 1 0.251,0 c 0.07,0.019 0.013,0.033 -0.126,0.033 -0.138,0 -0.194,-0.015 -0.125,-0.033 z m -22.335,-0.165 c -0.042,-0.08 -0.06,-0.144 -0.04,-0.144 0.019,0 0.07,0.065 0.112,0.144 0.042,0.078 0.06,0.143 0.04,0.143 -0.019,0 -0.07,-0.065 -0.112,-0.143 z m 21.617,0.094 a 0.581,0.581 0 0 1 0.251,0 c 0.07,0.018 0.013,0.032 -0.125,0.032 -0.138,0 -0.195,-0.015 -0.126,-0.032 z m -1.004,-0.074 c 0.108,-0.017 0.286,-0.017 0.394,0 0.109,0.017 0.02,0.03 -0.197,0.03 -0.217,0 -0.306,-0.014 -0.197,-0.03 z m -1.221,-0.072 c 0.107,-0.016 0.301,-0.016 0.43,0 0.129,0.016 0.04,0.029 -0.196,0.03 -0.237,0 -0.342,-0.013 -0.235,-0.03 z m -1.468,-0.073 a 3.56,3.56 0 0 1 0.574,0 c 0.147,0.016 0.009,0.029 -0.307,0.028 -0.316,0 -0.436,-0.013 -0.267,-0.028 z m -1.579,-0.072 a 3.56,3.56 0 0 1 0.574,0 c 0.147,0.016 0.01,0.029 -0.307,0.028 -0.316,0 -0.436,-0.013 -0.267,-0.028 z m -1.87,-0.071 c 0.167,-0.015 0.457,-0.016 0.646,0 0.189,0.014 0.053,0.026 -0.303,0.027 -0.355,0 -0.51,-0.012 -0.343,-0.027 z m -1.718,-0.072 c 0.169,-0.016 0.427,-0.015 0.574,0 0.147,0.016 0.01,0.028 -0.307,0.028 -0.315,0 -0.436,-0.013 -0.267,-0.028 z m -1.33,-0.07 a 1.92,1.92 0 0 1 0.43,-10e-4 c 0.129,0.016 0.04,0.029 -0.196,0.03 -0.237,0 -0.343,-0.013 -0.235,-0.03 z m -0.896,-0.072 a 1.02,1.02 0 0 1 0.323,0 c 0.088,0.017 0.016,0.031 -0.162,0.031 -0.177,0 -0.25,-0.014 -0.161,-0.03 z m -0.933,-0.071 a 1.02,1.02 0 0 1 0.323,0 c 0.089,0.017 0.016,0.03 -0.162,0.03 -0.177,0 -0.25,-0.013 -0.161,-0.03 z m -0.861,-0.072 a 1.02,1.02 0 0 1 0.323,0 c 0.088,0.017 0.016,0.03 -0.162,0.03 -0.177,0 -0.25,-0.013 -0.161,-0.03 z m -9.203,-0.237 c -0.061,-0.118 -0.095,-0.215 -0.076,-0.215 0.02,0 0.086,0.097 0.148,0.215 0.06,0.119 0.095,0.216 0.075,0.216 -0.02,0 -0.086,-0.097 -0.147,-0.216 z m 8.235,0.164 c 0.11,-0.016 0.27,-0.016 0.359,0.001 0.088,0.017 -0.001,0.03 -0.199,0.03 -0.197,0 -0.27,-0.015 -0.16,-0.031 z m -1.293,-0.072 c 0.109,-0.016 0.286,-0.016 0.395,0 0.109,0.017 0.02,0.03 -0.197,0.03 -0.217,0 -0.306,-0.014 -0.198,-0.03 z m -0.683,-0.067 a 0.413,0.413 0 0 1 0.216,-0.002 c 0.07,0.018 0.03,0.034 -0.089,0.036 -0.118,0.001 -0.175,-0.014 -0.127,-0.034 z m -0.967,-0.076 c 0.108,-0.016 0.286,-0.016 0.395,0 0.108,0.016 0.02,0.03 -0.198,0.03 -0.217,0 -0.306,-0.014 -0.197,-0.03 z m -1.006,-0.07 a 0.79,0.79 0 0 1 0.288,-0.001 c 0.089,0.017 0.033,0.032 -0.125,0.032 -0.158,10e-4 -0.231,-0.013 -0.163,-0.031 z m -0.682,-0.07 a 0.413,0.413 0 0 1 0.216,-0.002 c 0.07,0.019 0.03,0.035 -0.089,0.036 -0.118,0.002 -0.175,-0.013 -0.127,-0.033 z m -0.463,-0.067 c 0.024,-0.024 0.085,-0.027 0.137,-0.006 0.057,0.023 0.04,0.04 -0.043,0.044 -0.076,0.003 -0.118,-0.014 -0.094,-0.038 z m -3.706,-0.856 c -0.07,-0.18 -0.049,-0.227 0.036,-0.082 0.041,0.072 0.06,0.146 0.042,0.165 -0.018,0.018 -0.054,-0.019 -0.078,-0.083 z m 2.411,-0.32 c 0,-0.139 0.015,-0.195 0.033,-0.126 a 0.581,0.581 0 0 1 0,0.251 c -0.018,0.07 -0.033,0.013 -0.033,-0.125 z m 0.235,-0.718 c 0.071,-0.079 0.146,-0.143 0.166,-0.143 0.02,0 -0.023,0.064 -0.094,0.143 -0.072,0.079 -0.146,0.144 -0.166,0.144 -0.02,0 0.022,-0.065 0.094,-0.144 z m -3.188,-0.676 c -0.003,-0.075 0.014,-0.118 0.038,-0.094 0.024,0.024 0.026,0.086 0.006,0.138 -0.023,0.057 -0.04,0.04 -0.044,-0.044 z m 4.535,0.059 c 0.024,-0.024 0.085,-0.027 0.137,-0.006 0.058,0.023 0.04,0.04 -0.043,0.043 -0.076,0.003 -0.118,-0.013 -0.094,-0.037 z m 0.393,-0.076 c 0.049,-0.02 0.13,-0.02 0.18,0 0.048,0.02 0.008,0.036 -0.09,0.036 -0.1,0 -0.14,-0.017 -0.09,-0.036 z m 5.274,-0.007 a 44.577,44.577 0 0 1 1.83,0 c 0.503,0.013 0.091,0.023 -0.915,0.023 -1.006,0 -1.418,-0.01 -0.915,-0.023 z m -4.7,-0.068 a 1.02,1.02 0 0 1 0.323,0 c 0.089,0.017 0.016,0.03 -0.162,0.03 -0.177,0 -0.25,-0.013 -0.161,-0.03 z m 2.547,-0.002 c 0.148,-0.016 0.39,-0.016 0.539,0 0.148,0.016 0.026,0.028 -0.27,0.028 -0.296,0 -0.417,-0.013 -0.269,-0.028 z m 5.524,0.001 a 1.92,1.92 0 0 1 0.431,0 c 0.129,0.015 0.04,0.028 -0.196,0.029 -0.237,0 -0.342,-0.013 -0.235,-0.03 z m 1.149,-0.072 c 0.107,-0.016 0.301,-0.016 0.43,0 0.13,0.016 0.04,0.029 -0.196,0.03 -0.237,0 -0.342,-0.013 -0.234,-0.03 z m 1.185,-0.072 c 0.128,-0.016 0.338,-0.016 0.466,0 0.129,0.016 0.024,0.03 -0.233,0.03 -0.256,0 -0.361,-0.014 -0.233,-0.03 z m -15.973,-0.163 c 0,-0.1 0.017,-0.14 0.036,-0.09 0.02,0.049 0.02,0.13 0,0.18 -0.02,0.048 -0.036,0.008 -0.036,-0.09 z m 17.3,0.09 c 0.148,-0.015 0.39,-0.015 0.539,0 0.148,0.016 0.026,0.029 -0.27,0.029 -0.296,0 -0.417,-0.013 -0.269,-0.028 z m 1.4,-0.07 c 0.128,-0.016 0.338,-0.016 0.466,0 0.128,0.016 0.024,0.029 -0.233,0.029 -0.257,0 -0.362,-0.014 -0.233,-0.03 z m 1.22,-0.071 a 1.02,1.02 0 0 1 0.322,0 c 0.09,0.017 0.016,0.03 -0.16,0.03 -0.179,0 -0.251,-0.013 -0.162,-0.03 z m 0.788,-0.068 a 0.413,0.413 0 0 1 0.215,-0.003 c 0.07,0.019 0.03,0.035 -0.089,0.036 -0.118,0.002 -0.175,-0.013 -0.126,-0.033 z m 0.645,-0.072 a 0.413,0.413 0 0 1 0.216,-0.002 c 0.07,0.018 0.03,0.034 -0.089,0.036 -0.118,10e-4 -0.175,-0.014 -0.127,-0.034 z m 0.576,-0.072 c 0.049,-0.02 0.13,-0.02 0.18,0 0.048,0.02 0.008,0.036 -0.09,0.036 -0.1,0 -0.14,-0.017 -0.09,-0.036 z m -22.006,-0.126 c -0.003,-0.076 0.013,-0.118 0.037,-0.094 0.024,0.024 0.027,0.086 0.006,0.137 -0.023,0.058 -0.04,0.04 -0.043,-0.043 z m -0.058,-0.544 c 0,-0.178 0.013,-0.25 0.03,-0.162 a 1.02,1.02 0 0 1 0,0.323 c -0.016,0.09 -0.03,0.016 -0.03,-0.161 z m 21.992,0.24 c 0.05,-0.02 0.13,-0.02 0.18,0 0.049,0.02 0.009,0.035 -0.09,0.035 -0.099,0 -0.14,-0.016 -0.09,-0.036 z m -0.502,-0.072 c 0.049,-0.02 0.13,-0.02 0.18,0 0.048,0.02 0.008,0.036 -0.09,0.036 -0.1,0 -0.14,-0.016 -0.09,-0.036 z m -0.465,-0.068 c 0.024,-0.024 0.086,-0.026 0.137,-0.006 0.058,0.023 0.04,0.04 -0.043,0.044 -0.076,0.003 -0.118,-0.014 -0.094,-0.038 z m -0.43,-0.072 c 0.023,-0.024 0.085,-0.026 0.137,-0.005 0.057,0.022 0.04,0.04 -0.044,0.043 -0.075,0.003 -0.118,-0.014 -0.094,-0.038 z m -0.397,-0.076 c 0.05,-0.02 0.13,-0.02 0.18,0 0.049,0.02 0.009,0.036 -0.09,0.036 -0.099,0 -0.14,-0.016 -0.09,-0.036 z m -0.465,-0.067 c 0.024,-0.024 0.086,-0.027 0.138,-0.006 0.057,0.023 0.04,0.04 -0.044,0.043 -0.075,0.003 -0.118,-0.013 -0.094,-0.037 z m -0.54,-0.076 a 0.413,0.413 0 0 1 0.214,-0.002 c 0.07,0.018 0.03,0.034 -0.088,0.036 -0.118,0.001 -0.175,-0.014 -0.127,-0.034 z m -0.575,-0.072 a 0.413,0.413 0 0 1 0.215,-0.002 c 0.07,0.018 0.03,0.034 -0.088,0.036 -0.118,0.001 -0.176,-0.013 -0.127,-0.033 z m -0.646,-0.071 a 0.413,0.413 0 0 1 0.216,-0.003 c 0.07,0.018 0.03,0.034 -0.089,0.036 -0.118,0.002 -0.175,-0.013 -0.127,-0.033 z m -0.646,-0.072 a 0.413,0.413 0 0 1 0.216,-0.003 c 0.07,0.019 0.03,0.035 -0.089,0.036 -0.118,0.002 -0.175,-0.013 -0.127,-0.033 z m -0.572,-0.072 c 0.049,-0.02 0.13,-0.02 0.18,0 0.048,0.02 0.008,0.036 -0.09,0.036 -0.1,0 -0.14,-0.017 -0.09,-0.036 z m -16.816,-1.388 c 0,-0.69 0.011,-0.973 0.024,-0.628 0.013,0.345 0.013,0.91 0,1.256 -0.013,0.345 -0.024,0.063 -0.024,-0.628 z m 17.499,-1.407 c 0.024,-0.024 0.086,-0.026 0.137,-0.005 0.058,0.022 0.04,0.04 -0.043,0.043 -0.076,0.003 -0.118,-0.014 -0.094,-0.038 z m 0.393,-0.076 c 0.05,-0.02 0.13,-0.02 0.18,0 0.049,0.02 0.009,0.036 -0.09,0.036 -0.099,0 -0.14,-0.016 -0.09,-0.036 z m 0.573,-0.07 a 0.413,0.413 0 0 1 0.215,-0.003 c 0.07,0.018 0.03,0.034 -0.088,0.036 -0.119,0.001 -0.176,-0.014 -0.127,-0.034 z m 0.719,-0.076 a 1.02,1.02 0 0 1 0.323,0 c 0.088,0.017 0.016,0.03 -0.162,0.03 -0.177,0 -0.25,-0.013 -0.161,-0.03 z m 1.078,-0.074 a 3.56,3.56 0 0 1 0.574,0 c 0.147,0.016 0.01,0.029 -0.307,0.028 -0.316,0 -0.436,-0.013 -0.267,-0.028 z m 2.007,-0.072 c 0.326,-0.014 0.859,-0.014 1.184,0 0.326,0.013 0.06,0.023 -0.592,0.023 -0.65,0 -0.917,-0.01 -0.592,-0.023 z m -22.204,-0.45 c 0,-0.256 0.013,-0.36 0.03,-0.233 0.015,0.129 0.015,0.338 0,0.467 -0.017,0.128 -0.03,0.023 -0.03,-0.233 z m 27.124,0.377 a 68.296,68.296 0 0 1 2.225,0 c 0.6,0.012 0.089,0.022 -1.135,0.022 -1.223,0 -1.714,-0.01 -1.09,-0.022 z m 3.298,-0.807 c 0,-0.178 0.014,-0.25 0.031,-0.161 a 1.02,1.02 0 0 1 0,0.323 c -0.017,0.088 -0.03,0.016 -0.03,-0.162 z m -30.362,-0.43 c 0,-0.1 0.017,-0.14 0.036,-0.09 0.02,0.05 0.02,0.13 0,0.18 -0.02,0.048 -0.036,0.008 -0.036,-0.09 z m 30.282,-0.216 c 0,-0.098 0.017,-0.139 0.036,-0.09 0.02,0.05 0.02,0.13 0,0.18 -0.02,0.05 -0.036,0.009 -0.036,-0.09 z m -30.21,-0.143 c 0,-0.099 0.017,-0.14 0.036,-0.09 0.02,0.05 0.02,0.13 0,0.18 -0.02,0.049 -0.036,0.008 -0.036,-0.09 z m 0.072,-0.36 c 0,-0.098 0.016,-0.138 0.036,-0.089 0.02,0.05 0.02,0.13 0,0.18 -0.02,0.049 -0.036,0.009 -0.036,-0.09 z m 30.072,-0.07 c 0,-0.139 0.015,-0.195 0.032,-0.126 a 0.582,0.582 0 0 1 0,0.25 c -0.018,0.07 -0.032,0.013 -0.032,-0.125 z m -30.006,-0.318 c -0.003,-0.075 0.014,-0.118 0.038,-0.094 0.024,0.024 0.026,0.086 0.005,0.138 -0.023,0.057 -0.04,0.04 -0.043,-0.044 z m 29.934,-0.257 c 0,-0.138 0.015,-0.195 0.033,-0.126 a 0.582,0.582 0 0 1 0,0.252 c -0.019,0.069 -0.033,0.012 -0.033,-0.126 z m -29.857,-0.143 c 0,-0.1 0.017,-0.14 0.036,-0.09 0.02,0.05 0.02,0.13 0,0.18 -0.02,0.049 -0.036,0.008 -0.036,-0.09 z m 0.072,-0.431 c 0,-0.099 0.017,-0.139 0.036,-0.09 0.02,0.05 0.02,0.13 0,0.18 -0.02,0.049 -0.036,0.009 -0.036,-0.09 z m 0.066,-0.389 c -0.003,-0.075 0.014,-0.118 0.038,-0.094 0.024,0.024 0.026,0.086 0.006,0.138 -0.023,0.057 -0.04,0.04 -0.044,-0.044 z m 29.493,-0.071 c -0.003,-0.076 0.013,-0.118 0.037,-0.095 0.024,0.024 0.027,0.086 0.006,0.138 -0.023,0.057 -0.04,0.04 -0.043,-0.043 z m -29.421,-0.216 c -0.003,-0.075 0.014,-0.118 0.038,-0.094 0.024,0.024 0.026,0.086 0.005,0.138 -0.023,0.057 -0.04,0.04 -0.043,-0.044 z m 0.072,-0.287 c -0.003,-0.075 0.013,-0.118 0.037,-0.094 0.024,0.024 0.027,0.086 0.006,0.138 -0.023,0.057 -0.04,0.04 -0.043,-0.044 z m 29.134,-0.215 c -0.004,-0.076 0.013,-0.118 0.037,-0.094 0.024,0.024 0.027,0.086 0.006,0.137 -0.023,0.058 -0.04,0.04 -0.043,-0.043 z m -0.105,-0.296 c -0.07,-0.18 -0.049,-0.227 0.036,-0.081 0.042,0.072 0.061,0.146 0.042,0.164 -0.018,0.019 -0.053,-0.019 -0.078,-0.083 z m -28.604,-0.632 c 0,-0.079 0.571,-1.195 0.611,-1.195 0.032,0 -0.517,1.141 -0.584,1.214 -0.015,0.017 -0.027,0.008 -0.027,-0.02 z m 0.645,-1.313 c 0,-0.038 0.05,-0.132 0.112,-0.209 0.105,-0.131 0.107,-0.129 0.026,0.04 -0.104,0.22 -0.137,0.26 -0.137,0.17 z m 0.36,-0.671 c 0.042,-0.08 0.092,-0.144 0.112,-0.144 0.02,0 10e-4,0.065 -0.041,0.144 -0.042,0.079 -0.093,0.143 -0.113,0.143 -0.02,0 -10e-4,-0.064 0.041,-0.143 z m 0.502,-0.754 c 0.122,-0.177 0.238,-0.323 0.258,-0.323 0.02,0 -0.064,0.146 -0.187,0.323 -0.122,0.178 -0.238,0.323 -0.258,0.323 -0.02,0 0.064,-0.145 0.187,-0.323 z m 0.287,-0.403 c 0,-0.02 0.096,-0.129 0.215,-0.242 0.118,-0.114 0.215,-0.19 0.215,-0.17 0,0.019 -0.097,0.128 -0.215,0.241 -0.119,0.114 -0.215,0.19 -0.215,0.17 z m 0.574,-0.673 c 0.092,-0.099 0.184,-0.18 0.204,-0.18 0.02,0 -0.04,0.081 -0.133,0.18 -0.092,0.099 -0.184,0.18 -0.204,0.18 -0.02,0 0.04,-0.081 0.133,-0.18 z m 0.287,-0.33 c 0,-0.02 0.129,-0.162 0.287,-0.316 0.158,-0.154 0.287,-0.264 0.287,-0.244 0,0.02 -0.13,0.162 -0.287,0.316 -0.158,0.154 -0.287,0.264 -0.287,0.244 z m 0.86,-0.962 c 0.175,-0.177 0.334,-0.323 0.354,-0.323 0.02,0 -0.107,0.146 -0.281,0.323 -0.175,0.178 -0.333,0.323 -0.353,0.323 -0.02,0 0.106,-0.145 0.28,-0.323 z m 0.647,-0.574 c 0.133,-0.138 0.26,-0.25 0.279,-0.25 0.02,0 -0.074,0.112 -0.208,0.25 -0.134,0.138 -0.26,0.251 -0.279,0.251 -0.02,0 0.074,-0.113 0.208,-0.25 z m 0.466,-0.394 c 0.071,-0.08 0.146,-0.144 0.166,-0.144 0.02,0 -0.022,0.065 -0.094,0.144 -0.072,0.079 -0.146,0.143 -0.166,0.143 -0.02,0 0.022,-0.064 0.094,-0.143 z m 0.323,-0.252 c 0.05,-0.059 0.105,-0.107 0.125,-0.107 0.02,0 -0.004,0.048 -0.054,0.107 -0.049,0.06 -0.105,0.108 -0.125,0.108 -0.02,0 0.005,-0.048 0.054,-0.108 z m 0.215,-0.136 c 0,-0.02 0.146,-0.136 0.323,-0.258 0.178,-0.122 0.323,-0.206 0.323,-0.187 0,0.02 -0.145,0.136 -0.323,0.259 -0.177,0.122 -0.323,0.206 -0.323,0.186 z m 0.786,-0.577 c 0.056,-0.067 0.2,-0.172 0.321,-0.233 0.274,-0.14 0.23,-0.088 -0.138,0.162 -0.156,0.105 -0.238,0.137 -0.183,0.07 z m 0.721,-0.43 c 0,-0.02 0.065,-0.07 0.144,-0.112 0.079,-0.043 0.143,-0.061 0.143,-0.041 0,0.02 -0.064,0.07 -0.143,0.112 -0.08,0.043 -0.144,0.061 -0.144,0.041 z m 0.462,-0.288 c 0.077,-0.061 0.171,-0.111 0.21,-0.111 0.09,0 0.05,0.033 -0.17,0.137 -0.169,0.081 -0.171,0.08 -0.04,-0.026 z m 0.614,-0.255 c 0.06,-0.038 0.14,-0.07 0.18,-0.07 0.04,0 0.023,0.032 -0.036,0.07 a 0.432,0.432 0 0 1 -0.18,0.07 c -0.039,0 -0.023,-0.032 0.036,-0.07 z m 0.79,-0.287 a 0.43,0.43 0 0 1 0.18,-0.07 c 0.039,0 0.023,0.032 -0.037,0.07 a 0.432,0.432 0 0 1 -0.18,0.07 c -0.039,0 -0.023,-0.032 0.037,-0.07 z m 0.359,-0.143 a 0.43,0.43 0 0 1 0.179,-0.07 c 0.04,0 0.023,0.031 -0.036,0.07 a 0.432,0.432 0 0 1 -0.18,0.07 c -0.039,0 -0.023,-0.032 0.037,-0.07 z m 0.306,-0.115 c 0.024,-0.024 0.086,-0.027 0.138,-0.006 0.057,0.023 0.04,0.04 -0.044,0.043 -0.075,0.003 -0.118,-0.014 -0.094,-0.037 z m 0.287,-0.072 c 0.024,-0.024 0.086,-0.027 0.138,-0.006 0.057,0.023 0.04,0.04 -0.044,0.044 -0.075,0.003 -0.118,-0.014 -0.094,-0.038 z m 0.574,-0.144 c 0.024,-0.024 0.086,-0.026 0.138,-0.005 0.057,0.023 0.04,0.04 -0.044,0.043 -0.075,0.003 -0.118,-0.014 -0.094,-0.038 z m 0.359,-0.072 c 0.024,-0.023 0.086,-0.026 0.138,-0.005 0.057,0.023 0.04,0.04 -0.044,0.043 -0.076,0.003 -0.118,-0.014 -0.094,-0.037 z m 0.464,-0.075 a 0.408,0.408 0 0 1 0.215,-0.003 c 0.07,0.019 0.03,0.035 -0.089,0.036 -0.118,0.002 -0.175,-0.013 -0.126,-0.033 z m 0.503,-0.072 c 0.05,-0.02 0.13,-0.02 0.18,0 0.049,0.02 0.009,0.036 -0.09,0.036 -0.099,0 -0.14,-0.016 -0.09,-0.036 z m 0.503,-0.072 c 0.049,-0.02 0.13,-0.02 0.179,0 0.05,0.02 0.009,0.036 -0.09,0.036 -0.098,0 -0.139,-0.016 -0.09,-0.036 z"
       fill="#9d344e"
       id="path52" />
    <path
       d="m -65.67,100.134 c -1.761,-0.07 -2.729,-0.262 -4.987,-0.99 -2.88,-0.927 -4.276,-1.747 -6.29,-3.694 -0.72,-0.696 -1.025,-1.057 -1.524,-1.805 -1.234,-1.848 -1.975,-3.507 -2.276,-5.098 -0.116,-0.614 -0.135,-1.049 -0.132,-3.014 l 0.004,-2.296 0.273,-1.471 c 0.367,-1.977 0.519,-2.462 1.184,-3.79 0.792,-1.582 1.252,-2.236 2.743,-3.893 0.836,-0.929 2.345,-2.124 3.57,-2.828 0.608,-0.35 2.178,-0.955 3.058,-1.179 0.666,-0.17 2.31,-0.441 2.959,-0.488 0.525,-0.039 0.946,0.085 2.853,0.84 0.67,0.266 1.35,0.524 1.507,0.575 0.158,0.05 0.545,0.22 0.861,0.377 0.612,0.305 2.962,1.602 3.398,1.875 0.144,0.09 0.6,0.349 1.015,0.576 1.508,0.825 3.45,2.186 4.913,3.442 0.765,0.656 0.833,0.755 1.174,1.694 0.5,1.377 0.725,2.49 0.91,4.493 l 0.048,0.51 -4.114,0.05 c -7.348,0.09 -9.01,0.24 -10.773,0.974 -0.7,0.29 -0.984,0.59 -0.984,1.035 0,0.765 0.727,1.064 3.337,1.372 a 100.8,100.8 0 0 1 4.467,0.648 c 0.267,0.044 0.311,0.212 0.072,0.272 -0.452,0.113 -2.157,0.273 -3.958,0.37 -1.109,0.059 -2.824,0.16 -3.81,0.223 -1.455,0.093 -2.472,0.106 -5.382,0.067 -3.085,-0.04 -3.676,-0.032 -4.216,0.065 -1.182,0.211 -1.784,0.542 -1.923,1.057 -0.107,0.397 -0.034,0.728 0.223,1.022 0.45,0.513 1.067,0.615 5.45,0.905 0.572,0.037 1.831,0.133 2.798,0.212 0.967,0.078 2.937,0.191 4.377,0.25 4.727,0.195 7.479,0.344 7.965,0.432 0.1,0.017 1.003,0.099 2.01,0.18 1.924,0.157 2.009,0.169 2.009,0.281 0,0.097 -1.135,1.513 -1.241,1.55 -0.048,0.015 -0.91,0.096 -1.917,0.178 -2.547,0.207 -4.974,0.533 -5.566,0.748 -0.76,0.276 -1.08,0.67 -1.014,1.253 0.048,0.424 0.315,0.669 0.942,0.862 0.494,0.153 1.6,0.323 2.646,0.405 0.417,0.034 0.622,0.078 0.604,0.131 -0.047,0.144 -1.426,0.792 -2.348,1.103 -1.73,0.583 -2.159,0.628 -4.915,0.52 z"
       fill="#de1522"
       id="path54" />
    <path
       d="m -114.473,100.977 c 0.352,-2.951 2.063,-8.478 3.537,-11.432 l 0.931,-1.865 h 1.14 c 1.43,10e-4 12.882,1.114 14.952,1.454 0.846,0.139 1.902,0.404 2.347,0.59 0.865,0.362 1.063,0.936 0.41,1.186 -0.219,0.084 -3.333,0.305 -6.919,0.49 -3.586,0.185 -6.71,0.41 -6.941,0.5 -0.684,0.265 -0.485,0.561 0.481,0.72 0.496,0.08 1.173,0.194 1.504,0.252 0.331,0.057 2.482,0.26 4.78,0.452 2.3,0.191 4.238,0.406 4.31,0.478 0.113,0.113 -0.58,3.74 -0.746,3.905 -0.033,0.033 -1.518,0.177 -3.3,0.319 -1.781,0.141 -3.434,0.318 -3.673,0.391 -0.94,0.29 -0.14,0.695 2.315,1.173 2.57,0.5 3.485,0.963 3.227,1.635 -0.073,0.19 -0.494,0.42 -0.936,0.512 -1.299,0.27 -8.642,0.611 -13.284,0.618 l -4.3,0.006 z m 25.777,-3.937 c -0.43,-1.88 -0.578,-2.74 -0.488,-2.83 0.158,-0.158 5.502,0.412 7.933,0.846 2.31,0.411 2.768,0.623 2.768,1.279 0,0.788 -1.17,1.025 -5.703,1.155 l -4.379,0.125 z m -1.877,7.366 c -0.079,-0.265 -0.218,-1.023 -0.308,-1.684 -0.265,-1.945 -0.694,-2.517 -1.888,-2.524 -0.59,-0.003 -0.67,-0.08 -0.562,-0.545 0.07,-0.298 0.312,-1.516 0.54,-2.707 0.58,-3.038 1.274,-4.278 1.65,-2.948 0.211,0.75 1.539,6.69 1.626,7.28 0.04,0.264 -0.05,0.806 -0.2,1.203 a 19.772,19.772 0 0 0 -0.492,1.564 c -0.183,0.692 -0.248,0.757 -0.366,0.361 z m 42.209,-5.689 c -8.035,-0.21 -13.128,-0.68 -13.712,-1.265 -0.453,-0.453 -0.21,-1.056 0.54,-1.341 0.327,-0.125 2.144,-0.395 4.037,-0.602 4.39,-0.478 8.433,-1.035 8.942,-1.23 0.433,-0.166 0.518,-0.479 0.188,-0.683 -0.301,-0.186 -10.16,-1.043 -13.99,-1.216 -6.435,-0.29 -13.85,-0.891 -14.437,-1.17 -0.843,-0.4 -0.878,-1.012 -0.088,-1.53 0.585,-0.383 1.289,-0.44 5.85,-0.473 2.852,-0.02 6.864,-0.162 8.916,-0.314 3.405,-0.252 4.43,-0.472 4.035,-0.868 -0.08,-0.08 -1.791,-0.398 -3.804,-0.707 -2.013,-0.31 -3.765,-0.668 -3.893,-0.797 -0.55,-0.55 -0.054,-1.112 1.377,-1.562 1.18,-0.372 2.646,-0.491 8.06,-0.657 3.64,-0.11 7.351,-0.208 8.246,-0.217 l 1.628,-0.015 0.85,1.33 c 1.589,2.484 3.146,5.793 4.138,8.795 1.209,3.656 1.449,4.812 0.989,4.758 -0.18,-0.02 -3.723,-0.127 -7.872,-0.236 z m -26.14,11.553 c -0.205,-0.06 -0.749,-0.069 -1.076,-0.017 -0.165,0.027 -0.578,0.09 -0.917,0.14 -0.647,0.097 -0.981,0.187 -1.036,0.278 -0.026,0.043 -0.02,0.061 0.028,0.09 0.141,0.085 0.34,0.144 0.816,0.245 0.279,0.059 0.56,0.122 0.623,0.14 l 0.116,0.032 -0.02,0.216 c -0.027,0.307 -0.132,1.059 -0.173,1.248 -0.06,0.281 -0.119,0.291 -0.903,0.157 -1.07,-0.183 -2.177,-0.447 -2.655,-0.635 -0.577,-0.225 -1.083,-0.574 -1.217,-0.837 -0.077,-0.15 -0.122,-0.416 -0.122,-0.711 0,-0.215 0.01,-0.261 0.078,-0.363 0.203,-0.305 0.654,-0.664 1.065,-0.848 0.872,-0.39 2.103,-0.602 4.649,-0.802 0.513,-0.04 0.969,-0.087 1.013,-0.104 5.093,0.028 1.492,-0.04 5.093,0.028 2.446,0.039 3.788,0.12 5.019,0.302 0.95,0.14 1.553,0.38 1.836,0.73 0.134,0.166 0.165,0.23 0.2,0.416 0.064,0.34 -0.103,0.697 -0.528,1.125 -0.77,0.778 -2.093,1.383 -4.467,2.043 -1.208,0.337 -1.169,0.335 -1.248,0.068 a 10.727,10.727 0 0 1 -0.247,-1.338 l -0.018,-0.247 0.136,-0.058 c 0.075,-0.032 0.54,-0.196 1.035,-0.365 1.289,-0.44 1.467,-0.532 1.252,-0.642 -0.294,-0.152 -2.172,-0.379 -3.563,-0.43 -2.763,0.1 -2.185,0.074 -4.77,0.14 z"
       fill="#ffffff"
       id="path56" />
    <g
       aria-label="RadioDimanche"
       id="text60"
       style="font-size:16px;line-height:1.25;font-family:SWScrpc;-inkscape-font-specification:SWScrpc;letter-spacing:0;word-spacing:0">
      <path
         d="m -108.12705,104.68581 0.0942,-0.0975 0.83114,-0.43378 0.9582,-0.0167 0.88206,0.42798 0.46326,0.45921 0.45368,1.28608 0.004,0.20361 q 0,0 0.85489,-0.44618 l 2.77191,-0.44355 0.59367,-0.30985 -0.004,-0.20362 -0.3716,-0.70042 -0.81645,-0.78855 q -0.0252,-0.0714 -0.026,-0.11936 -0.004,-0.25153 0.23518,-0.25569 l 0.13237,0.0336 0.88935,0.84719 0.458575,0.87863 0.0062,0.35933 q 0.0033,0.19164 -0.05531,0.26454 l -0.835835,0.85321 -0.11915,0.038 -2.71224,0.43053 -0.6647,0.35901 -0.20831,0.42296 1.38366,0.33538 1.19285,0.38663 0.7976,0.3935 0.87758,0.85937 0.441695,1.28628 0.0154,0.88634 -0.04645,0.0847 -0.471195,0.46347 -0.0954,0.0256 -0.87436,0.0152 -0.0967,-0.0463 -0.47545,-0.47098 q -0.0246,-0.0355 -0.026,-0.11936 -8.3e-4,-0.0479 0.0105,-0.0841 l 0.0464,-0.0847 0.45901,-0.47525 q 0.0714,-0.0252 0.11936,-0.026 0.0479,-8.4e-4 0.0962,0.0223 0.15779,0.11706 0.53597,0.50587 0.0252,0.0714 0.0262,0.13134 10e-4,0.0719 -0.0339,0.1204 l 0.0721,0.0107 0.24716,-0.2559 -0.011,-0.6348 -0.34703,-0.66492 -1.17514,-0.74637 -0.82135,-0.3811 -2.42143,-0.76065 -2.00242,-0.77991 -0.7249,-0.34684 -0.38994,-0.37662 0.0165,0.94623 q 0.31484,0.88113 0.34004,0.95258 0.21299,0.53545 0.44701,0.9028 l 0.7675,0.72949 0.68854,0.3235 0.61086,-0.0106 0.24695,-0.26787 -0.01,-0.57492 -0.31683,-0.30601 -0.7852,-0.36975 q -0.0973,-0.0822 -0.0996,-0.21393 0.0208,-0.18008 0.16393,-0.21851 0.0475,-0.0248 0.0714,-0.0252 0.0719,-0.001 0.21685,0.0681 l 0.73687,0.34662 0.47545,0.47099 0.0496,0.095 0.004,0.89853 -0.0343,0.0964 -0.45922,0.46327 -0.0952,0.0376 -0.89852,0.004 -0.89404,-0.42776 -0.87737,-0.8474 -0.44681,-0.89082 q -0.13862,-0.39297 -0.41607,-1.19088 l -0.024,-2.07232 z m 0.4315,0.69939 -0.32392,0.66459 0.009,0.52701 q 0.083,-0.0494 0.1429,-0.0504 0.11978,-0.002 0.2784,0.1629 0.20757,0.22403 0.25611,0.25913 0.79572,0.2857 2.3956,0.65327 l -0.0206,-1.18577 -0.34744,-0.68887 -0.34141,-0.34152 -0.7249,-0.34683 -0.65876,0.0114 z"
         style="font-size:13.333px"
         id="path285" />
      <path
         d="m -101.67795,98.425843 q 0.1328,-0.01741 0.37967,-0.0714 l -0.55948,-0.434539 q -0.0744,-0.114511 -0.0431,-0.205072 0.047,-0.135843 0.15369,-0.187652 -0.0518,-0.106674 -0.009,-0.231196 0.11234,-0.214648 0.30478,-0.148028 0.0566,0.01959 0.11669,0.06575 l 1.945313,1.484748 0.588651,0.20378 0.243825,-0.118422 -0.09098,-0.652661 -0.248164,-0.491569 -0.850738,-1.13118 q -0.03309,-0.08751 0.01002,-0.212038 0.06967,-0.128004 0.198544,-0.134097 0.0418,-0.01088 0.109719,0.01263 0.07924,0.02743 0.105365,0.06183 l 0.910384,1.215213 0.262531,0.559926 0.117969,0.940895 -0.04703,0.135842 q -0.233813,0.235979 -0.720162,0.68878 l -0.03048,0.0148 0.03657,0.114074 0.110568,0.925663 -0.305669,0.88297 -0.701005,0.67006 -0.117993,0.0479 -0.899088,0.10709 q -0.29825,-0.0906 -0.8869,-0.29435 l -0.7001,-0.72408 -0.27734,-0.59041 -0.11405,-0.952215 0.29783,-0.860336 z m 0.2486,0.453689 -0.52118,0.516803 -0.2077,0.599971 0.42188,0.868624 0.53901,0.5669 0.97353,0.33702 0.818994,-0.38835 0.207699,-0.59997 -0.08619,-0.73974 q -0.280387,-0.325252 -1.448103,-1.236565 z"
         style="font-size:13.333px"
         id="path287" />
      <path
         d="m -101.08569,87.142534 q -0.0257,-0.047 0.0237,-0.202267 0.0819,-0.11811 0.20467,-0.105865 0.11288,0.0054 0.16209,0.03956 0.0394,0.02731 0.0522,0.05081 l 4.511062,6.001979 0.511811,0.355086 0.266737,-0.04822 0.08854,-0.652997 -0.106289,-0.540304 -0.513879,-1.318806 q -0.0082,-0.0932 0.06687,-0.201466 0.101628,-0.104453 0.227367,-0.07554 0.04318,8.01e-4 0.10224,0.04177 0.0689,0.0478 0.08477,0.08797 l 0.548634,1.415819 0.101673,0.610002 -0.140341,0.937818 -0.08194,0.11811 q -0.288825,0.16412 -0.87933,0.46886 l -0.03334,0.006 0.0044,0.119711 -0.143355,0.921148 -0.532629,0.767715 -0.855831,0.456004 -0.12654,0.01427 -0.894634,-0.139541 q -0.262734,-0.167701 -0.774544,-0.522787 l -0.478702,-0.886159 -0.107701,-0.643343 0.14717,-0.947661 0.518972,-0.748031 0.869488,-0.475688 q 0.132568,0.01907 0.384847,0.03372 L -101.305,87.500679 q -0.0438,-0.147026 0.0177,-0.235609 0.0683,-0.09842 0.20165,-0.122536 z m 2.94031,5.407937 -0.641319,0.356966 -0.361915,0.521653 0.171794,0.950252 0.366008,0.691333 0.846456,0.587258 0.89341,-0.15291 0.361915,-0.521653 0.116652,-0.735552 q -0.182203,-0.388851 -1.060633,-1.581495 z"
         style="font-size:13.333px"
         id="path289" />
      <path
         d="m -96.253809,86.282127 0.618002,0.02266 q 0.06736,0.01849 0.100454,0.05314 0.04137,0.04332 0.06503,0.120114 0.01821,0.313915 -0.01633,0.711349 -0.0012,0.05081 -0.05314,0.100454 -0.03465,0.0331 -0.103177,0.06541 -0.373,0.0084 -0.728285,-0.01672 -0.0083,-0.0087 -0.05003,-0.03504 -0.04176,-0.02638 -0.05831,-0.0437 -0.0331,-0.03465 -0.04098,-0.06025 -0.02843,-0.237894 1.76e-4,-0.745611 0.03543,-0.06697 0.07008,-0.100066 0.08663,-0.08274 0.196524,-0.07174 z m 0.810392,1.975849 q 0.0027,-0.118558 0.08935,-0.201298 0.129166,-0.09024 0.246946,-0.05364 0.03387,7.78e-4 0.08352,0.05276 0.04137,0.04331 0.08985,0.146102 l 1.042841,2.184537 0.421972,0.441808 0.287927,0.0066 0.20897,-0.613724 0.01283,-0.558916 -0.239487,-1.37811 q -0.01499,-0.08507 0.106288,-0.200909 0.128388,-0.05636 0.220957,-0.02882 0.05081,0.0012 0.100455,0.05314 0.04964,0.05198 0.05675,0.111451 l 0.261587,1.522657 -0.02189,0.584127 -0.325866,0.907591 -0.07797,0.07447 -0.972791,0.299632 q -0.118558,-0.0027 -0.193024,-0.08069 l -0.587453,-0.615065 -1.090151,-2.338136 q -0.03076,-0.136273 0.05587,-0.219012 0.09529,-0.09101 0.222513,-0.09657 z"
         style="font-size:13.333px"
         id="path291" />
      <path
         d="m -90.373335,84.769058 0.112574,0.04096 0.822572,0.493048 0.478031,0.732271 q 0.03274,0.05016 0.02229,0.09989 l 0.106859,-0.05545 0.388837,-0.697318 q 0.04054,-0.06938 0.08317,-0.354718 0.02215,-0.229047 0.122459,-0.294531 0.06019,-0.03929 0.173178,-0.04152 0.132636,0.02786 0.198119,0.128174 l 0.03887,0.103376 -0.149341,0.669728 -0.486499,0.832603 q -0.123856,0.09516 -0.404727,0.278515 l 0.02676,0.325875 -0.149341,0.669728 -0.483016,0.816024 -0.782427,0.510773 -0.96453,0.100332 -0.122605,-0.03441 -0.776316,-0.46602 q -0.180289,-0.254261 -0.520804,-0.775879 l -0.109946,-1.001171 0.142375,-0.636569 0.493048,-0.822572 0.762364,-0.497677 z m -1.262523,1.024466 -0.01226,-0.106443 -0.06019,0.03929 -0.198516,0.945031 0.07887,0.778255 0.56316,0.862676 0.885261,0.194617 0.531649,-0.347064 0.38842,-0.654129 0.104482,-0.497384 -0.0061,-0.05322 -0.791769,0.102001 -0.126088,-0.01783 -0.849182,-0.489982 z m 1.841846,-0.115118 -0.654129,-0.388419 -0.615526,0.08709 -0.06227,0.255241 0.340516,0.521618 0.66416,0.381871 0.695358,-0.09629 -0.0079,-0.209402 z"
         style="font-size:13.333px"
         id="path293" />
      <path
         d="m -82.597018,76.659464 1.042794,0.616838 0.76,1.118643 0.341403,1.223054 0.143694,2.074229 -0.338257,1.773455 -0.630251,1.08385 -0.69495,0.629293 -1.280745,0.357507 -0.96146,-0.191798 -0.04428,-0.02495 -0.07298,0.095 -1.113547,0.733703 -0.865368,0.241559 -0.09365,-0.02361 -0.567284,-0.33914 -0.04884,-0.08586 -0.235117,-0.842292 0.02039,-0.105189 0.33914,-0.567285 0.07111,-0.05716 0.880127,-0.233241 0.946702,0.183481 0.150811,0.09471 q 0.09847,-0.226482 0.334257,-1.386783 l 0.132658,-2.599112 0.249951,-2.134361 0.1529,-0.788918 0.266159,-0.472289 -1.696121,0.473455 -0.930281,0.632797 -0.504144,0.911838 -0.136266,0.7594 0.16426,0.588451 0.30994,0.174666 0.565374,-0.157818 0.213033,-0.395273 0.154776,-0.826753 q 0.05178,-0.12639 0.178702,-0.161819 0.242303,-0.06764 0.306718,0.163129 0.01933,0.06923 -0.0177,0.203937 l -0.151555,0.838291 -0.319285,0.549305 -0.07942,0.07192 -0.888444,0.248 -0.10841,-0.03193 -0.549305,-0.319284 -0.05716,-0.07111 -0.23002,-0.868589 0.188577,-0.972998 0.598857,-1.06265 1.141721,-0.766442 1.987798,-0.542436 z m 0.695054,0.975089 -0.885542,-0.499048 -0.420756,-0.08155 -0.0056,0.113507 -0.271255,0.498586 -0.05575,1.047856 0.08876,3.258667 q 0.03819,1.295256 -0.236254,2.317098 l -0.324381,0.575602 0.739544,0.154245 1.038442,-0.28987 0.570719,-0.495117 0.524,-0.929819 0.315994,-1.63043 -0.126245,-1.967164 -0.299533,-1.073057 z m -3.257404,7.177664 -0.788918,-0.1529 -0.611527,0.170701 -0.166349,0.295181 0.154598,0.553835 0.298401,0.177888 0.611527,-0.170702 0.55596,-0.503434 0.0939,-0.287394 z"
         style="font-size:13.333px"
         id="path295" />
      <path
         d="m -76.125187,78.500626 0.439101,0.435465 q 0.037,0.05925 0.03786,0.107155 0.0011,0.05989 -0.03358,0.132394 -0.199338,0.243184 -0.494069,0.512035 -0.03529,0.03657 -0.107155,0.03786 -0.04791,8.55e-4 -0.120202,-0.02182 -0.279972,-0.246607 -0.524226,-0.505833 -2.14e-4,-0.01198 -0.01305,-0.05967 -0.01283,-0.0477 -0.01326,-0.07165 -8.55e-4,-0.04791 0.01069,-0.07208 0.140307,-0.194205 0.505405,-0.548181 0.07144,-0.02524 0.119346,-0.02609 0.119775,-0.0021 0.193136,0.08042 z m -0.743028,2.002155 q 0.08235,-0.08534 0.202119,-0.08748 0.156135,0.02117 0.217947,0.127902 0.02438,0.02353 0.02567,0.09539 0.0011,0.05989 -0.03294,0.168325 l -0.713512,2.313141 0.01091,0.610848 0.207252,0.199981 0.569569,-0.309702 0.388197,-0.402314 0.757786,-1.175712 q 0.04663,-0.07272 0.214311,-0.07572 0.132607,0.04556 0.182014,0.128544 0.03657,0.03529 0.03786,0.107155 0.0013,0.07186 -0.03379,0.120416 l -0.839489,1.296984 -0.411938,0.414718 -0.854674,0.446587 -0.107797,0.0019 -0.918412,-0.438887 q -0.08534,-0.08235 -0.08726,-0.190142 l -0.01519,-0.850397 0.78281,-2.458153 q 0.06973,-0.121057 0.1895,-0.123196 0.131752,-0.0024 0.229068,0.07978 z"
         style="font-size:13.333px"
         id="path297" />
      <path
         d="m -71.626645,81.117499 q 0.0658,0.07931 0.0065,0.398159 l 0.494662,-0.278347 0.929346,-0.188454 0.498072,0.131394 q 0.175522,0.133028 0.747142,0.643111 0.08591,0.097 0.0065,0.398159 l 0.506245,-0.275293 0.929346,-0.188453 0.498072,0.131394 q 0.241325,0.212333 0.758725,0.646166 0.05422,0.07625 0.04377,0.209775 l -0.223064,0.845563 -0.687809,1.057469 -0.15584,0.590736 0.133382,0.245803 0.643962,-0.139849 0.471496,-0.284459 1.052355,-0.936521 q 0.08478,-0.03958 0.235357,1.43e-4 0.09814,0.05067 0.140133,0.173249 0.0048,0.07561 -0.0074,0.121942 -0.01833,0.0695 -0.04761,0.08655 l -1.163994,1.030962 -0.520883,0.283819 -0.932402,0.200037 -0.115831,-0.03056 -0.764196,-0.672388 q -0.05969,-0.102471 -0.02608,-0.229885 l 0.222425,-0.796175 0.687809,-1.057469 0.158895,-0.602319 -0.193714,-0.298886 -0.231661,-0.06111 -0.760432,0.15868 -0.896019,0.531753 -1.366451,2.080188 q -0.08542,0.08897 -0.178081,0.06452 -0.162163,-0.04278 -0.221855,-0.145251 -0.09089,0.06275 -0.195135,0.03525 -0.208495,-0.055 -0.200465,-0.226332 l 0.01897,-0.118886 1.364035,-2.117993 0.161951,-0.613902 -0.182131,-0.295831 -0.220078,-0.05806 -0.772015,0.155624 -0.884436,0.534809 -1.366451,2.080188 q -0.108583,0.08286 -0.178081,0.06452 -0.173746,-0.04583 -0.221855,-0.14525 -0.09089,0.06275 -0.206718,0.03219 -0.185329,-0.04889 -0.200465,-0.226332 l 0.01897,-0.118886 1.387201,-2.111882 0.161951,-0.613902 -0.151077,-0.225692 -0.614684,0.122793 -1.0493,0.924938 q -0.102472,0.05969 -0.206719,0.03219 -0.01158,-0.0031 -0.03475,-0.0092 -0.02011,-0.01769 -0.04328,-0.02381 -0.152996,-0.07753 -0.104105,-0.262857 l 0.02139,-0.08108 1.134716,-1.013907 0.114055,-0.05664 q 0.314661,-0.06566 0.964095,-0.179286 l 0.118247,0.06836 z"
         style="font-size:13.333px"
         id="path299" />
      <path
         d="m -60.428076,85.916916 q -0.01866,0.132627 -0.03252,0.384951 l 0.568094,-0.423207 q 0.130228,-0.04119 0.209137,0.0132 0.118365,0.08158 0.139825,0.198207 0.116631,-0.02146 0.225132,0.05332 0.17688,0.16555 0.06132,0.333233 -0.03399,0.04932 -0.09451,0.0949 l -1.950076,1.478489 -0.353493,0.512912 0.04905,0.266587 0.653269,0.08651 0.539971,-0.107968 1.317202,-0.517978 q 0.09317,-0.0085 0.201672,0.06625 0.104769,0.101302 0.07624,0.227131 -6.66e-4,0.04319 -0.04145,0.102369 -0.04759,0.06905 -0.08771,0.08504 l -1.414106,0.553035 -0.609682,0.103569 -0.938251,-0.137424 -0.118364,-0.08158 q -0.165017,-0.288313 -0.471592,-0.877868 l -0.0061,-0.03332 -0.119698,0.0048 -0.921588,-0.14049 -0.769368,-0.53024 -0.458663,-0.854408 -0.01466,-0.126495 0.136758,-0.895064 q 0.166883,-0.263254 0.520375,-0.776166 l 0.884666,-0.481455 0.643006,-0.109701 0.948114,0.144222 0.749641,0.516644 z m -0.503582,0.118498 -0.358958,-0.640206 -0.522776,-0.360291 -0.949714,0.174748 -0.690191,0.368156 -0.584623,0.848278 0.155687,0.89293 0.522776,0.360291 0.735912,0.114365 q 0.388282,-0.183412 1.578189,-1.065547 z"
         style="font-size:13.333px"
         id="path301" />
      <path
         d="m -55.891703,90.021879 q 0.0056,0.102901 -0.232167,0.323529 l 0.563088,0.07141 0.858498,0.402715 0.321562,0.402415 q 0.06162,0.211441 0.216481,0.961742 0.0056,0.102901 -0.08243,0.203878 l -0.683169,0.545908 -1.182628,0.438989 -0.477283,0.381387 -0.03196,0.286224 0.592915,0.262252 0.55561,0.06205 1.403213,-0.124562 q 0.08418,0.0094 0.1814,0.131062 0.05606,0.108541 0.0092,0.222637 -0.02436,0.06547 -0.08051,0.110336 -0.02808,0.02243 -0.08047,0.03363 l -1.556624,0.124476 -0.579925,-0.07329 -0.875335,-0.404595 -0.07478,-0.09359 -0.212721,-0.995416 q 0.03188,-0.132813 0.116106,-0.200117 l 0.653213,-0.506636 1.17515,-0.448348 0.486641,-0.388866 0.03013,-0.346092 -0.142086,-0.177811 -0.712609,-0.335283 -1.028917,-0.09786 -2.337181,0.855544 q -0.136574,0.0018 -0.181443,-0.05436 -0.112173,-0.140378 -0.09153,-0.248876 -0.110378,-0.0038 -0.18516,-0.09739 -0.119651,-0.149736 -0.02602,-0.301223 l 0.08611,-0.08414 2.372735,-0.86862 0.495999,-0.396344 0.01325,-0.271267 -0.56672,-0.267851 -1.393855,0.117084 q -0.117856,-0.01316 -0.18516,-0.09739 -0.0075,-0.0094 -0.02244,-0.02808 -0.0056,-0.0262 -0.02055,-0.04491 -0.07662,-0.153453 0.07312,-0.273104 l 0.06551,-0.05235 1.515472,-0.137594 0.125335,0.02252 q 0.291778,0.134865 0.880933,0.430791 l 0.05418,0.125378 z"
         style="font-size:13.333px"
         id="path303" />
      <path
         d="m -51.142478,97.020529 -0.268931,0.613293 -0.06257,0.06639 q -0.03773,0.0033 -0.114637,0.03678 -0.04394,0.01911 -0.120846,0.05254 -0.07213,0.04442 -0.105084,0.05875 -0.197748,0.08597 -0.320978,-0.0172 -0.05541,-0.06735 -0.127049,-0.23214 l -0.119405,-0.274651 q -0.0086,-0.13995 0.05398,-0.206342 0.02961,-0.05206 0.09553,-0.08072 0.05493,-0.02388 0.09266,-0.02722 0.126097,0.04968 0.384502,0.133273 l 0.07929,-0.17816 -0.234033,-0.538315 -0.940956,-0.361603 -0.759936,-0.03536 -0.922825,0.4012 -0.33533,0.851159 0.405976,0.933811 1.100004,0.697393 1.418607,0.258444 q 0.06782,0.03582 0.125139,0.167657 0.03678,0.114636 -0.05064,0.244077 -0.02818,0.02531 -0.08311,0.04919 -0.0769,0.03343 -0.157147,0.02913 l -1.465892,-0.277073 -1.265745,-0.808212 -0.05875,-0.105083 -0.506277,-1.164518 0.0626,-0.967712 0.05445,-0.115111 0.589434,-0.68732 q 0.28086,-0.135167 0.852133,-0.383529 l 1.005446,0.05925 0.60374,0.246959 0.728397,0.623826 0.362991,0.834937 z"
         style="font-size:13.333px"
         id="path305" />
      <path
         d="m -44.937247,101.65928 q 0.03954,0.0174 0.127529,0.17221 0.01035,0.059 -0.05918,0.21715 -0.04864,0.0694 -0.190227,0.0942 l -5.158771,-0.77292 q 0.0915,0.10557 0.633499,0.83748 l 0.08906,0.50735 -0.281232,0.96155 q -0.0681,0.0971 -0.186085,0.11781 l -0.837726,0.14704 -1.246168,-0.17046 -0.601747,0.10562 -0.167445,0.22399 0.396455,0.52637 0.455639,0.30923 1.279116,0.56604 q 0.08115,0.0466 0.110144,0.21175 -0.03414,0.15194 -0.08692,0.1977 -0.04098,0.0437 -0.111776,0.0561 -0.07079,0.0124 -0.124203,-0.0147 l -1.411603,-0.62793 -0.475722,-0.35434 -0.571807,-0.76317 -0.02071,-0.11799 0.29096,-0.97542 q 0.0681,-0.0971 0.174286,-0.11573 l 0.839797,-0.13524 1.260038,0.18018 0.601747,-0.10562 0.190416,-0.301 -0.03935,-0.22418 -0.478231,-0.6458 -0.81833,-0.57395 -2.472882,-0.36866 q -0.104746,-0.0424 -0.144913,-0.13268 -0.03314,-0.18878 0.03703,-0.27407 -0.09502,-0.0563 -0.113658,-0.16249 -0.03521,-0.20058 0.119622,-0.288571 l 0.117989,-0.02071 2.273743,0.342801 q -0.02981,-0.0312 -0.332252,-0.1606 -0.209494,-0.0849 -0.24056,-0.261838 0.02172,-0.222736 0.210499,-0.255873 0.08259,-0.0145 0.122132,0.0029 l 1.369993,0.598741 1.642813,0.49003 3.73292,0.54886 q 0.106818,0.0542 0.153197,0.17987 0.02071,0.11799 -0.05711,0.22895 z"
         style="font-size:13.333px"
         id="path307" />
      <path
         d="m -49.239322,108.84384 -0.519951,0.43491 -0.121077,0.0163 -0.848801,-0.0542 q -0.289705,-0.16256 -0.856396,-0.49887 l -0.435681,-0.50799 q -0.207009,-0.51739 -0.323232,-0.7649 l -0.356132,0.31335 -0.06494,1.01617 0.660486,1.12255 1.144303,0.87739 q 0.044,0.0628 0.03483,0.20629 -0.0196,0.11878 -0.156448,0.19406 -0.03663,0.01 -0.0964,0.006 -0.08369,-0.005 -0.153122,-0.0458 l -1.177876,-0.91555 -0.757384,-1.29679 -0.0043,-0.12032 0.08099,-1.26722 0.497345,-0.83249 0.100988,-0.0776 0.83815,-0.34256 q 0.311593,0.008 0.93325,0.0476 l 0.867587,0.5116 0.424489,0.49527 0.363412,0.8875 -0.03209,0.50211 z m -0.728488,-0.0586 0.279054,-0.23424 0.01146,-0.17933 -0.637881,-0.72498 -0.670465,-0.40296 -0.92053,-0.0588 0.334422,0.77761 0.312581,0.36808 0.681656,0.41569 z"
         style="font-size:13.333px"
         id="path309" />
    </g>
    <ellipse
       id="a"
       cx="98.703003"
       cy="-87.177002"
       rx="23.511"
       ry="22.981001"
       transform="rotate(166.934)"
       fill="none"
       fill-opacity="1"
       stroke="none"
       stroke-opacity="1" />
    <path
       d="m -73.273,105.373 a 3.819,3.819 0 1 1 -7.636,0 3.8185,3.8185 0 1 1 7.637,0 z"
       id="path44" />
  </g>
</svg>
