<svg width="500" height="500" xmlns="http://www.w3.org/2000/svg">
 <defs>
  <style>.cls-1{fill:#ea7a15;}.cls-2{fill:#ffecc7;}.cls-3{fill:#ffd48f;}.cls-4{fill:#ffc612;}.cls-5{fill:#f4ae00;}.cls-6{fill:#db8e05;}.cls-7{fill:none;stroke:#000;stroke-linecap:round;stroke-linejoin:round;stroke-width:15px;}</style>
 </defs>
 <title>envelope</title>
 <g>
  <title>Layer 1</title>
  <polygon id="svg_1" points="439.67 224.05 491.43 191.99 439.67 152.73 439.67 224.05" class="cls-1"/>
  <polygon id="svg_2" points="317.3 59.9 250 8.85 182.7 59.9 317.3 59.9" class="cls-1"/>
  <polygon id="svg_3" points="60.33 152.73 8.57 191.99 60.33 224.05 60.33 152.73" class="cls-1"/>
  <polygon id="svg_4" points="250 341.57 439.67 224.05 439.67 59.9 60.33 59.9 60.33 224.05 250 341.57" class="cls-2"/>
  <polygon id="svg_5" points="409.67 59.9 409.67 242.64 439.67 224.05 439.67 59.9 409.67 59.9" class="cls-3"/>
  <polygon id="svg_6" points="491.43 491.15 8.57 491.15 8.57 191.99 250 341.57 491.43 191.99 491.43 491.15" class="cls-4"/>
  <polygon id="svg_7" points="8.57 491.15 213.14 318.73 8.57 191.99 8.57 491.15" class="cls-5"/>
  <polygon id="svg_8" points="491.43 491.15 286.86 318.73 491.43 191.99 491.43 491.15" class="cls-5"/>
  <polygon id="svg_9" points="461.43 210.57 461.43 465.86 491.43 491.15 491.43 191.99 461.43 210.57" class="cls-6"/>
  <polygon id="svg_10" points="491.43 491.15 8.57 491.15 8.57 191.99 250 341.57 491.43 191.99 491.43 491.15" class="cls-7"/>
  <polygon id="svg_11" points="439.67 224.05 491.43 191.99 439.67 152.73 439.67 224.05" class="cls-7"/>
  <polygon id="svg_12" points="317.3 59.9 250 8.85 182.7 59.9 317.3 59.9" class="cls-7"/>
  <polygon id="svg_13" points="60.33 152.73 8.57 191.99 60.33 224.05 60.33 152.73" class="cls-7"/>
  <polygon id="svg_14" points="250 341.57 439.67 224.05 439.67 59.9 60.33 59.9 60.33 224.05 250 341.57" class="cls-7"/>
  <g id="svg_46">
   <g transform="matrix(0.500988, 0, 0, 0.42844, -169.998, -94.3326)" id="svg_21">
    <path id="svg_22" fill="#FFFFFF" d="m589.84361,626.80277l0,183.547l106.264,0l133.313,122.687c13.525,7.728 30.913,-1.932 30.913,-18.355l0,-382.551c0,-16.423 -17.389,-26.083 -30.913,-18.355l-133.312,113.027l-106.265,0z"/>
    <path id="svg_23" fill="#CCCCCC" d="m696.10861,810.34977l133.313,122.687c13.525,7.728 30.913,-1.932 30.913,-18.355l0,-382.551c0,-16.423 -17.389,-26.083 -30.913,-18.355l-133.313,113.027l0,183.547z"/>
    <path id="svg_24" fill="#E2E3E5" d="m618.82561,626.80277l0,183.547l77.283,0l104.332,96.604c13.525,7.728 30.913,24.151 30.913,7.728l0,-382.551c0,-16.423 -17.389,0 -30.913,7.728l-104.332,86.943l-77.283,0l0,0.001z"/>
    <g id="svg_25">
     <path id="svg_26" fill="#B6B6B6" d="m840.04761,945.59477c-4.83,0 -10.626,-0.966 -15.457,-3.864c-0.966,0 -0.966,-0.966 -1.932,-0.966l-130.415,-120.755l-102.4,0l0,0c-2.898,0 -4.83,-0.966 -6.762,-2.898s-2.898,-3.864 -2.898,-6.762l0,-183.547c0,-5.796 3.864,-9.66 9.66,-9.66l102.4,0l131.382,-111.095l0.966,-0.966c9.66,-5.796 20.287,-5.796 29.947,0s15.457,15.457 15.457,27.049l0,383.517c0,11.592 -5.796,21.253 -15.457,27.049c-4.83,1.932 -9.661,2.898 -14.491,2.898zm-4.83,-20.287c4.83,1.932 7.728,0.966 9.66,0c3.864,-1.932 5.796,-5.796 5.796,-9.66l0,-383.517c0,-3.864 -1.932,-7.728 -5.796,-9.66c-1.932,-0.966 -5.796,-2.898 -9.66,0l-133.313,112.06c-0.966,0.966 -3.864,1.932 -5.796,1.932l-96.604,0l0,164.226l96.604,0l0,0c2.898,0 4.83,0.966 6.762,2.898l132.347,121.721z"/>
     <path id="svg_27" fill="#B6B6B6" d="m696.10861,684.76477c-5.796,0 -9.66,-3.864 -9.66,-9.66l0,-48.302c0,-5.796 3.864,-9.66 9.66,-9.66s9.66,3.864 9.66,9.66l0,48.302c0,5.796 -3.864,9.66 -9.66,9.66z"/>
     <path id="svg_28" fill="#B6B6B6" d="m696.10861,820.00977c-5.796,0 -9.66,-3.864 -9.66,-9.66l0,-48.302c0,-5.796 3.864,-9.66 9.66,-9.66s9.66,3.864 9.66,9.66l0,48.302c0,5.796 -3.864,9.66 -9.66,9.66z"/>
     <path id="svg_29" fill="#B6B6B6" d="m952.10861,897.29277c-3.864,0 -7.728,-2.898 -8.694,-6.762c-1.932,-4.83 0.966,-10.626 5.796,-12.559c68.589,-23.185 113.992,-86.943 113.992,-159.396s-45.404,-136.211 -113.993,-160.362c-4.83,-1.932 -7.728,-6.762 -5.796,-12.558c1.932,-4.83 6.762,-7.728 12.558,-5.796c75.352,26.082 126.552,98.535 126.552,178.716s-51.2,152.634 -127.517,177.751c-0.966,0.966 -1.932,0.966 -2.898,0.966z"/>
     <path id="svg_30" fill="#B6B6B6" d="m898.97561,844.16077c-3.864,0 -7.728,-2.898 -9.66,-6.762c-1.932,-4.83 1.932,-10.626 6.762,-11.592c47.336,-13.525 80.181,-57.962 80.181,-106.264c0,-49.268 -32.845,-92.74 -80.181,-106.264c-4.83,-1.932 -7.728,-6.762 -6.762,-11.592c1.932,-4.83 6.762,-7.728 11.592,-6.762c55.064,16.423 94.672,67.623 94.672,125.585s-38.642,109.162 -94.672,125.585c0.001,-1.934 -0.966,-1.934 -1.932,-1.934z"/>
    </g>
   </g>
   <g transform="matrix(0.500988, 0, 0, 0.42844, -169.998, -94.3326)" id="svg_31"/>
   <g transform="matrix(0.500988, 0, 0, 0.42844, -169.998, -94.3326)" id="svg_32"/>
   <g transform="matrix(0.500988, 0, 0, 0.42844, -169.998, -94.3326)" id="svg_33"/>
   <g transform="matrix(0.500988, 0, 0, 0.42844, -169.998, -94.3326)" id="svg_34"/>
   <g transform="matrix(0.500988, 0, 0, 0.42844, -169.998, -94.3326)" id="svg_35"/>
   <g transform="matrix(0.500988, 0, 0, 0.42844, -169.998, -94.3326)" id="svg_36"/>
   <g transform="matrix(0.500988, 0, 0, 0.42844, -169.998, -94.3326)" id="svg_37"/>
   <g transform="matrix(0.500988, 0, 0, 0.42844, -169.998, -94.3326)" id="svg_38"/>
   <g transform="matrix(0.500988, 0, 0, 0.42844, -169.998, -94.3326)" id="svg_39"/>
   <g transform="matrix(0.500988, 0, 0, 0.42844, -169.998, -94.3326)" id="svg_40"/>
   <g transform="matrix(0.500988, 0, 0, 0.42844, -169.998, -94.3326)" id="svg_41"/>
   <g transform="matrix(0.500988, 0, 0, 0.42844, -169.998, -94.3326)" id="svg_42"/>
   <g transform="matrix(0.500988, 0, 0, 0.42844, -169.998, -94.3326)" id="svg_43"/>
   <g transform="matrix(0.500988, 0, 0, 0.42844, -169.998, -94.3326)" id="svg_44"/>
   <g transform="matrix(0.500988, 0, 0, 0.42844, -169.998, -94.3326)" id="svg_45"/>
  </g>
  <polygon id="svg_16" points="491.43 491.15 286.86 318.73 491.43 191.99 491.43 491.15" class="cls-7"/>
  <polygon id="svg_15" points="8.57 491.15 213.14 318.73 8.57 191.99 8.57 491.15" class="cls-7"/>
 </g>
</svg>