<svg width="509.287" height="509.287" xmlns="http://www.w3.org/2000/svg">

 <g>
  <title>Layer 1</title>
  <path id="svg_2" fill="#F0582F" d="m460.461,453.001l-411.635,0c-17.632,0 -29.838,-16.276 -26.787,-35.264l30.517,-182.082l404.514,0l30.517,182.082c2.712,18.989 -9.494,35.264 -27.126,35.264z"/>
  <path id="svg_3" fill="#414753" d="m425.197,294.315l-341.107,0l-18.31,109.521c-2.713,15.258 7.46,28.482 21.701,28.482l334.665,0c14.241,0 24.413,-13.224 21.701,-28.482l-18.65,-109.521z"/>
  <path id="svg_4" fill="#646B79" d="m468.26,182.421l-37.637,-39.332l0,0l-351.958,0l0,0l-37.637,39.332l0,46.453l11.189,0l0,7.121l404.514,0l0,-7.121l11.189,0l0,-46.453l0.34,0zm-45.775,10.851l-335.682,0l8.816,-21.701l317.711,0l9.155,21.701z"/>
  <rect id="svg_5" fill="#d8d8d8" height="136.646" width="266.511" y="56.286" x="121.388"/>
  <g id="svg_6">
   <path id="svg_7" fill="#FFFFFC" d="m122.744,302.453l-15.258,0c-2.034,0 -4.069,1.695 -4.069,4.069l0,13.563c0,2.034 1.695,4.069 4.069,4.069l15.258,0c2.034,0 4.069,-1.695 4.069,-4.069l0,-13.563c-0.339,-2.374 -2.034,-4.069 -4.069,-4.069z"/>
   <path id="svg_8" fill="#FFFFFC" d="m150.209,302.453l-15.258,0c-2.034,0 -4.069,1.695 -4.069,4.069l0,13.563c0,2.034 1.695,4.069 4.069,4.069l15.258,0c2.034,0 4.069,-1.695 4.069,-4.069l0,-13.563c-0.339,-2.374 -2.034,-4.069 -4.069,-4.069z"/>
   <path id="svg_9" fill="#FFFFFC" d="m177.674,302.453l-15.258,0c-2.034,0 -4.069,1.695 -4.069,4.069l0,13.563c0,2.034 1.695,4.069 4.069,4.069l15.258,0c2.034,0 4.069,-1.695 4.069,-4.069l0,-13.563c-0.339,-2.374 -2.034,-4.069 -4.069,-4.069z"/>
   <path id="svg_10" fill="#FFFFFC" d="m204.8,302.453l-15.258,0c-2.034,0 -4.069,1.695 -4.069,4.069l0,13.563c0,2.034 1.695,4.069 4.069,4.069l15.258,0c2.034,0 4.069,-1.695 4.069,-4.069l0,-13.563c0,-2.374 -1.695,-4.069 -4.069,-4.069z"/>
   <path id="svg_11" fill="#FFFFFC" d="m232.265,302.453l-15.258,0c-2.034,0 -4.069,1.695 -4.069,4.069l0,13.563c0,2.034 1.695,4.069 4.069,4.069l15.258,0c2.034,0 4.069,-1.695 4.069,-4.069l0,-13.563c0,-2.374 -1.696,-4.069 -4.069,-4.069z"/>
   <path id="svg_12" fill="#FFFFFC" d="m259.73,302.453l-15.258,0c-2.034,0 -4.069,1.695 -4.069,4.069l0,13.563c0,2.034 1.695,4.069 4.069,4.069l15.258,0c2.034,0 4.069,-1.695 4.069,-4.069l0,-13.563c0,-2.374 -1.696,-4.069 -4.069,-4.069z"/>
   <path id="svg_13" fill="#FFFFFC" d="m287.195,302.453l-15.258,0c-2.034,0 -4.069,1.695 -4.069,4.069l0,13.563c0,2.034 1.695,4.069 4.069,4.069l15.258,0c2.034,0 4.069,-1.695 4.069,-4.069l0,-13.563c0,-2.374 -2.035,-4.069 -4.069,-4.069z"/>
   <path id="svg_14" fill="#FFFFFC" d="m314.66,302.453l-15.258,0c-2.034,0 -4.069,1.695 -4.069,4.069l0,13.563c0,2.034 1.695,4.069 4.069,4.069l15.258,0c2.034,0 4.069,-1.695 4.069,-4.069l0,-13.563c-0.34,-2.374 -2.035,-4.069 -4.069,-4.069z"/>
   <path id="svg_15" fill="#FFFFFC" d="m342.125,302.453l-15.258,0c-2.034,0 -4.069,1.695 -4.069,4.069l0,13.563c0,2.034 1.695,4.069 4.069,4.069l15.258,0c2.034,0 4.069,-1.695 4.069,-4.069l0,-13.563c-0.34,-2.374 -2.035,-4.069 -4.069,-4.069z"/>
   <path id="svg_16" fill="#FFFFFC" d="m369.589,302.453l-15.258,0c-2.034,0 -4.069,1.695 -4.069,4.069l0,13.563c0,2.034 1.695,4.069 4.069,4.069l15.258,0c2.034,0 4.069,-1.695 4.069,-4.069l0,-13.563c-0.339,-2.374 -2.034,-4.069 -4.069,-4.069z"/>
   <path id="svg_17" fill="#FFFFFC" d="m397.054,302.453l-15.258,0c-2.034,0 -4.069,1.695 -4.069,4.069l0,13.563c0,2.034 1.695,4.069 4.069,4.069l15.258,0c2.034,0 4.069,-1.695 4.069,-4.069l0,-13.563c-0.339,-2.374 -2.034,-4.069 -4.069,-4.069z"/>
   <path id="svg_18" fill="#FFFFFC" d="m122.744,364.503l-15.258,0c-2.034,0 -4.069,1.695 -4.069,4.069l0,13.563c0,2.034 1.695,4.069 4.069,4.069l15.258,0c2.034,0 4.069,-1.695 4.069,-4.069l0,-13.563c-0.339,-2.373 -2.034,-4.069 -4.069,-4.069z"/>
   <path id="svg_19" fill="#FFFFFC" d="m150.209,364.503l-15.258,0c-2.034,0 -4.069,1.695 -4.069,4.069l0,13.563c0,2.034 1.695,4.069 4.069,4.069l15.258,0c2.034,0 4.069,-1.695 4.069,-4.069l0,-13.563c-0.339,-2.373 -2.034,-4.069 -4.069,-4.069z"/>
   <path id="svg_20" fill="#FFFFFC" d="m177.674,364.503l-15.258,0c-2.034,0 -4.069,1.695 -4.069,4.069l0,13.563c0,2.034 1.695,4.069 4.069,4.069l15.258,0c2.034,0 4.069,-1.695 4.069,-4.069l0,-13.563c-0.339,-2.373 -2.034,-4.069 -4.069,-4.069z"/>
   <path id="svg_21" fill="#FFFFFC" d="m204.8,364.503l-15.258,0c-2.034,0 -4.069,1.695 -4.069,4.069l0,13.563c0,2.034 1.695,4.069 4.069,4.069l15.258,0c2.034,0 4.069,-1.695 4.069,-4.069l0,-13.563c0,-2.373 -1.695,-4.069 -4.069,-4.069z"/>
   <path id="svg_22" fill="#FFFFFC" d="m232.265,364.503l-15.258,0c-2.034,0 -4.069,1.695 -4.069,4.069l0,13.563c0,2.034 1.695,4.069 4.069,4.069l15.258,0c2.034,0 4.069,-1.695 4.069,-4.069l0,-13.563c0,-2.373 -1.696,-4.069 -4.069,-4.069z"/>
   <path id="svg_23" fill="#FFFFFC" d="m259.73,364.503l-15.258,0c-2.034,0 -4.069,1.695 -4.069,4.069l0,13.563c0,2.034 1.695,4.069 4.069,4.069l15.258,0c2.034,0 4.069,-1.695 4.069,-4.069l0,-13.563c0,-2.373 -1.696,-4.069 -4.069,-4.069z"/>
   <path id="svg_24" fill="#FFFFFC" d="m287.195,364.503l-15.258,0c-2.034,0 -4.069,1.695 -4.069,4.069l0,13.563c0,2.034 1.695,4.069 4.069,4.069l15.258,0c2.034,0 4.069,-1.695 4.069,-4.069l0,-13.563c0,-2.373 -2.035,-4.069 -4.069,-4.069z"/>
   <path id="svg_25" fill="#FFFFFC" d="m314.66,364.503l-15.258,0c-2.034,0 -4.069,1.695 -4.069,4.069l0,13.563c0,2.034 1.695,4.069 4.069,4.069l15.258,0c2.034,0 4.069,-1.695 4.069,-4.069l0,-13.563c-0.34,-2.373 -2.035,-4.069 -4.069,-4.069z"/>
   <path id="svg_26" fill="#FFFFFC" d="m342.125,364.503l-15.258,0c-2.034,0 -4.069,1.695 -4.069,4.069l0,13.563c0,2.034 1.695,4.069 4.069,4.069l15.258,0c2.034,0 4.069,-1.695 4.069,-4.069l0,-13.563c-0.34,-2.373 -2.035,-4.069 -4.069,-4.069z"/>
   <path id="svg_27" fill="#FFFFFC" d="m369.589,364.503l-15.258,0c-2.034,0 -4.069,1.695 -4.069,4.069l0,13.563c0,2.034 1.695,4.069 4.069,4.069l15.258,0c2.034,0 4.069,-1.695 4.069,-4.069l0,-13.563c-0.339,-2.373 -2.034,-4.069 -4.069,-4.069z"/>
   <path id="svg_28" fill="#FFFFFC" d="m397.054,364.503l-15.258,0c-2.034,0 -4.069,1.695 -4.069,4.069l0,13.563c0,2.034 1.695,4.069 4.069,4.069l15.258,0c2.034,0 4.069,-1.695 4.069,-4.069l0,-13.563c-0.339,-2.373 -2.034,-4.069 -4.069,-4.069z"/>
   <path id="svg_29" fill="#FFFFFC" d="m108.842,333.309l-15.258,0c-2.034,0 -4.069,1.695 -4.069,4.069l0,13.563c0,2.034 1.695,4.069 4.069,4.069l15.258,0c2.034,0 4.069,-1.695 4.069,-4.069l0,-13.563c0,-2.374 -1.695,-4.069 -4.069,-4.069z"/>
   <path id="svg_30" fill="#FFFFFC" d="m136.307,333.309l-15.258,0c-2.034,0 -4.069,1.695 -4.069,4.069l0,13.563c0,2.034 1.695,4.069 4.069,4.069l15.258,0c2.034,0 4.069,-1.695 4.069,-4.069l0,-13.563c0,-2.374 -1.695,-4.069 -4.069,-4.069z"/>
   <path id="svg_31" fill="#FFFFFC" d="m163.772,333.309l-15.258,0c-2.034,0 -4.069,1.695 -4.069,4.069l0,13.563c0,2.034 1.695,4.069 4.069,4.069l15.258,0c2.034,0 4.069,-1.695 4.069,-4.069l0,-13.563c0,-2.374 -1.695,-4.069 -4.069,-4.069z"/>
   <path id="svg_32" fill="#FFFFFC" d="m191.237,333.309l-15.258,0c-2.034,0 -4.069,1.695 -4.069,4.069l0,13.563c0,2.034 1.695,4.069 4.069,4.069l15.258,0c2.034,0 4.069,-1.695 4.069,-4.069l0,-13.563c0,-2.374 -2.034,-4.069 -4.069,-4.069z"/>
   <path id="svg_33" fill="#FFFFFC" d="m218.702,333.309l-15.258,0c-2.034,0 -4.069,1.695 -4.069,4.069l0,13.563c0,2.034 1.695,4.069 4.069,4.069l15.258,0c2.034,0 4.069,-1.695 4.069,-4.069l0,-13.563c-0.339,-2.374 -2.035,-4.069 -4.069,-4.069z"/>
   <path id="svg_34" fill="#FFFFFC" d="m246.167,333.309l-15.258,0c-2.034,0 -4.069,1.695 -4.069,4.069l0,13.563c0,2.034 1.695,4.069 4.069,4.069l15.258,0c2.034,0 4.069,-1.695 4.069,-4.069l0,-13.563c-0.339,-2.374 -2.035,-4.069 -4.069,-4.069z"/>
   <path id="svg_35" fill="#FFFFFC" d="m273.632,333.309l-15.258,0c-2.034,0 -4.069,1.695 -4.069,4.069l0,13.563c0,2.034 1.695,4.069 4.069,4.069l15.258,0c2.034,0 4.069,-1.695 4.069,-4.069l0,-13.563c-0.339,-2.374 -2.035,-4.069 -4.069,-4.069z"/>
   <path id="svg_36" fill="#FFFFFC" d="m300.758,333.309l-15.258,0c-2.034,0 -4.069,1.695 -4.069,4.069l0,13.563c0,2.034 1.695,4.069 4.069,4.069l15.258,0c2.034,0 4.069,-1.695 4.069,-4.069l0,-13.563c0,-2.374 -1.696,-4.069 -4.069,-4.069z"/>
   <path id="svg_37" fill="#FFFFFC" d="m328.223,333.309l-15.258,0c-2.034,0 -4.069,1.695 -4.069,4.069l0,13.563c0,2.034 1.695,4.069 4.069,4.069l15.258,0c2.034,0 4.069,-1.695 4.069,-4.069l0,-13.563c-0.001,-2.374 -1.696,-4.069 -4.069,-4.069z"/>
   <path id="svg_38" fill="#FFFFFC" d="m355.687,333.309l-15.258,0c-2.034,0 -4.069,1.695 -4.069,4.069l0,13.563c0,2.034 1.695,4.069 4.069,4.069l15.258,0c2.034,0 4.069,-1.695 4.069,-4.069l0,-13.563c0,-2.374 -1.695,-4.069 -4.069,-4.069z"/>
   <path id="svg_39" fill="#FFFFFC" d="m383.152,333.309l-15.258,0c-2.034,0 -4.069,1.695 -4.069,4.069l0,13.563c0,2.034 1.695,4.069 4.069,4.069l15.258,0c2.034,0 4.069,-1.695 4.069,-4.069l0,-13.563c0,-2.374 -2.034,-4.069 -4.069,-4.069z"/>
   <path id="svg_40" fill="#FFFFFC" d="m410.617,333.309l-15.258,0c-2.034,0 -4.069,1.695 -4.069,4.069l0,13.563c0,2.034 1.695,4.069 4.069,4.069l15.258,0c2.034,0 4.069,-1.695 4.069,-4.069l0,-13.563c-0.339,-2.374 -2.034,-4.069 -4.069,-4.069z"/>
   <path id="svg_41" fill="#FFFFFC" d="m343.481,397.732l-182.421,0c-1.356,0 -2.374,1.356 -2.374,2.713l0,14.241c0,1.695 1.017,2.713 2.374,2.713l182.76,0c1.356,0 2.373,-1.356 2.373,-2.713l0,-14.241c-0.339,-1.356 -1.356,-2.713 -2.712,-2.713z"/>
  </g>
  <g id="svg_42">
   <rect id="svg_43" fill="#BDBDBE" height="12.546" width="111.894" y="94.94" x="157.669"/>
   <rect id="svg_44" fill="#BDBDBE" height="12.546" width="194.289" y="132.917" x="157.669"/>
   <rect id="svg_45" fill="#BDBDBE" height="12.546" width="194.289" y="171.232" x="157.669"/>
  </g>
  <g id="svg_46"/>
  <g id="svg_47"/>
  <g id="svg_48"/>
  <g id="svg_49"/>
  <g id="svg_50"/>
  <g id="svg_51"/>
  <g id="svg_52"/>
  <g id="svg_53"/>
  <g id="svg_54"/>
  <g id="svg_55"/>
  <g id="svg_56"/>
  <g id="svg_57"/>
  <g id="svg_58"/>
  <g id="svg_59"/>
  <g id="svg_60"/>
 </g>
</svg>